<svg width="64" height="64" viewBox="0 0 64 64" fill="none" xmlns="http://www.w3.org/2000/svg" xmlns:xlink="http://www.w3.org/1999/xlink">
<path d="M31.38,0.565C22.857,0.565 21.79,0.6 18.443,0.754C15.103,0.907 12.821,1.437 10.825,2.213C8.731,3.001 6.834,4.236 5.267,5.832C3.671,7.4 2.436,9.296 1.647,11.39C0.872,13.386 0.34,15.668 0.188,19.01C0.037,22.356 0,23.421 0,31.946C0,40.471 0.035,41.536 0.188,44.883C0.342,48.224 0.872,50.506 1.647,52.502C2.435,54.596 3.67,56.492 5.267,58.06C7.01,59.803 8.762,60.877 10.825,61.679C12.821,62.455 15.103,62.986 18.443,63.138C21.79,63.29 22.857,63.326 31.38,63.326C39.904,63.326 40.971,63.291 44.318,63.138C47.658,62.985 49.94,62.455 51.936,61.679C54.03,60.891 55.927,59.656 57.494,58.06C59.238,56.316 60.311,54.564 61.113,52.502C61.889,50.506 62.421,48.224 62.573,44.883C62.724,41.536 62.761,40.469 62.761,31.946C62.761,23.422 62.726,22.356 62.573,19.008C62.419,15.668 61.889,13.386 61.113,11.39C60.326,9.296 59.09,7.4 57.494,5.832C55.927,4.236 54.03,3.001 51.936,2.213C49.94,1.437 47.658,0.905 44.316,0.754C40.971,0.602 39.905,0.565 31.38,0.565ZM31.38,6.219C39.759,6.219 40.753,6.252 44.062,6.402C47.121,6.542 48.783,7.052 49.888,7.483C51.352,8.051 52.398,8.733 53.497,9.83C54.595,10.928 55.275,11.974 55.843,13.438C56.274,14.544 56.785,16.205 56.924,19.265C57.074,22.574 57.107,23.567 57.107,31.946C57.107,40.324 57.074,41.318 56.924,44.627C56.785,47.687 56.274,49.348 55.843,50.453C55.341,51.816 54.539,53.05 53.497,54.062C52.398,55.16 51.352,55.84 49.888,56.409C48.783,56.839 47.121,57.35 44.062,57.49C40.753,57.64 39.761,57.673 31.38,57.673C23,57.673 22.008,57.64 18.699,57.49C15.64,57.35 13.978,56.839 12.873,56.409C11.51,55.906 10.277,55.104 9.264,54.062C8.222,53.05 7.42,51.816 6.918,50.453C6.487,49.348 5.976,47.687 5.837,44.627C5.687,41.318 5.654,40.324 5.654,31.946C5.654,23.567 5.687,22.574 5.837,19.265C5.976,16.205 6.487,14.544 6.918,13.438C7.486,11.974 8.168,10.928 9.264,9.83C10.363,8.731 11.409,8.051 12.873,7.483C13.978,7.052 15.64,6.542 18.699,6.402C22.008,6.252 23.002,6.219 31.38,6.219Z" clip-rule="evenodd" fill-rule="evenodd" fill="#72848E"/>
<path d="M31.381,42.417C30.005,42.417 28.644,42.146 27.374,41.62C26.103,41.094 24.949,40.322 23.977,39.35C23.005,38.378 22.233,37.224 21.707,35.953C21.181,34.683 20.91,33.321 20.91,31.946C20.91,30.571 21.181,29.21 21.707,27.939C22.233,26.669 23.005,25.515 23.977,24.542C24.949,23.57 26.103,22.799 27.374,22.273C28.644,21.746 30.005,21.476 31.381,21.476C34.158,21.476 36.821,22.579 38.784,24.542C40.748,26.506 41.851,29.169 41.851,31.946C41.851,34.723 40.748,37.386 38.784,39.35C36.821,41.314 34.158,42.417 31.381,42.417ZM31.381,15.817C27.103,15.817 23,17.516 19.975,20.541C16.95,23.566 15.251,27.668 15.251,31.946C15.251,36.224 16.95,40.327 19.975,43.351C23,46.376 27.103,48.076 31.381,48.076C35.658,48.076 39.761,46.376 42.786,43.351C45.811,40.327 47.51,36.224 47.51,31.946C47.51,27.668 45.811,23.566 42.786,20.541C39.761,17.516 35.658,15.817 31.381,15.817ZM52.203,15.524C52.203,16.535 51.802,17.505 51.086,18.22C50.371,18.935 49.402,19.336 48.39,19.336C47.379,19.336 46.409,18.935 45.694,18.22C44.979,17.505 44.578,16.535 44.578,15.524C44.578,14.512 44.979,13.543 45.694,12.828C46.409,12.113 47.379,11.711 48.39,11.711C49.402,11.711 50.371,12.113 51.086,12.828C51.802,13.543 52.203,14.512 52.203,15.524Z" clip-rule="evenodd" fill-rule="evenodd" fill="#72848E"/>
</svg>
