<svg width="64" height="64" viewBox="0 0 64 64" fill="none" xmlns="http://www.w3.org/2000/svg" xmlns:xlink="http://www.w3.org/1999/xlink">
<path d="M62.834,31.946C62.834,14.615 48.785,0.565 31.454,0.565C14.123,0.565 0.073,14.615 0.073,31.946C0.073,47.609 11.549,60.591 26.55,62.945L26.55,41.017L18.583,41.017L18.583,31.946L26.55,31.946L26.55,25.032C26.55,17.168 31.236,12.823 38.403,12.823C41.837,12.823 45.428,13.436 45.428,13.436L45.428,21.159L41.471,21.159C37.573,21.159 36.357,23.578 36.357,26.06L36.357,31.946L45.06,31.946L43.669,41.017L36.357,41.017L36.357,62.945C51.359,60.591 62.834,47.609 62.834,31.946Z" fill="#72848E"/>
<path d="M43.669,41.017L45.06,31.946L36.357,31.946L36.357,26.059C36.357,23.578 37.573,21.159 41.471,21.159L45.428,21.159L45.428,13.436C45.428,13.436 41.837,12.823 38.404,12.823C31.236,12.823 26.551,17.167 26.551,25.032L26.551,31.946L18.583,31.946L18.583,41.017L26.551,41.017L26.551,62.945C28.149,63.196 29.786,63.326 31.454,63.326C33.122,63.326 34.759,63.196 36.357,62.945L36.357,41.017L43.669,41.017Z" fill="#FFFFFF"/>
</svg>
