<svg width="58" height="60" viewBox="0 0 58 60" fill="none" xmlns="http://www.w3.org/2000/svg" xmlns:xlink="http://www.w3.org/1999/xlink">
<path d="M53.039,0.808L3.6,0.808C1.39,0.808 -0.543,2.75 -0.819,4.97L-0.819,54.923C-0.819,57.143 1.114,59.086 3.6,59.086L53.039,59.086C55.249,59.086 57.182,57.143 57.459,54.923L57.459,4.97C57.459,2.75 55.525,0.808 53.039,0.808ZM16.581,50.483L8.019,50.483L8.019,22.731L16.581,22.731L16.581,50.483ZM12.162,18.846C9.4,18.846 7.19,16.626 7.19,13.851C7.19,11.076 9.4,8.856 12.162,8.856C14.924,8.856 17.134,11.076 17.134,13.851C17.134,16.626 14.924,18.846 12.162,18.846ZM48.896,50.483L40.334,50.483L40.334,36.884C40.334,33.554 40.334,29.392 35.915,29.392C31.496,29.392 30.667,32.999 30.667,36.607L30.667,50.483L22.105,50.483L22.105,22.731L30.391,22.731L30.391,26.616C32.048,23.841 35.087,21.899 38.401,22.176C47.239,22.176 48.62,28.004 48.62,35.497L48.896,50.483L48.896,50.483Z" fill="#72848E"/>
</svg>
