<svg width="46" height="46" viewBox="0 0 46 46" fill="none" xmlns="http://www.w3.org/2000/svg" xmlns:xlink="http://www.w3.org/1999/xlink">
<path d="M26.263,6.662L25.161,5.645L25.161,5.645L26.263,6.662ZM29.19,3.865L28.423,2.576L28.423,2.576L29.19,3.865ZM35.19,3.775L35.919,2.463L35.919,2.463L35.19,3.775ZM40.848,9.554L39.523,10.258L39.523,10.259L40.848,9.554ZM40.759,15.684L39.456,14.941L39.456,14.941L40.759,15.684ZM38.021,18.674L39.062,19.754L39.062,19.754L38.021,18.674ZM19.837,36.188L18.796,35.108L18.796,35.108L19.837,36.188ZM13.683,41.079L13.137,39.682L13.137,39.682L13.683,41.079ZM5.904,41.63L5.943,40.131L5.943,40.131L5.904,41.63ZM5.363,41.616L5.323,43.116L5.323,43.116L5.363,41.616ZM3.193,41.169L4.319,40.177L4.319,40.177L3.193,41.169ZM2.985,38.918L1.49,38.802L1.49,38.802L2.985,38.918ZM3.038,38.248L4.533,38.365L4.533,38.365L3.038,38.248ZM4.122,31.477L5.498,32.075L5.498,32.075L4.122,31.477ZM8.31,26.114L7.207,25.096L7.207,25.096L8.31,26.114ZM27.365,7.68C28.88,6.038 29.426,5.47 29.957,5.154L28.423,2.576C27.423,3.171 26.528,4.164 25.161,5.645L27.365,7.68ZM29.957,5.154C31.346,4.328 33.051,4.303 34.462,5.086L35.919,2.463C33.573,1.161 30.729,1.204 28.423,2.576L29.957,5.154ZM34.462,5.086C35.001,5.385 35.563,5.937 37.125,7.532L39.269,5.434C37.86,3.994 36.936,3.029 35.919,2.463L34.462,5.086ZM37.125,7.532C38.684,9.125 39.227,9.702 39.523,10.258L42.172,8.85C41.622,7.816 40.68,6.875 39.269,5.434L37.125,7.532ZM39.523,10.259C40.303,11.723 40.277,13.501 39.456,14.941L42.063,16.426C43.393,14.092 43.434,11.222 42.172,8.849L39.523,10.259ZM39.456,14.941C39.144,15.488 38.585,16.048 36.981,17.593L39.062,19.754C40.514,18.356 41.483,17.444 42.063,16.426L39.456,14.941ZM36.981,17.593L18.796,35.108L20.878,37.268L39.062,19.754L36.981,17.593ZM18.796,35.108C15.811,37.984 14.603,39.11 13.137,39.682L14.228,42.477C16.383,41.635 18.071,39.972 20.878,37.268L18.796,35.108ZM13.137,39.682C11.675,40.253 10.046,40.238 5.943,40.131L5.865,43.13C9.72,43.231 12.071,43.319 14.229,42.476L13.137,39.682ZM5.943,40.131L5.402,40.117L5.323,43.116L5.865,43.13L5.943,40.131ZM5.402,40.117C5.093,40.109 4.85,40.102 4.641,40.091C4.431,40.08 4.295,40.066 4.203,40.051C4.03,40.022 4.176,40.015 4.319,40.177L2.068,42.16C2.563,42.722 3.188,42.923 3.709,43.01C4.183,43.089 4.762,43.101 5.323,43.116L5.402,40.117ZM4.319,40.177C4.457,40.334 4.43,40.467 4.419,40.273C4.406,40.039 4.43,39.694 4.481,39.035L1.49,38.802C1.445,39.376 1.397,39.958 1.424,40.44C1.453,40.962 1.578,41.604 2.068,42.161L4.319,40.177ZM4.481,39.035L4.533,38.365L1.542,38.132L1.49,38.802L4.481,39.035ZM4.533,38.365C4.812,34.791 4.943,33.352 5.498,32.075L2.746,30.88C1.944,32.725 1.805,34.759 1.542,38.132L4.533,38.365ZM5.498,32.075C6.051,30.8 7.004,29.74 9.412,27.131L7.207,25.096C4.936,27.558 3.549,29.032 2.746,30.88L5.498,32.075ZM9.412,27.131L27.365,7.68L25.161,5.645L7.207,25.096L9.412,27.131Z" fill="#FFFFFF"/>
<path d="M23.126,7.944L36.662,21.481L38.784,19.359L25.247,5.823L23.126,7.944Z" fill="#FFFFFF"/>
<line x1="26.12" y1="40.191" x2="41.59" y2="40.191" stroke="#FFFFFF" stroke-width="1.5" stroke-miterlimit="3.999327" stroke-linecap="round" stroke-linejoin="round"/>
</svg>
