<svg width="58" height="56" viewBox="0 0 58 56" fill="none" xmlns="http://www.w3.org/2000/svg" xmlns:xlink="http://www.w3.org/1999/xlink">
<path d="M56.77,28C56.77,12.536 44.234,0 28.77,0C13.306,0 0.77,12.536 0.77,28C0.77,41.975 11.009,53.559 24.395,55.66L24.395,36.094L17.285,36.094L17.285,28L24.395,28L24.395,21.831C24.395,14.814 28.575,10.938 34.971,10.938C38.034,10.938 41.238,11.484 41.238,11.484L41.238,18.375L37.708,18.375C34.23,18.375 33.145,20.534 33.145,22.748L33.145,28L40.91,28L39.669,36.094L33.145,36.094L33.145,55.66C46.53,53.559 56.77,41.975 56.77,28Z" fill="#72848E"/>
<path d="M39.669,36.094L40.91,28L33.145,28L33.145,22.748C33.145,20.534 34.23,18.375 37.708,18.375L41.238,18.375L41.238,11.484C41.238,11.484 38.034,10.938 34.971,10.938C28.575,10.938 24.395,14.814 24.395,21.831L24.395,28L17.285,28L17.285,36.094L24.395,36.094L24.395,55.66C25.82,55.883 27.281,56 28.77,56C30.258,56 31.719,55.883 33.145,55.66L33.145,36.094L39.669,36.094Z" fill="#FFFFFF"/>
</svg>
