<svg width="54" height="52" viewBox="0 0 54 52" fill="none" xmlns="http://www.w3.org/2000/svg" xmlns:xlink="http://www.w3.org/1999/xlink">
<g filter="url(#filter23_37)">
<path d="M54,26C54,40.359 41.912,52 27,52C12.088,52 0,40.359 0,26C0,11.641 12.088,0 27,0C41.912,0 54,11.641 54,26Z" fill="#000000" fill-opacity="0.3"/>
</g>
<path d="M29.305,13.813L18.88,24.326C18.536,24.641 18.341,25.086 18.341,25.552C18.341,26.019 18.536,26.463 18.88,26.779L29.305,37.291C29.795,37.848 30.582,38.036 31.271,37.761C31.96,37.485 32.4,36.806 32.371,36.065L32.371,36.065L32.371,15.04L32.371,15.04C32.4,14.299 31.96,13.619 31.271,13.344C30.582,13.068 29.795,13.256 29.305,13.813Z" fill="#FFFFFF"/>
<defs>
<filter id="filter23_37" x="-3" y="-3" width="33" height="32" filterUnits="userSpaceOnUse" color-interpolation-filters="sRGB">
<feFlood flood-opacity="0" result="BackgroundImageFix"/>
<feColorMatrix in="SourceAlpha" type="matrix" values="0 0 0 0 0 0 0 0 0 0 0 0 0 0 0 0 0 0 127 0" result="hardAlpha"/>
<feMorphology radius="0" operator="dilate" in="SourceAlpha" result="0dropshadow"/>
<feOffset dx="0" dy="3"/>
<feGaussianBlur stdDeviation="1.5"/>
<feComposite in2="hardAlpha" operator="out"/>
<feColorMatrix type="matrix" values="0 0 0 0 0 0 0 0 0 0 0 0 0 0 0 0 0 0 0.341176 0"/>
<feBlend mode="normal" in2="BackgroundImageFix" result="0dropshadow"/>
<feBlend mode="normal" in="SourceGraphic" in2="0dropshadow" result="shape"/>
</filter>
</defs>
</svg>
