<svg width="164" height="84" viewBox="0 0 164 84" fill="none" xmlns="http://www.w3.org/2000/svg" xmlns:xlink="http://www.w3.org/1999/xlink">
<g opacity="0.78">
<path d="M81.376,82.754C126.144,82.754 162.718,64.016 162.718,41.084C162.718,18.152 126.182,-0.548 81.376,-0.548C36.57,-0.548 0.072,18.15 0.072,41.084C0.072,64.018 36.608,82.754 81.376,82.754ZM81.376,9.292C122.694,9.292 156.328,23.562 156.328,41.092C156.328,58.622 122.654,72.892 81.376,72.892C40.098,72.892 6.376,58.622 6.376,41.092C6.416,23.57 40.09,9.292 81.376,9.292Z" fill="#434343"/>
<path d="M110.15,60.842L118.068,33.088L126.026,60.842L136.964,60.842L125.672,21.092L108.854,21.092L108.854,22.934L110.454,22.934L99.204,60.842L110.15,60.842Z" fill="#434343"/>
<path d="M32.176,60.84L43.116,60.84L43.116,43.514L55.464,59.86L68.166,59.86L53.504,40.378L66.166,21.954L53.464,21.954L43.154,36.928L43.154,21.914L32.216,21.914L32.216,21.954L30.256,21.954L30.256,23.6C30.924,23.58 31.589,23.686 32.216,23.914L32.216,60.842L32.176,60.84Z" fill="#434343"/>
<path d="M77.338,60.84L88.276,60.84L88.276,21.992L77.338,21.992L77.338,22.032L75.378,22.032L75.378,23.678C76.045,23.661 76.71,23.768 77.338,23.992L77.338,60.84Z" fill="#434343"/>
</g>
</svg>
