<svg width="94" height="128" viewBox="0 0 94 128" fill="none" xmlns="http://www.w3.org/2000/svg" xmlns:xlink="http://www.w3.org/1999/xlink">
<path d="M27.632,26.703C27.632,28.396 28.305,30.02 29.501,31.216C30.698,32.413 32.322,33.085 34.014,33.085C35.707,33.085 37.331,32.413 38.528,31.216C39.724,30.02 40.397,28.396 40.397,26.703C40.397,25.011 39.724,23.387 38.528,22.19C37.331,20.994 35.707,20.321 34.014,20.321C32.322,20.321 30.698,20.994 29.501,22.19C28.305,23.387 27.632,25.011 27.632,26.703ZM34.015,24.576C34.875,24.576 35.651,25.095 35.979,25.889C36.309,26.684 36.128,27.599 35.519,28.208C34.91,28.817 33.996,28.998 33.201,28.668C32.406,28.34 31.887,27.564 31.887,26.703C31.887,25.529 32.84,24.576 34.015,24.576Z" fill="#000000"/>
<path d="M23.376,26.703C23.376,25.011 22.704,23.387 21.507,22.19C20.311,20.994 18.687,20.321 16.994,20.321C15.302,20.321 13.678,20.994 12.481,22.19C11.285,23.387 10.612,25.011 10.612,26.703C10.612,28.396 11.285,30.02 12.481,31.216C13.678,32.413 15.302,33.085 16.994,33.085C18.687,33.085 20.311,32.413 21.507,31.216C22.704,30.02 23.376,28.396 23.376,26.703ZM16.994,28.831C16.134,28.831 15.358,28.312 15.029,27.517C14.7,26.722 14.881,25.808 15.49,25.199C16.099,24.59 17.013,24.409 17.808,24.738C18.603,25.067 19.122,25.843 19.122,26.703C19.122,27.268 18.898,27.809 18.499,28.208C18.1,28.607 17.558,28.831 16.994,28.831Z" fill="#000000"/>
<path d="M44.65,26.703C44.65,28.396 45.323,30.02 46.519,31.216C47.716,32.413 49.34,33.085 51.032,33.085C52.725,33.085 54.349,32.413 55.545,31.216C56.742,30.02 57.415,28.396 57.415,26.703C57.415,25.011 56.742,23.387 55.545,22.19C54.349,20.994 52.725,20.321 51.032,20.321C49.34,20.321 47.716,20.994 46.519,22.19C45.323,23.387 44.65,25.011 44.65,26.703ZM51.033,24.576C51.893,24.576 52.669,25.095 52.998,25.889C53.327,26.684 53.146,27.599 52.537,28.208C51.928,28.817 51.014,28.998 50.219,28.668C49.424,28.34 48.905,27.564 48.905,26.703C48.905,25.529 49.858,24.576 51.033,24.576Z" fill="#000000"/>
<path d="M25.505,18.194C26.915,18.194 28.268,17.634 29.266,16.636C30.263,15.639 30.823,14.286 30.823,12.875C30.823,11.465 30.263,10.112 29.266,9.114C28.268,8.117 26.915,7.557 25.505,7.557C24.094,7.557 22.741,8.117 21.744,9.114C20.746,10.112 20.186,11.465 20.186,12.875C20.186,14.286 20.746,15.639 21.744,16.636C22.741,17.634 24.094,18.194 25.505,18.194ZM25.505,11.812C25.935,11.812 26.322,12.071 26.488,12.468C26.652,12.866 26.561,13.324 26.257,13.628C25.953,13.932 25.495,14.023 25.097,13.858C24.7,13.693 24.441,13.306 24.441,12.875C24.441,12.288 24.917,11.812 25.505,11.812L25.505,11.812Z" fill="#000000"/>
<path d="M42.523,18.194C43.933,18.194 45.286,17.634 46.284,16.636C47.281,15.639 47.841,14.286 47.841,12.875C47.841,11.465 47.281,10.112 46.284,9.114C45.286,8.117 43.933,7.557 42.523,7.557C41.112,7.557 39.759,8.117 38.762,9.114C37.764,10.112 37.204,11.465 37.204,12.875C37.204,14.286 37.764,15.639 38.762,16.636C39.759,17.634 41.112,18.194 42.523,18.194ZM42.523,11.812C42.953,11.812 43.34,12.071 43.506,12.468C43.67,12.866 43.579,13.324 43.275,13.628C42.971,13.932 42.513,14.023 42.115,13.858C41.718,13.693 41.459,13.306 41.459,12.875C41.459,12.288 41.935,11.812 42.523,11.812L42.523,11.812Z" fill="#000000"/>
<path d="M42.523,33.086C40.83,33.086 39.206,33.759 38.01,34.956C36.813,36.152 36.141,37.776 36.141,39.469C36.141,41.161 36.813,42.785 38.01,43.982C39.206,45.178 40.831,45.851 42.523,45.851C44.215,45.851 45.839,45.178 47.036,43.982C48.232,42.785 48.905,41.161 48.905,39.469C48.905,37.776 48.232,36.152 47.036,34.956C45.839,33.759 44.215,33.086 42.523,33.086ZM42.523,41.596C41.662,41.596 40.886,41.078 40.558,40.283C40.228,39.488 40.41,38.573 41.018,37.964C41.627,37.355 42.542,37.174 43.337,37.504C44.132,37.832 44.65,38.608 44.65,39.469C44.65,40.033 44.426,40.574 44.027,40.973C43.628,41.372 43.087,41.596 42.523,41.596Z" fill="#000000"/>
<path d="M25.505,33.086C23.812,33.086 22.188,33.759 20.992,34.956C19.795,36.152 19.123,37.776 19.123,39.469C19.123,41.161 19.795,42.785 20.992,43.982C22.188,45.178 23.812,45.851 25.505,45.851C27.197,45.851 28.821,45.178 30.018,43.982C31.214,42.785 31.887,41.161 31.887,39.469C31.887,37.776 31.214,36.152 30.018,34.956C28.821,33.759 27.197,33.086 25.505,33.086ZM25.505,41.596C24.644,41.596 23.868,41.078 23.54,40.283C23.21,39.488 23.391,38.573 24,37.964C24.609,37.355 25.524,37.174 26.319,37.504C27.113,37.832 27.632,38.608 27.632,39.469C27.632,40.033 27.408,40.574 27.009,40.973C26.61,41.372 26.069,41.596 25.505,41.596Z" fill="#000000"/>
<path d="M63.797,67.124C58.168,67.132 52.656,68.735 47.9,71.746C43.145,74.759 39.34,79.057 36.928,84.143L29.759,84.143C28.066,84.143 26.442,83.471 25.246,82.274C24.049,81.077 23.376,79.453 23.376,77.761L23.376,52.631C25.577,53.374 27.85,53.882 30.157,54.146C31.457,54.288 32.764,54.36 34.071,54.359C37.665,54.358 41.237,53.784 44.651,52.657L44.651,64.996C44.651,66.17 45.603,67.123 46.778,67.123C47.953,67.123 48.906,66.17 48.906,64.996L48.906,50.955C57.148,46.938 63.424,39.769 66.316,31.067C69.207,22.366 68.469,12.867 64.269,4.717C63.374,2.995 62.02,1.555 60.358,0.555C58.696,-0.446 56.789,-0.968 54.85,-0.953L13.18,-0.953C11.234,-0.967 9.324,-0.441 7.658,0.562C5.993,1.567 4.638,3.013 3.742,4.739C-0.454,12.882 -1.187,22.374 1.708,31.066C4.602,39.758 10.88,46.913 19.121,50.913L19.121,77.763C19.124,80.214 19.972,82.589 21.522,84.488C23.072,86.387 25.23,87.693 27.631,88.187L27.631,124.564C27.631,125.128 27.855,125.67 28.254,126.069C28.653,126.468 29.194,126.692 29.758,126.692L38.268,126.692C38.832,126.692 39.373,126.468 39.772,126.069C40.171,125.67 40.395,125.128 40.395,124.564L40.395,120.309C40.395,119.135 39.443,118.182 38.268,118.182C37.093,118.182 36.14,119.135 36.14,120.309L36.14,122.437L31.886,122.437L31.886,88.398L35.269,88.398C32.869,96.447 33.979,105.137 38.327,112.323C42.674,119.511 49.854,124.527 58.097,126.139C66.341,127.75 74.881,125.805 81.615,120.784C88.348,115.763 92.649,108.132 93.456,99.771C94.263,91.41 91.503,83.098 85.855,76.881C80.207,70.664 72.196,67.12 63.796,67.124L63.797,67.124ZM4.48,24.245C3.686,18.22 4.748,12.097 7.525,6.691C8.063,5.66 8.876,4.798 9.875,4.2C10.872,3.602 12.016,3.291 13.18,3.303L54.85,3.303C56.009,3.29 57.149,3.598 58.145,4.192C59.14,4.786 59.952,5.644 60.492,6.67C63.512,12.535 64.499,19.235 63.302,25.721C62.104,32.208 58.788,38.113 53.873,42.512C47.554,48.216 39.08,50.915 30.625,49.918C24.037,49.144 17.894,46.202 13.161,41.554C8.428,36.906 5.375,30.817 4.481,24.245L4.48,24.245ZM63.797,122.437C57.026,122.437 50.533,119.747 45.745,114.959C40.958,110.172 38.268,103.678 38.268,96.908C38.268,90.137 40.958,83.644 45.745,78.856C50.533,74.069 57.026,71.379 63.797,71.379C70.568,71.379 77.061,74.068 81.849,78.856C86.636,83.644 89.326,90.137 89.326,96.908C89.318,103.676 86.627,110.165 81.841,114.952C77.054,119.738 70.566,122.429 63.797,122.437Z" fill="#000000"/>
<path d="M72.308,92.653L68.336,92.653L70.163,78.025C70.287,77.028 69.696,76.081 68.747,75.752C67.798,75.425 66.748,75.805 66.23,76.665L53.465,97.939C53.071,98.596 53.06,99.415 53.437,100.082C53.815,100.749 54.522,101.162 55.289,101.162L59.26,101.162L57.433,115.79C57.31,116.787 57.9,117.734 58.849,118.063C59.799,118.391 60.848,118.011 61.367,117.15L74.131,95.876C74.525,95.219 74.537,94.4 74.159,93.733C73.782,93.066 73.074,92.653 72.308,92.653ZM62.904,106.317L63.781,99.297C63.856,98.691 63.668,98.083 63.264,97.626C62.861,97.17 62.28,96.907 61.671,96.907L59.046,96.907L64.692,87.498L63.815,94.518C63.74,95.124 63.928,95.732 64.332,96.188C64.736,96.645 65.316,96.907 65.926,96.907L68.551,96.907L62.904,106.317Z" fill="#000000"/>
</svg>
