<svg width="98" height="94" viewBox="0 0 98 94" fill="none" xmlns="http://www.w3.org/2000/svg" xmlns:xlink="http://www.w3.org/1999/xlink">
<g opacity="0.78">
<path d="M57.767,12.35C54.709,11.572 51.559,11.185 48.397,11.199C45.296,11.207 42.208,11.583 39.203,12.317L48.495,36.972L57.767,12.35Z" fill="#434343"/>
<path d="M85.029,46.49C85.058,42.222 84.27,37.986 82.704,33.992L65.269,77.75C71.22,74.774 76.208,70.287 79.692,64.775C83.176,59.264 85.022,52.939 85.029,46.49Z" fill="#434343"/>
<path d="M66.853,15.973L56.104,44.423L40.966,44.423L30.187,15.838C26.212,18.037 22.7,20.932 19.832,24.373L35.154,62.575L40.754,48.622L55.477,48.622L61.078,62.575L76.541,23.898C73.804,20.745 70.528,18.065 66.853,15.973Z" fill="#434343"/>
<path d="M48.398,-0.587C38.718,-0.591 29.255,2.166 21.204,7.334C13.154,12.502 6.878,19.849 3.17,28.447C-0.538,37.045 -1.511,46.507 0.374,55.636C2.259,64.765 6.917,73.152 13.759,79.736C20.601,86.32 29.32,90.805 38.814,92.624C48.307,94.444 58.148,93.515 67.092,89.957C76.037,86.398 83.682,80.369 89.063,72.632C94.444,64.895 97.318,55.797 97.322,46.49C97.296,34.018 92.134,22.063 82.966,13.241C73.797,4.419 61.369,-0.553 48.398,-0.587M48.398,87.504C39.95,87.5 31.692,85.088 24.67,80.571C17.648,76.055 12.177,69.637 8.949,62.13C5.721,54.623 4.881,46.364 6.535,38.398C8.19,30.432 12.264,23.117 18.242,17.378C24.221,11.638 31.836,7.733 40.123,6.156C48.411,4.578 56.998,5.4 64.8,8.516C72.602,11.633 79.267,16.904 83.953,23.663C88.639,30.423 91.134,38.367 91.123,46.49C91.086,57.368 86.57,67.79 78.564,75.475C70.557,83.161 59.711,87.486 48.398,87.504Z" fill="#434343"/>
<path d="M48.081,56.141L38.607,79.747L38.572,80.491C44.811,82.15 51.392,82.21 57.662,80.666L57.557,79.79L48.081,56.141Z" fill="#434343"/>
<path d="M11.695,46.488C11.697,52.811 13.47,59.017 16.83,64.453C20.189,69.888 25.01,74.353 30.785,77.377L13.772,34.77C12.393,38.534 11.69,42.497 11.693,46.488Z" fill="#434343"/>
</g>
</svg>
