<svg width="152" height="54" viewBox="0 0 152 54" fill="none" xmlns="http://www.w3.org/2000/svg" xmlns:xlink="http://www.w3.org/1999/xlink">
<g opacity="0.78">
<path d="M124.212,-0.478C118.212,-0.554 112.363,1.409 107.624,5.09C102.976,1.522 97.278,-0.409 91.418,-0.402C85.557,-0.395 79.864,1.549 75.224,5.128C70.581,1.572 64.897,-0.358 59.048,-0.365C53.2,-0.372 47.512,1.545 42.86,5.09C38.909,2.076 34.195,0.226 29.248,-0.25C24.302,-0.726 19.321,0.191 14.868,2.397C10.415,4.603 6.668,8.01 4.049,12.233C1.431,16.457 0.046,21.328 0.05,26.298C0.055,31.267 1.449,36.136 4.075,40.355C6.701,44.573 10.454,47.974 14.911,50.172C19.368,52.37 24.35,53.277 29.296,52.793C34.241,52.308 38.953,50.45 42.898,47.428C47.549,50.979 53.242,52.896 59.093,52.882C64.945,52.868 70.628,50.924 75.262,47.35C79.91,50.919 85.608,52.85 91.468,52.843C97.329,52.836 103.022,50.891 107.662,47.312C112.2,50.807 117.749,52.733 123.476,52.802C126.988,52.871 130.478,52.246 133.747,50.961C137.016,49.676 139.999,47.758 142.524,45.316C145.048,42.875 147.066,39.958 148.459,36.734C149.852,33.51 150.595,30.042 150.643,26.53C150.691,23.018 150.045,19.532 148.741,16.27C147.437,13.009 145.501,10.038 143.044,7.528C140.587,5.017 137.659,3.018 134.427,1.643C131.194,0.269 127.722,-0.452 124.21,-0.48M123.552,49.786C117.638,49.711 111.968,47.421 107.66,43.368C103.292,47.509 97.504,49.82 91.486,49.827C85.467,49.834 79.674,47.537 75.296,43.406C70.79,47.592 64.858,49.901 58.708,49.864C52.836,49.768 47.205,47.51 42.894,43.522C42.155,44.209 41.367,44.842 40.536,45.416C36.434,48.414 31.464,49.99 26.384,49.902C21.794,49.836 17.323,48.433 13.519,45.865C9.714,43.296 6.741,39.674 4.964,35.442C4.137,35.384 3.319,35.229 2.528,34.978C1.162,31.171 0.713,27.095 1.219,23.081C1.725,19.068 3.171,15.231 5.439,11.881C7.707,8.532 10.733,5.765 14.272,3.806C17.81,1.846 21.762,0.749 25.804,0.604C26.242,1.264 26.618,1.963 26.926,2.692L27.042,2.692C33.108,2.794 38.905,5.215 43.242,9.458L43.042,6.132C47.342,2.712 52.631,0.773 58.122,0.602C58.582,1.262 58.983,1.961 59.322,2.69C65.367,2.859 71.136,5.255 75.522,9.418L75.322,6.248C79.609,2.739 84.94,0.753 90.478,0.602C90.923,1.244 91.299,1.931 91.6,2.652L91.716,2.652C97.791,2.875 103.571,5.324 107.956,9.534L107.724,6.17C112.041,2.709 117.351,0.718 122.88,0.486C123.238,1.213 123.652,1.911 124.118,2.574C136.8,3.154 146.892,10.774 147.434,26.508C147.86,39.538 136.53,49.978 123.538,49.784Z" fill="#434343"/>
<path d="M34.856,34.986C33.784,32.093 33.272,29.023 33.348,25.938C33.414,20.287 35.359,14.818 38.878,10.394C40.192,10.356 41.508,10.316 42.278,10.316C39.81,7.918 36.82,6.125 33.542,5.077C30.265,4.029 26.789,3.755 23.387,4.276C19.986,4.798 16.752,6.1 13.938,8.082C11.125,10.064 8.81,12.67 7.173,15.698C5.537,18.725 4.625,22.09 4.508,25.529C4.391,28.969 5.073,32.388 6.5,35.519C7.927,38.65 10.061,41.408 12.733,43.576C15.405,45.744 18.544,47.263 21.902,48.014C22.25,47.588 22.636,47.124 23.024,46.614C24.187,46.811 25.363,46.927 26.542,46.962C31.117,47.026 35.582,45.556 39.224,42.786L42.318,42.864C40.202,40.712 38.51,38.181 37.33,35.402C36.489,35.382 35.656,35.238 34.856,34.976M26.456,45.918C21.252,45.846 16.289,43.71 12.66,39.979C9.031,36.248 7.032,31.229 7.104,26.024C7.176,20.82 9.312,15.857 13.043,12.228C16.774,8.599 21.794,6.601 26.998,6.672C30.87,6.712 34.641,7.911 37.824,10.114C34.331,14.65 32.416,20.204 32.372,25.928C32.292,31.886 34.212,37.699 37.824,42.438C34.464,44.701 30.507,45.912 26.456,45.918Z" fill="#434343"/>
<path d="M46.416,19.948C46.675,19.294 47.087,18.71 47.616,18.246C46.613,15.497 45,13.012 42.898,10.976C39.255,14.767 37.077,19.728 36.751,24.976C36.425,30.223 37.974,35.416 41.12,39.628C41.668,40.372 42.276,41.07 42.938,41.716L43.016,38.894C45.845,35.419 47.398,31.079 47.416,26.598C47.461,24.341 47.123,22.092 46.416,19.948M42.898,37.464C40.577,34.118 39.348,30.136 39.38,26.064C39.408,22.172 40.622,18.382 42.86,15.198C45.121,18.47 46.335,22.351 46.342,26.328C46.349,30.305 45.148,34.19 42.898,37.47Z" fill="#434343"/>
<path d="M78.7,19.9C78.946,19.238 79.359,18.652 79.9,18.198C78.878,15.498 77.297,13.044 75.26,10.998C71.34,15.147 69.166,20.644 69.187,26.352C69.209,32.06 71.425,37.541 75.376,41.66L75.454,39.03C78.052,35.382 79.53,31.055 79.708,26.58C79.734,24.311 79.397,22.052 78.708,19.89M75.266,37.29C72.981,33.959 71.792,29.999 71.866,25.96C71.928,22.122 73.109,18.385 75.266,15.21C77.507,18.547 78.692,22.481 78.666,26.5C78.611,30.351 77.429,34.101 75.266,37.288Z" fill="#434343"/>
<path d="M99.658,34.902C98.605,32.004 98.094,28.937 98.15,25.854C98.234,20.206 100.177,14.742 103.68,10.31L107.006,10.31C102.901,6.338 97.442,4.071 91.73,3.968C85.924,3.881 80.316,6.075 76.11,10.078C80.346,14.521 82.665,20.451 82.568,26.588C82.477,32.492 80.204,38.153 76.188,42.48C79.075,45.202 82.641,47.098 86.512,47.968C86.86,47.504 87.246,47.04 87.634,46.568C88.797,46.764 89.973,46.881 91.152,46.916C95.792,46.9 100.31,45.426 104.066,42.702L106.888,42.624C104.843,40.505 103.205,38.028 102.054,35.316C101.241,35.263 100.436,35.121 99.654,34.89M91.186,45.832C87.275,45.78 83.467,44.569 80.244,42.352C83.762,37.72 85.663,32.062 85.656,26.246C85.65,20.43 83.735,14.776 80.206,10.152C83.488,7.843 87.401,6.6 91.413,6.594C95.426,6.587 99.343,7.816 102.632,10.114C99.114,14.746 97.213,20.404 97.22,26.221C97.227,32.037 99.141,37.691 102.67,42.314C99.273,44.595 95.277,45.819 91.186,45.832Z" fill="#434343"/>
<path d="M144.742,18.12C142.964,11.818 134.032,3.892 124.142,3.892C118.341,3.83 112.741,6.021 108.522,10.002C112.703,14.363 115.044,20.166 115.059,26.207C115.073,32.248 112.76,38.062 108.6,42.442C111.504,45.133 115.065,47.013 118.924,47.894C119.272,47.468 119.658,47.005 120.046,46.495C121.204,46.729 122.383,46.845 123.564,46.842C126.855,46.913 130.116,46.191 133.07,44.739C136.025,43.287 138.587,41.146 140.543,38.498C142.498,35.849 143.789,32.77 144.306,29.518C144.823,26.267 144.552,22.939 143.516,19.814C143.781,19.153 144.207,18.568 144.754,18.112M123.592,45.804C119.689,45.777 115.886,44.563 112.688,42.324C116.152,37.806 118.053,32.282 118.102,26.588C118.182,20.642 116.262,14.841 112.65,10.116C115.185,8.343 118.103,7.195 121.167,6.765C124.23,6.335 127.352,6.636 130.277,7.643C133.202,8.649 135.847,10.333 137.997,12.558C140.147,14.782 141.74,17.483 142.647,20.441C143.554,23.398 143.749,26.528 143.215,29.575C142.681,32.622 141.434,35.5 139.576,37.973C137.718,40.446 135.301,42.445 132.523,43.806C129.746,45.167 126.685,45.852 123.592,45.804Z" fill="#434343"/>
<path d="M111.104,19.86C111.366,19.207 111.777,18.624 112.304,18.158C111.332,15.408 109.717,12.929 107.594,10.928C103.783,14.99 101.619,20.324 101.524,25.892C101.481,28.813 102.015,31.714 103.097,34.428C104.178,37.142 105.786,39.616 107.826,41.706L107.864,39C110.66,35.442 112.16,31.037 112.118,26.512C112.18,24.254 111.841,22.003 111.118,19.862M107.676,37.3C105.44,34.048 104.24,30.195 104.234,26.248C104.227,22.301 105.414,18.444 107.638,15.184C109.897,18.428 111.11,22.284 111.117,26.236C111.124,30.189 109.923,34.049 107.676,37.3Z" fill="#434343"/>
<path d="M67.258,34.94C65.783,30.836 65.378,26.423 66.082,22.119C66.786,17.815 68.575,13.761 71.28,10.34L74.48,10.262C70.384,6.277 64.904,4.031 59.189,3.994C53.474,3.956 47.966,6.131 43.818,10.062C48.097,14.498 50.446,20.448 50.352,26.61C50.248,32.564 47.917,38.262 43.818,42.58C46.715,45.278 50.281,47.152 54.146,48.008C54.494,47.544 54.842,47.08 55.268,46.578C56.426,46.813 57.605,46.929 58.786,46.926C63.418,47.043 67.946,45.538 71.586,42.672L74.564,42.672C72.502,40.566 70.862,38.086 69.73,35.364C68.89,35.34 68.057,35.197 67.256,34.938M58.75,45.88C54.876,45.859 51.099,44.659 47.924,42.438C51.407,37.909 53.332,32.375 53.414,26.662C53.481,20.688 51.548,14.864 47.924,10.114C51.201,7.841 55.096,6.626 59.085,6.633C63.074,6.64 66.965,7.868 70.234,10.152C66.721,14.779 64.82,20.428 64.82,26.237C64.82,32.046 66.721,37.696 70.234,42.322C66.856,44.646 62.851,45.887 58.75,45.88Z" fill="#434343"/>
</g>
</svg>
