<svg width="164" height="140" viewBox="0 0 164 140" fill="none" xmlns="http://www.w3.org/2000/svg" xmlns:xlink="http://www.w3.org/1999/xlink">
<path d="M23.788,94.279L25.257,92.923L23.971,91.53L22.512,92.739L23.788,94.279ZM1.532,112.718L0.256,111.178L-0.468,111.778L-0.468,112.718L1.532,112.718ZM1.532,134.829L-0.468,134.829L-0.468,139.129L2.821,136.358L1.532,134.829ZM35.103,106.539L36.392,108.069L37.992,106.72L36.573,105.183L35.103,106.539ZM22.512,92.739L0.256,111.178L2.808,114.259L25.064,95.819L22.512,92.739ZM-0.468,112.718L-0.468,134.829L3.532,134.829L3.532,112.718L-0.468,112.718ZM2.821,136.358L36.392,108.069L33.814,105.01L0.243,133.299L2.821,136.358ZM36.573,105.183L25.257,92.923L22.318,95.636L33.633,107.896L36.573,105.183Z" fill="#000000"/>
<path d="M142.509,38.839L142.509,36.839L140.509,36.839L140.509,38.839L142.509,38.839ZM161.467,38.839L163.467,38.839L163.467,36.839L161.467,36.839L161.467,38.839ZM161.467,59.793L161.467,61.793L163.467,61.793L163.467,59.793L161.467,59.793ZM142.509,59.793L140.509,59.793L140.509,61.793L142.509,61.793L142.509,59.793ZM142.509,40.839L161.467,40.839L161.467,36.839L142.509,36.839L142.509,40.839ZM159.467,38.839L159.467,59.793L163.467,59.793L163.467,38.839L159.467,38.839ZM161.467,57.793L142.509,57.793L142.509,61.793L161.467,61.793L161.467,57.793ZM144.509,59.793L144.509,38.839L140.509,38.839L140.509,59.793L144.509,59.793Z" fill="#000000"/>
<path d="M142.509,24.431L142.509,22.431L140.509,22.431L140.509,24.431L142.509,24.431ZM154.713,24.431L156.713,24.431L156.713,22.431L154.713,22.431L154.713,24.431ZM154.713,35.351L154.713,37.351L156.713,37.351L156.713,35.351L154.713,35.351ZM142.509,35.351L140.509,35.351L140.509,37.351L142.509,37.351L142.509,35.351ZM142.509,26.431L154.713,26.431L154.713,22.431L142.509,22.431L142.509,26.431ZM152.713,24.431L152.713,35.351L156.713,35.351L156.713,24.431L152.713,24.431ZM154.713,33.351L142.509,33.351L142.509,37.351L154.713,37.351L154.713,33.351ZM144.509,35.351L144.509,24.431L140.509,24.431L140.509,35.351L144.509,35.351Z" fill="#000000"/>
<path d="M138.836,20.828L140.836,20.815L140.823,18.862L138.871,18.828L138.836,20.828ZM119.033,21.582L119.22,23.574L119.22,23.574L119.033,21.582ZM84.376,33.495L82.855,34.793L83.959,36.087L85.413,35.205L84.376,33.495ZM62.796,25.588L63.15,23.619L63.148,23.619L62.796,25.588ZM58.963,25.839L59.558,27.748L59.566,27.746L58.963,25.839ZM43.486,30.668L42.402,32.349L43.189,32.856L44.082,32.577L43.486,30.668ZM1.627,3.688L2.711,2.007L-0.373,0.02L-0.373,3.688L1.627,3.688ZM1.627,10.653L-0.373,10.653L-0.373,11.743L0.543,12.334L1.627,10.653ZM42.614,37.075L41.531,38.756L42.317,39.263L43.21,38.984L42.614,37.075ZM60.712,31.428L61.308,33.338L61.32,33.333L60.712,31.428ZM61.759,31.354L62.113,29.385L62.097,29.382L61.759,31.354ZM76.42,35.191L75.51,36.972L75.601,37.018L75.696,37.055L76.42,35.191ZM82.807,43.64L84.807,43.648L84.807,43.64L82.807,43.64ZM82.775,52.953L80.775,52.946L80.775,52.947L82.775,52.953ZM81.32,56.439L79.91,55.02L79.908,55.022L81.32,56.439ZM77.832,57.875L77.826,59.875L77.832,59.875L77.832,57.875ZM74.346,56.422L72.928,57.831L72.928,57.832L74.346,56.422ZM72.911,52.929L70.911,52.923L70.911,52.923L72.911,52.929ZM72.941,41.227L74.941,41.232L74.954,36.174L71.486,39.855L72.941,41.227ZM70.652,43.656L69.196,42.285L69.183,42.299L70.652,43.656ZM47.864,57.28L47.977,55.284L47.971,55.283L47.864,57.28ZM34.891,52.449L36.497,51.257L35.235,49.556L33.609,50.914L34.891,52.449ZM30.377,56.219L29.095,54.684L27.518,56.002L28.878,57.543L30.377,56.219ZM47.984,63.209L47.878,65.206L47.881,65.206L47.984,63.209ZM49.693,63.208L50.95,64.764L55.65,60.969L49.614,61.209L49.693,63.208ZM33.338,76.413L32.217,78.07L33.443,78.899L34.594,77.969L33.338,76.413ZM28.486,70.12L26.58,70.725L26.58,70.725L28.486,70.12ZM28.449,62.56L26.484,62.189L26.482,62.196L28.449,62.56ZM28.814,60.623L30.78,60.994L31.028,59.675L29.902,58.945L28.814,60.623ZM1.626,42.995L2.715,41.317L-0.374,39.315L-0.374,42.995L1.626,42.995ZM1.626,49.968L-0.374,49.968L-0.374,51.053L0.537,51.645L1.626,49.968ZM22.39,63.457L24.35,63.855L24.621,62.521L23.48,61.78L22.39,63.457ZM28.666,80.153L29.943,81.692L31.981,80.001L29.797,78.504L28.666,80.153ZM21.638,85.984L20.361,84.445L18.72,85.807L20.184,87.357L21.638,85.984ZM42.836,108.435L41.382,109.808L42.648,111.149L44.087,109.995L42.836,108.435ZM58.407,95.948L59.491,94.267L58.28,93.486L57.156,94.387L58.407,95.948ZM59.591,96.711L58.507,98.392L58.508,98.392L59.591,96.711ZM65.774,97.717L66.193,99.673L66.194,99.672L65.774,97.717ZM70.689,94.175L72.369,95.261L72.37,95.259L70.689,94.175ZM71.216,87.216L72.302,85.537L67.644,82.525L69.308,87.816L71.216,87.216ZM71.876,87.643L70.79,89.322L70.792,89.324L71.876,87.643ZM77.856,88.736L78.274,90.691L78.278,90.691L77.856,88.736ZM82.857,85.275L81.178,84.189L81.176,84.192L82.857,85.275ZM83.947,79.293L81.99,79.708L81.992,79.714L83.947,79.293ZM83.643,78.264L84.47,76.443L80.161,74.489L81.761,78.941L83.643,78.264ZM93.042,75.495L94.723,76.58L94.723,76.579L93.042,75.495ZM94.071,69.926L93.038,68.213L91.826,68.943L92.112,70.329L94.071,69.926ZM111.674,64.304L111.338,62.332L111.337,62.332L111.674,64.304ZM139.115,62.89L139.044,64.888L141.129,64.963L141.115,62.876L139.115,62.89ZM67.29,91.955L68.971,93.038L69.075,92.876L69.146,92.698L67.29,91.955ZM61.292,93.242L62.377,91.562L62.376,91.562L61.292,93.242ZM55.715,89.644L56.8,87.963L56.798,87.962L55.715,89.644ZM53.824,86.913L51.869,87.335L51.869,87.336L53.824,86.913ZM54.419,83.652L56.099,84.738L56.099,84.737L54.419,83.652ZM60.415,82.359L61.5,80.678L61.499,80.678L60.415,82.359ZM65.992,85.957L67.077,84.277L67.076,84.277L65.992,85.957ZM67.29,91.955L65.608,90.871L65.504,91.033L65.433,91.212L67.29,91.955ZM79.833,83.315L81.69,82.572L80.25,78.973L78.151,82.232L79.833,83.315ZM77.103,85.203L76.685,83.247L76.676,83.249L77.103,85.203ZM73.839,84.608L74.924,82.927L74.923,82.927L73.839,84.608ZM62.786,77.476L63.871,75.795L63.87,75.795L62.786,77.476ZM61.489,71.479L63.169,72.564L63.169,72.564L61.489,71.479ZM67.485,70.189L66.4,71.869L66.401,71.869L67.485,70.189ZM78.538,77.321L77.453,79.001L77.455,79.002L78.538,77.321ZM80.426,80.051L78.47,80.469L78.471,80.475L80.426,80.051ZM79.833,83.315L77.976,84.058L79.416,87.658L81.515,84.398L79.833,83.315ZM89.105,72.946L90.786,74.031L91.105,73.536L91.105,72.946L89.105,72.946ZM83.399,74.177L82.314,75.858L82.315,75.858L83.399,74.177ZM75.166,68.865L76.25,67.185L76.248,67.183L75.166,68.865ZM73.933,63.158L72.253,62.074L72.252,62.075L73.933,63.158ZM79.64,61.931L80.724,60.25L80.724,60.25L79.64,61.931ZM87.872,67.243L88.958,65.563L88.957,65.562L87.872,67.243ZM89.105,72.946L87.424,71.863L87.105,72.358L87.105,72.946L89.105,72.946ZM138.871,18.828C132.7,18.722 125.883,18.93 118.846,19.591L119.22,23.574C126.099,22.927 132.768,22.724 138.802,22.828L138.871,18.828ZM118.846,19.591C103.061,21.072 89.981,27.758 83.339,31.785L85.413,35.205C91.804,31.33 104.284,24.975 119.22,23.574L118.846,19.591ZM85.897,32.196C83.112,28.934 79.09,26.481 63.15,23.619L62.443,27.556C78.33,30.409 81.061,32.692 82.855,34.793L85.897,32.196ZM63.148,23.619C61.547,23.333 59.894,23.447 58.359,23.932L59.566,27.746C60.49,27.453 61.488,27.386 62.444,27.557L63.148,23.619ZM58.367,23.93L42.89,28.759L44.082,32.577L59.558,27.748L58.367,23.93ZM44.569,28.987L2.711,2.007L0.544,5.37L42.402,32.349L44.569,28.987ZM-0.373,3.688L-0.373,10.653L3.627,10.653L3.627,3.688L-0.373,3.688ZM0.543,12.334L41.531,38.756L43.698,35.394L2.711,8.972L0.543,12.334ZM43.21,38.984L61.308,33.337L60.116,29.519L42.019,35.166L43.21,38.984ZM61.32,33.333C61.345,33.326 61.362,33.323 61.375,33.322C61.388,33.321 61.403,33.322 61.422,33.325L62.097,29.382C61.44,29.27 60.763,29.312 60.104,29.523L61.32,33.333ZM61.406,33.322C69.888,34.846 73.728,36.062 75.51,36.972L77.329,33.409C74.967,32.204 70.601,30.91 62.113,29.385L61.406,33.322ZM75.696,37.055C76.971,37.55 78.285,38.515 79.27,39.749C80.256,40.985 80.807,42.355 80.807,43.64L84.807,43.64C84.807,41.227 83.792,39.004 82.397,37.255C81.002,35.505 79.122,34.094 77.143,33.326L75.696,37.055ZM80.807,43.633L80.775,52.946L84.775,52.96L84.807,43.648L80.807,43.633ZM80.775,52.947C80.772,53.736 80.468,54.466 79.91,55.02L82.73,57.857C84.043,56.552 84.768,54.804 84.775,52.96L80.775,52.947ZM79.908,55.022C79.352,55.576 78.625,55.875 77.845,55.875L77.845,59.875C79.683,59.875 81.426,59.157 82.731,57.855L79.908,55.022ZM77.845,55.875L77.832,55.875L77.832,59.875L77.845,59.875L77.845,55.875ZM77.839,55.875C77.047,55.872 76.317,55.567 75.765,55.012L72.928,57.832C74.233,59.144 75.98,59.869 77.826,59.875L77.839,55.875ZM75.765,55.012C75.209,54.453 74.909,53.722 74.911,52.934L70.911,52.923C70.906,54.773 71.626,56.521 72.928,57.831L75.765,55.012ZM74.911,52.934L74.941,41.232L70.941,41.221L70.911,52.923L74.911,52.934ZM71.486,39.855L69.196,42.285L72.107,45.028L74.397,42.598L71.486,39.855ZM69.183,42.299C65.057,46.765 61.068,50.12 57.416,52.305C53.743,54.501 50.556,55.429 47.977,55.284L47.752,59.277C51.425,59.484 55.418,58.16 59.469,55.737C63.54,53.302 67.819,49.669 72.121,45.014L69.183,42.299ZM47.971,55.283C43.402,55.04 40.51,53.976 38.793,53.028C37.931,52.552 37.349,52.098 36.99,51.772C36.81,51.608 36.685,51.476 36.606,51.388C36.567,51.344 36.54,51.311 36.522,51.29C36.506,51.27 36.498,51.259 36.497,51.257L33.285,53.641C33.833,54.38 37.447,58.728 47.758,59.278L47.971,55.283ZM33.609,50.914L29.095,54.684L31.66,57.754L36.173,53.984L33.609,50.914ZM28.878,57.543C30.844,59.77 36.781,64.615 47.878,65.206L48.091,61.212C38.148,60.682 33.189,56.382 31.877,54.896L28.878,57.543ZM47.881,65.206C48.534,65.24 49.172,65.23 49.773,65.206L49.614,61.209C49.077,61.231 48.572,61.237 48.087,61.212L47.881,65.206ZM48.437,61.652L32.082,74.857L34.594,77.969L50.95,64.764L48.437,61.652ZM33.338,76.413C34.459,74.757 34.459,74.757 34.46,74.758C34.46,74.758 34.46,74.758 34.46,74.758C34.461,74.758 34.461,74.759 34.462,74.759C34.463,74.76 34.463,74.76 34.464,74.76C34.464,74.761 34.464,74.761 34.463,74.76C34.461,74.759 34.456,74.755 34.448,74.749C34.432,74.738 34.403,74.717 34.363,74.688C34.284,74.63 34.162,74.538 34.008,74.413C33.699,74.164 33.269,73.791 32.805,73.313C31.859,72.337 30.872,71.024 30.392,69.514L26.58,70.725C27.32,73.051 28.758,74.885 29.933,76.097C30.53,76.713 31.085,77.194 31.495,77.525C31.7,77.691 31.871,77.821 31.995,77.912C32.058,77.958 32.108,77.994 32.145,78.02C32.164,78.033 32.18,78.044 32.192,78.052C32.198,78.056 32.203,78.06 32.207,78.063C32.209,78.064 32.211,78.066 32.213,78.067C32.213,78.067 32.214,78.068 32.215,78.068C32.215,78.069 32.216,78.069 32.216,78.069C32.217,78.069 32.217,78.07 33.338,76.413ZM30.393,69.515C30.178,68.84 30.065,67.752 30.081,66.457C30.097,65.199 30.232,63.912 30.415,62.925L26.482,62.196C26.257,63.412 26.1,64.926 26.082,66.407C26.064,67.852 26.173,69.443 26.58,70.725L30.393,69.515ZM30.414,62.931L30.78,60.994L26.849,60.253L26.484,62.189L30.414,62.931ZM29.902,58.945L2.715,41.317L0.538,44.673L27.726,62.302L29.902,58.945ZM-0.374,42.995L-0.374,49.968L3.626,49.968L3.626,42.995L-0.374,42.995ZM0.537,51.645L21.301,65.134L23.48,61.78L2.716,48.291L0.537,51.645ZM20.43,63.059C20.12,64.583 19.78,67.756 20.549,71.29C21.326,74.864 23.259,78.87 27.535,81.802L29.797,78.504C26.545,76.273 25.07,73.258 24.457,70.44C23.835,67.58 24.12,64.986 24.35,63.855L20.43,63.059ZM27.389,78.614L20.361,84.445L22.915,87.524L29.943,81.692L27.389,78.614ZM20.184,87.357L41.382,109.808L44.29,107.062L23.092,84.611L20.184,87.357ZM44.087,109.995L59.658,97.508L57.156,94.387L41.585,106.874L44.087,109.995ZM57.323,97.629L58.507,98.392L60.675,95.03L59.491,94.267L57.323,97.629ZM58.508,98.392C60.225,99.499 62.321,99.897 64.088,99.897L64.088,95.897C62.832,95.897 61.559,95.6 60.674,95.03L58.508,98.392ZM64.088,99.897C64.791,99.897 65.497,99.822 66.193,99.673L65.355,95.761C64.931,95.852 64.506,95.897 64.088,95.897L64.088,99.897ZM66.194,99.672C68.869,99.098 70.978,97.414 72.369,95.261L69.009,93.09C68.097,94.501 66.83,95.444 65.354,95.761L66.194,99.672ZM72.37,95.259C74.156,92.49 73.899,89.08 73.124,86.616L69.308,87.816C69.905,89.712 69.885,91.731 69.008,93.091L72.37,95.259ZM70.13,88.896L70.79,89.322L72.962,85.963L72.302,85.537L70.13,88.896ZM70.792,89.324C72.413,90.369 74.271,90.915 76.169,90.915L76.169,86.915C75.046,86.915 73.94,86.594 72.959,85.962L70.792,89.324ZM76.169,90.915C76.872,90.915 77.578,90.84 78.274,90.691L77.438,86.78C77.013,86.871 76.587,86.915 76.169,86.915L76.169,90.915ZM78.278,90.691C80.872,90.131 83.101,88.589 84.539,86.359L81.176,84.192C80.315,85.529 78.992,86.444 77.434,86.781L78.278,90.691ZM84.537,86.361C85.978,84.133 86.461,81.466 85.902,78.871L81.992,79.714C82.328,81.275 82.04,82.857 81.178,84.189L84.537,86.361ZM85.903,78.877C85.802,78.403 85.661,77.966 85.526,77.588L81.761,78.941C81.865,79.23 81.942,79.479 81.99,79.708L85.903,78.877ZM82.817,80.086C84.07,80.654 85.402,80.929 86.723,80.929L86.723,76.929C85.959,76.929 85.192,76.77 84.47,76.443L82.817,80.086ZM86.723,80.929C89.838,80.929 92.904,79.399 94.723,76.58L91.362,74.411C90.313,76.037 88.542,76.929 86.723,76.929L86.723,80.929ZM94.723,76.579C96.129,74.398 96.511,71.86 96.029,69.522L92.112,70.329C92.395,71.701 92.168,73.161 91.361,74.412L94.723,76.579ZM95.103,71.638C97.375,70.268 102.406,67.914 112.01,66.275L111.337,62.332C101.339,64.039 95.816,66.538 93.038,68.213L95.103,71.638ZM112.01,66.275C117.663,65.311 124.405,64.959 129.784,64.854C132.463,64.801 134.783,64.81 136.432,64.832C137.257,64.843 137.913,64.857 138.361,64.869C138.585,64.874 138.758,64.879 138.873,64.883C138.931,64.885 138.974,64.886 139.003,64.887C139.017,64.887 139.028,64.888 139.035,64.888C139.038,64.888 139.041,64.888 139.042,64.888C139.043,64.888 139.043,64.888 139.044,64.888C139.044,64.888 139.044,64.888 139.044,64.888C139.044,64.888 139.044,64.888 139.115,62.89C139.187,60.891 139.186,60.891 139.186,60.891C139.186,60.891 139.186,60.891 139.185,60.891C139.185,60.891 139.184,60.891 139.183,60.891C139.18,60.891 139.177,60.891 139.173,60.89C139.164,60.89 139.152,60.89 139.136,60.889C139.104,60.888 139.057,60.887 138.996,60.885C138.874,60.881 138.694,60.876 138.463,60.87C138,60.858 137.327,60.844 136.485,60.832C134.802,60.81 132.437,60.801 129.706,60.855C124.264,60.961 117.286,61.317 111.338,62.332L112.01,66.275ZM141.115,62.876L140.836,20.815L136.836,20.841L137.115,62.903L141.115,62.876ZM65.608,90.872C65.269,91.398 64.756,91.753 64.14,91.885L64.98,95.796C66.631,95.442 68.054,94.462 68.971,93.038L65.608,90.872ZM64.14,91.885C63.526,92.017 62.905,91.903 62.377,91.562L60.208,94.923C61.624,95.837 63.327,96.151 64.98,95.796L64.14,91.885ZM62.376,91.562L56.8,87.963L54.631,91.324L60.208,94.923L62.376,91.562ZM56.798,87.962C56.27,87.622 55.912,87.106 55.779,86.49L51.869,87.336C52.227,88.987 53.211,90.41 54.633,91.325L56.798,87.962ZM55.779,86.491C55.646,85.877 55.759,85.264 56.099,84.738L52.739,82.566C51.822,83.986 51.513,85.684 51.869,87.335L55.779,86.491ZM56.099,84.737C56.799,83.654 58.247,83.34 59.331,84.04L61.499,80.678C58.557,78.78 54.634,79.632 52.739,82.567L56.099,84.737ZM59.331,84.039L64.908,87.638L67.076,84.277L61.5,80.678L59.331,84.039ZM64.907,87.637C65.992,88.338 66.304,89.792 65.608,90.871L68.971,93.038C70.863,90.101 70.014,86.174 67.077,84.277L64.907,87.637ZM65.433,91.212L65.433,91.212L69.146,92.698L69.147,92.698L65.433,91.212ZM78.151,82.232C77.811,82.761 77.296,83.116 76.685,83.247L77.522,87.159C79.176,86.805 80.599,85.819 81.515,84.398L78.151,82.232ZM76.676,83.249C76.069,83.382 75.454,83.27 74.924,82.927L72.754,86.288C74.169,87.201 75.871,87.519 77.531,87.157L76.676,83.249ZM74.923,82.927L63.871,75.795L61.702,79.156L72.755,86.288L74.923,82.927ZM63.87,75.795C62.784,75.095 62.473,73.642 63.169,72.564L59.809,70.394C57.91,73.334 58.764,77.262 61.702,79.157L63.87,75.795ZM63.169,72.564C63.867,71.483 65.318,71.171 66.4,71.869L68.57,68.508C65.632,66.612 61.705,67.458 59.809,70.394L63.169,72.564ZM66.401,71.869L77.453,79.001L79.622,75.64L68.57,68.508L66.401,71.869ZM77.455,79.002C77.984,79.343 78.339,79.858 78.47,80.469L82.382,79.634C82.028,77.978 81.042,76.555 79.621,75.639L77.455,79.002ZM78.471,80.475C78.604,81.087 78.491,81.705 78.151,82.233L81.515,84.398C82.426,82.982 82.739,81.281 82.38,79.628L78.471,80.475ZM81.69,82.572L81.69,82.572L77.976,84.058L77.976,84.058L81.69,82.572ZM87.425,71.862C86.787,72.851 85.472,73.134 84.482,72.496L82.315,75.858C85.16,77.693 88.949,76.877 90.786,74.031L87.425,71.862ZM84.483,72.497L76.25,67.185L74.081,70.546L82.314,75.858L84.483,72.497ZM76.248,67.183C75.261,66.548 74.975,65.233 75.614,64.242L72.252,62.075C70.418,64.921 71.236,68.714 74.083,70.547L76.248,67.183ZM75.613,64.243C76.248,63.26 77.565,62.973 78.556,63.612L80.724,60.25C77.879,58.416 74.086,59.233 72.253,62.074L75.613,64.243ZM78.555,63.612L86.788,68.924L88.957,65.562L80.724,60.25L78.555,63.612ZM86.787,68.923C87.776,69.562 88.058,70.88 87.424,71.863L90.786,74.03C92.619,71.188 91.797,67.397 88.958,65.563L86.787,68.923ZM87.105,72.946L87.105,72.946L91.105,72.946L91.105,72.946L87.105,72.946Z" fill="#000000"/>
<path d="M149.986,78.793L151.383,80.225L154.983,76.712L149.954,76.793L149.986,78.793ZM125.893,102.295L124.497,100.864L120.979,104.295L125.893,104.295L125.893,102.295ZM146.414,102.295L147.733,103.799L151.725,100.295L146.414,100.295L146.414,102.295ZM105.241,138.424L103.548,137.36L106.56,139.927L105.241,138.424ZM122.598,110.793L124.292,111.857L126.216,108.793L122.598,108.793L122.598,110.793ZM107.832,110.793L106.026,109.933L104.663,112.793L107.832,112.793L107.832,110.793ZM122.871,79.229L122.839,77.229L121.599,77.249L121.065,78.369L122.871,79.229ZM148.589,77.361L124.497,100.864L127.29,103.727L151.383,80.225L148.589,77.361ZM125.893,104.295L146.414,104.295L146.414,100.295L125.893,100.295L125.893,104.295ZM145.095,100.792L103.922,136.92L106.56,139.927L147.733,103.799L145.095,100.792ZM106.935,139.487L124.292,111.857L120.904,109.73L103.548,137.36L106.935,139.487ZM122.598,108.793L107.832,108.793L107.832,112.793L122.598,112.793L122.598,108.793ZM109.637,111.654L124.676,80.089L121.065,78.369L106.026,109.933L109.637,111.654ZM122.903,81.229L150.018,80.793L149.954,76.793L122.839,77.229L122.903,81.229Z" fill="#000000"/>
</svg>
