<svg width="108" height="108" viewBox="0 0 108 108" fill="none" xmlns="http://www.w3.org/2000/svg" xmlns:xlink="http://www.w3.org/1999/xlink">
<g opacity="0.78">
<path d="M64.364,14.892C61.008,14.004 57.55,13.562 54.078,13.578C50.674,13.588 47.285,14.016 43.986,14.854L54.186,43.002L64.364,14.892Z" fill="#434343"/>
<path d="M94.292,53.868C94.323,48.996 93.458,44.159 91.74,39.6L72.6,89.556C79.133,86.159 84.609,81.036 88.434,74.744C92.258,68.451 94.284,61.231 94.292,53.868Z" fill="#434343"/>
<path d="M74.34,19.028L62.54,51.508L45.922,51.508L34.09,18.874C29.726,21.385 25.871,24.69 22.722,28.618L39.542,72.232L45.69,56.302L61.852,56.302L68,72.232L84.974,28.076C81.97,24.477 78.374,21.417 74.34,19.028Z" fill="#434343"/>
<path d="M54.08,0.122C43.454,0.118 33.065,3.265 24.228,9.165C15.391,15.066 8.501,23.454 4.431,33.269C0.361,43.085 -0.707,53.887 1.362,64.31C3.432,74.732 8.545,84.307 16.056,91.824C23.567,99.34 33.138,104.461 43.559,106.538C53.98,108.615 64.783,107.555 74.602,103.492C84.42,99.429 92.814,92.546 98.72,83.713C104.627,74.88 107.782,64.494 107.786,53.868C107.758,39.629 102.091,25.981 92.027,15.91C81.962,5.838 68.319,0.161 54.08,0.122M54.08,100.692C44.806,100.688 35.742,97.934 28.033,92.777C20.325,87.621 14.319,80.294 10.775,71.724C7.232,63.153 6.31,53.725 8.126,44.63C9.941,35.536 14.414,27.184 20.977,20.632C27.54,14.08 35.899,9.621 44.997,7.82C54.094,6.02 63.521,6.957 72.086,10.515C80.65,14.073 87.967,20.091 93.111,27.808C98.254,35.525 100.994,44.594 100.982,53.868C100.941,66.287 95.984,78.185 87.194,86.96C78.405,95.734 66.499,100.671 54.08,100.692Z" fill="#434343"/>
<path d="M53.732,64.886L43.332,91.836L43.294,92.686C50.142,94.58 57.367,94.648 64.25,92.886L64.134,91.886L53.732,64.886Z" fill="#434343"/>
<path d="M13.79,53.866C13.792,61.085 15.739,68.17 19.426,74.375C23.114,80.581 28.406,85.678 34.746,89.13L16.07,40.488C14.556,44.786 13.784,49.31 13.788,53.866Z" fill="#434343"/>
</g>
</svg>
