<svg width="150" height="102" viewBox="0 0 150 102" fill="none" xmlns="http://www.w3.org/2000/svg" xmlns:xlink="http://www.w3.org/1999/xlink">
<g opacity="0.78">
<path d="M144.494,27.656L126.838,27.656C125.718,27.524 124.645,27.129 123.707,26.503C122.768,25.878 121.991,25.039 121.438,24.056C112.06,8.856 94.15,-0.656 74.638,-0.656C54.438,-0.656 36.198,9.314 27.038,25.364L26.954,25.532C26.781,26.2 26.375,26.784 25.81,27.179C25.244,27.574 24.556,27.754 23.87,27.686L4.692,27.686C3.443,27.693 2.248,28.195 1.369,29.082C0.49,29.97 -0.001,31.169 0.004,32.418L0.004,64.018C0.003,64.634 0.123,65.244 0.358,65.814C0.593,66.383 0.939,66.9 1.374,67.336C1.81,67.772 2.327,68.117 2.896,68.352C3.466,68.587 4.076,68.708 4.692,68.706L20.66,68.706C21.341,68.756 22,68.976 22.575,69.345C23.15,69.713 23.624,70.22 23.954,70.818C24.166,71.156 24.554,71.618 24.968,72.17C25.686,73.142 26.616,74.37 27.25,75.338C32.355,83.293 39.398,89.82 47.719,94.305C56.039,98.79 65.363,101.086 74.814,100.978C93.78,100.978 110.93,92.74 120.688,78.886C120.942,78.506 121.288,77.998 121.702,77.45C123.315,75.271 124.756,72.968 126.01,70.564C126.854,69.044 127.446,68.748 128.628,68.748L144.51,68.748C145.759,68.753 146.959,68.262 147.846,67.383C148.733,66.504 149.235,65.309 149.242,64.06L149.242,32.46C149.252,31.832 149.137,31.208 148.903,30.625C148.67,30.042 148.323,29.511 147.883,29.063C147.443,28.615 146.918,28.258 146.339,28.015C145.76,27.771 145.138,27.645 144.51,27.644M24.882,28.996L24.882,28.912C25.67,28.809 26.409,28.472 27.004,27.945C27.599,27.419 28.022,26.726 28.22,25.956C37.176,10.368 54.916,0.696 74.602,0.696C93.602,0.696 111.14,9.896 120.266,24.774C120.933,25.956 121.878,26.959 123.019,27.694C124.159,28.43 125.462,28.878 126.814,28.998L144.47,28.998C145.168,29.001 145.848,29.223 146.414,29.632L142.014,33.73C141.569,33.458 141.058,33.312 140.536,33.308L8.56,33.308C8.018,33.306 7.488,33.468 7.04,33.772L3.44,29.252C3.82,29.117 4.219,29.045 4.622,29.04L24.866,29.04L24.882,28.996ZM37.638,85.596C35.93,84.198 34.387,82.611 33.038,80.864C31.856,79.428 30.714,77.864 29.616,76.386C28.476,74.824 27.462,73.344 26.66,72.12C25.73,70.642 25.06,69.586 24.928,69.29C24.52,68.739 24.285,68.079 24.255,67.394C24.225,66.709 24.4,66.031 24.758,65.446C26.077,63.95 27.746,62.803 29.616,62.108L38.866,67.508L38.444,68.226L30.544,63.826C36.668,81.272 54.2,93.826 74.814,93.826C84.091,93.934 93.177,91.182 100.835,85.945C108.493,80.707 114.351,73.237 117.614,64.552L110.686,68.184L110.474,67.846C110.435,67.726 110.377,67.612 110.304,67.508L110.262,67.466L119.808,61.974L125.89,66.832C123.946,71.774 118.49,80.232 111.064,79.336C106.616,84.576 101.043,88.744 94.761,91.531C88.478,94.318 81.647,95.65 74.778,95.43C67.754,95.5 60.789,94.143 54.305,91.442C47.821,88.741 41.953,84.752 37.056,79.716L32.536,78.238C33.943,80.882 35.659,83.349 37.648,85.588L37.648,85.588M109.162,69.072C104.008,83.688 87.914,89.222 74.608,89.472C61.302,89.218 45.25,83.728 40.054,69.072C39.886,68.65 39.928,68.396 40.012,68.312C40.061,68.279 40.121,68.264 40.18,68.27L109.076,68.27C109.16,68.27 109.244,68.27 109.244,68.312C109.314,68.567 109.284,68.839 109.16,69.072M142.066,36.072L142.066,57.574C142.067,57.769 142.03,57.961 141.956,58.141C141.882,58.321 141.773,58.484 141.636,58.622C141.498,58.759 141.335,58.868 141.155,58.942C140.975,59.016 140.782,59.053 140.588,59.052L8.604,59.052C8.41,59.053 8.217,59.016 8.037,58.942C7.857,58.868 7.694,58.759 7.556,58.622C7.419,58.484 7.31,58.321 7.236,58.141C7.162,57.961 7.125,57.769 7.126,57.574L7.126,36.104C7.131,35.714 7.288,35.34 7.564,35.064C7.84,34.788 8.213,34.631 8.604,34.626L140.566,34.626C140.76,34.625 140.953,34.663 141.133,34.737C141.313,34.81 141.476,34.919 141.614,35.057C141.751,35.194 141.86,35.358 141.934,35.537C142.008,35.717 142.045,35.91 142.044,36.104Z" fill="#434343"/>
<path d="M40.454,32.26L110.194,32.26C112.644,32.26 111.63,30.19 111.038,29.092C113.567,29.509 115.926,30.637 117.838,32.344C111.714,13.588 94.774,4.544 74.838,4.544C54.604,4.544 37.962,15.526 31.878,32.846C33.825,31.36 36.052,30.283 38.426,29.678C38.355,29.985 38.354,30.303 38.423,30.61C38.492,30.917 38.628,31.205 38.823,31.452C39.018,31.699 39.265,31.9 39.547,32.038C39.83,32.177 40.139,32.251 40.454,32.254M40.622,28.494C46.536,13.16 59.884,7.964 74.622,7.964C89.872,7.964 105.29,12.948 110.19,28.494C110.208,28.609 110.236,28.723 110.274,28.832C110.274,28.79 110.232,28.664 110.19,28.494C110.402,29.424 110.316,29.804 109.26,29.804L41.8,29.804C41.082,29.846 40.152,29.634 40.618,28.494Z" fill="#434343"/>
<path d="M32.046,51.184L26.386,37.118L17.938,37.118L17.938,55.662L23.092,55.662L23.092,40.962L29.048,55.662L37.248,55.662L37.248,37.118L32.048,37.118L32.046,51.184Z" fill="#434343"/>
<line x1="42.751" y1="37.118" x2="42.751" y2="55.662" stroke="#010101" stroke-width="1.335" stroke-miterlimit="10"/>
<path d="M94.65,37.118L88.018,55.662L93.34,55.662L94.522,52.324L102.21,52.324L100.774,48.226L95.958,48.226L98.358,41.256L103.428,55.656L108.75,55.656L102.202,37.112L94.65,37.118Z" fill="#434343"/>
<path d="M60.94,44.256L55.406,44.256L55.406,41.256L65.84,41.256L65.84,37.116L55.196,37.116C54.491,37.045 53.778,37.136 53.113,37.383C52.449,37.629 51.849,38.024 51.36,38.537C50.871,39.051 50.505,39.669 50.291,40.345C50.078,41.021 50.021,41.737 50.126,42.438C50.126,44.296 50.422,48.438 56.378,48.438L61.996,48.438L61.996,51.438L50.634,51.438L50.634,55.662L62.166,55.662C62.896,55.645 63.615,55.481 64.281,55.181C64.946,54.881 65.545,54.451 66.041,53.915C66.538,53.379 66.921,52.75 67.17,52.063C67.418,51.377 67.526,50.647 67.488,49.918C67.53,46.286 65.588,44.258 60.94,44.258Z" fill="#434343"/>
<path d="M124.766,51.184L119.106,37.118L110.706,37.118L110.706,55.662L115.86,55.662L115.86,40.962L121.816,55.662L129.968,55.662L129.968,37.118L124.768,37.118L124.766,51.184Z" fill="#434343"/>
<path d="M80.54,44.256L75.006,44.256L75.006,41.256L85.44,41.256L85.44,37.116L74.796,37.116C74.088,37.044 73.374,37.134 72.706,37.379C72.039,37.625 71.436,38.019 70.943,38.532C70.45,39.044 70.081,39.663 69.863,40.34C69.645,41.017 69.583,41.734 69.684,42.438C69.684,44.296 70.022,48.438 75.936,48.438L81.596,48.438L81.596,51.438L70.224,51.438L70.224,55.662L81.756,55.662C82.486,55.645 83.205,55.482 83.871,55.182C84.536,54.882 85.135,54.451 85.631,53.915C86.128,53.38 86.511,52.75 86.76,52.064C87.008,51.377 87.117,50.648 87.078,49.918C87.12,46.286 85.178,44.258 80.53,44.258Z" fill="#434343"/>
</g>
</svg>
