<svg width="1796" height="796" viewBox="0 0 1796 796" fill="none" xmlns="http://www.w3.org/2000/svg" xmlns:xlink="http://www.w3.org/1999/xlink">
<rect  x="931.037" y="453.216" width="2.707" height="285.12" transform="rotate(-165.419 931.037 453.216)" fill="#9BC1F9"/>
<path d="M790.819,358.675L792.101,356.287L400.009,145.164L556.743,106.175L556.089,103.557L392.553,144.226L790.819,358.675Z" fill="#9BC1F9"/>
<rect  x="405.939" y="616.141" width="2.715" height="541.22" transform="rotate(-142.891 405.939 616.141)" fill="#9BC1F9"/>
<path d="M1651.479,616.693L1653.415,614.801L1398.155,353.863L1397.909,353.765L961.449,165.392L810.844,143.359L810.455,146.031L960.883,168.046L1396.599,356.145L1651.479,616.693Z" fill="#9BC1F9"/>
<path d="M838.007,678.698L857.475,538.742L856.477,538.353L634.483,451.221L436.239,366.688L435.177,369.174L633.457,453.724L854.495,540.485L835.327,678.326L838.007,678.698Z" fill="#9BC1F9"/>
<path d="M823.015,679.716L824.271,677.31L646.495,584.392L646.495,440.43L464.535,594.006L142.963,436.132L473.159,345.858L473.423,345.266L573.303,119.213L806.015,145.89L783.833,328.62L786.521,328.946L809.031,143.51L807.679,143.351L571.631,116.294L571.233,117.214L471.203,343.586L135.339,435.406L464.933,597.226L465.605,596.652L643.789,446.258L643.789,586.028L823.015,679.716Z" fill="#9BC1F9"/>
<path d="M1384.103,371.82L1384.155,369.112L1081.751,362.948L1167.681,108.201L1165.116,107.334L1078.001,365.584L1384.103,371.82Z" fill="#9BC1F9"/>
<path d="M1768.464,535.832L1769.764,533.454L1426.938,345.61L1204.281,145.058L1202.468,147.065L1425.372,347.814L1768.464,535.832Z" fill="#9BC1F9"/>
<rect  x="1567.672" y="641.435" width="2.715" height="181.589" transform="rotate(-140.111 1567.672 641.435)" fill="#9BC1F9"/>
<rect  x="1320.979" y="598.354" width="169.268" height="2.715" transform="rotate(-29.512 1320.979 598.354)" fill="#9BC1F9"/>
<rect  x="1119.253" y="626.006" width="190.505" height="2.707" transform="rotate(-8.016 1119.253 626.006)" fill="#9BC1F9"/>
<path d="M944.06,427.852L944.485,427.817L1358.823,394.241L1358.601,391.543L944.697,425.075L817.691,349.671L816.311,351.997L944.06,427.852Z" fill="#9BC1F9"/>
<path d="M1037.552,606.469L1039.932,605.178L944.555,428.993L861.589,541.617L863.773,543.227L944.202,434.035L1037.552,606.469Z" fill="#9BC1F9"/>
<path d="M789.572,341.295L953.993,173.875L1181.31,109.076L1180.568,106.467L952.569,171.46L952.321,171.726L787.644,339.401L789.572,341.295Z" fill="#9BC1F9"/>
<rect  x="326.075" y="380.105" width="2.707" height="168.26" transform="rotate(-157.346 326.075 380.105)" fill="#9BC1F9"/>
<path d="M280.575,645.264L281.521,642.724L134.613,588.328L134.613,421.996L253.995,329.283L253.739,328.399L203.923,159.608L201.332,160.369L250.873,328.284L131.907,420.67L131.907,590.212L280.575,645.264Z" fill="#9BC1F9"/>
<rect  x="165.267" y="490.005" width="340.013" height="2.715" transform="rotate(-64.335 165.267 490.005)" fill="#9BC1F9"/>
<rect  x="1270.365" y="190.921" width="2.707" height="185.596" transform="rotate(-146.57 1270.365 190.921)" fill="#9BC1F9"/>
<rect  x="1200.123" y="497.597" width="249.59" height="2.707" transform="rotate(-175.851 1200.123 497.597)" fill="#9BC1F9"/>
<path d="M654.88,617.835L762.851,309.629L760.295,308.727L652.332,616.933L654.88,617.835Z" fill="#9BC1F9"/>
<rect  x="332.646" y="198.698" width="2.715" height="309.497" transform="rotate(-95.074 332.646 198.698)" fill="#9BC1F9"/>
<path d="M129.748,435.07L129.748,591.716L281.848,648.032L284.289,641.452L136.771,586.834L136.771,581.73L139.195,585.586L269.456,503.664L465.242,599.782L466.994,598.296L514.536,558.166L654.172,605.134L649.572,618.252L656.198,620.586L660.824,607.372L662.876,608.062L665.114,601.402L663.15,600.738L663.786,598.916L823.918,682.616L827.164,676.39L666.13,592.212L704.12,483.77L852.116,541.866L832.878,680.158L839.83,681.122L859.112,542.476L864.208,546.234L943.902,438.042L1036.66,609.38L1042.832,606.036L947.386,429.728L1083.662,418.688L1076.268,623.01L1083.29,623.258L1090.72,418.122L1361.122,396.214L1360.556,389.216L1090.968,411.056L1092.472,369.528L1085.448,369.28L1083.918,411.63L945.184,422.872L816.912,346.708L813.33,352.748L941.814,429.038L859.306,541.052L859.82,537.346L857.238,536.336L706.428,477.146L754.016,341.312L791.668,361.584L795.004,355.41L756.36,334.608L765.576,308.302L758.95,305.968L750.096,331.228L533.516,214.606L574.638,121.539L803.618,147.782L781.436,330.494L786.14,331.07L786.026,331.99L791.244,332.652L784.592,339.428L789.598,344.346L799.984,333.768L1073.136,368.572L1074.03,361.602L806.166,327.47L955.134,175.785L966.128,172.654L1118.6,238.47L1075.02,367.662L1386.216,374.004L1386.348,366.98L1084.732,360.834L1125.066,241.257L1395.352,357.94L1418.076,381.176L1320.39,597.156L1234.568,443.26L1091.862,639.258L1097.76,643.07L1233.674,457.546L1320.604,613.732L1423.356,386.554L1651.452,619.728L1656.468,614.82L1426.46,379.69L1430.38,371.022L1423.976,368.14L1421.19,374.304L1399.412,352.042L1127.322,234.614L1167.592,115.215L1183.982,110.544L1182.062,103.796L1170.316,107.148L1170.414,106.847L1163.762,104.6L1162.118,109.483L966.544,165.233L962.06,163.296L809.032,140.9L808.97,141.316L807.926,141.201L570.304,113.958L569.26,116.329L527.316,211.254L405.944,145.907L559.362,107.74L557.664,100.93L386.626,143.465L524.478,217.693L469.656,341.764L443.306,348.964L219.747,144.403L215.006,149.586L435.292,351.174L151.667,428.72L148.058,427.508L147.244,429.93L136.78,432.788L136.78,423.058L256.489,330.096L255.808,327.798L252.96,318.156L409.218,349.432L410.598,342.55L250.722,310.55L205.391,156.945L198.652,158.918L242.939,308.992L241.373,308.682L239.993,315.564L245.185,316.6L248.396,327.488L129.757,419.626L129.757,434.716L129.28,434.848L129.748,435.07ZM976.724,169.638L1159.384,117.567L1120.838,231.837L976.724,169.638ZM810.632,148.242L953.064,169.081L951.428,169.55L950.774,170.222L797.426,326.364L789.138,325.312L810.632,148.242ZM151.437,436.052L289.791,482.576L269.049,495.624L149.04,436.706L151.437,436.052ZM699.91,474.59L648.652,454.476L648.652,435.796L633.59,448.506L435.098,363.858L432.338,370.306L627.584,453.566L513.032,550.25L306.057,480.64L430.666,402.272L426.926,396.328L297.46,477.756L163.59,432.734L441.414,356.782L446.508,361.444L451.248,356.26L449.418,354.588L474.714,347.672L475.388,346.132L530.66,221.046L747.77,337.952L699.91,474.59ZM641.63,450.902L641.63,451.716L640.976,451.46L641.63,450.902ZM659.85,588.938L648.652,583.084L648.652,462.004L697.584,481.206L659.85,588.938ZM520.824,552.868L634.882,456.598L641.63,459.252L641.63,587.338L657.498,595.634L656.49,598.5L520.824,552.868ZM276.453,499.268L298.38,485.478L506.752,555.558L464.216,591.46L276.453,499.268ZM136.771,438.51L262.053,500.02L136.771,578.81L136.771,438.51L136.771,438.51Z" fill="#9BC1F9"/>
<path d="M1761.272,534.348L1443.886,360.41L1413.662,360.94L1413.538,353.916L1431.458,353.608L1424.116,349.582L1415.962,342.232L1410.116,357.994L1403.534,355.554L1410.346,337.174L1199.426,147.225L1204.131,142.015L1412.954,330.124L1492.392,115.684L1498.972,118.125L1418.572,335.174L1428.194,343.842L1445.558,353.36L1715.12,367.494L1715.244,374.518L1457.976,360.162L1759.504,525.37L1707.282,371.678L1714.174,370.334L1767.526,529.766L1772.692,532.596L1769.322,538.76L1769.286,538.744L1773.02,557.724L1675.954,620.242L1672.15,614.342L1765.208,554.408L1761.272,534.348Z" fill="#9BC1F9"/>
<path d="M1484.201,578.571L1655.778,640.867L1653.382,647.474L1478.638,584.029L1479.186,582.516L1316.985,625.229L1315.208,618.436L1483.06,574.229L1484.201,578.571Z" fill="#9BC1F9"/>
<rect  x="1117.106" y="623.856" width="194.821" height="7.014" transform="rotate(-8.016 1117.106 623.856)" fill="#9BC1F9"/>
<rect  x="1271.296" y="191.768" width="7.023" height="189.903" transform="rotate(-146.62 1271.296 191.768)" fill="#9BC1F9"/>
<rect  x="1489.643" y="237.305" width="251.483" height="2.707" transform="rotate(-139.343 1489.643 237.305)" fill="#9BC1F9"/>
<circle cx="656.598" cy="96.994" r="69.77" transform="rotate(-116.565 656.598 96.994)" fill="#FFFFFF"/>
<circle cx="418.131" cy="623.504" r="70.637" transform="rotate(-161.563 418.131 623.504)" fill="#FFFFFF"/>
<circle cx="1079.876" cy="364.265" r="51.735" fill="#FFFFFF"/>
<circle cx="1436.633" cy="340.334" r="96.791" transform="rotate(-22.618 1436.633 340.334)" fill="#FFFFFF"/>
<circle cx="978.791" cy="154.269" r="45.357" transform="rotate(-38.66 978.791 154.269)" fill="#FFFFFF"/>
<circle cx="1611.015" cy="133.702" r="65.896" transform="rotate(-168.694 1611.015 133.702)" fill="#FFFFFF"/>
<circle cx="226.416" cy="170.257" r="58.528" fill="#FFFFFF"/>
<path d="M1041.624,325.796C1041.624,373.195 1003.195,411.619 955.791,411.619C908.387,411.619 869.959,373.195 869.959,325.796C869.959,278.397 908.387,239.972 955.791,239.972C1003.195,239.972 1041.624,278.397 1041.624,325.796Z" transform="rotate(-165.072 955.791 325.796)" fill="#FFFFFF"/>
<circle cx="272.868" cy="410.26" r="80.092" transform="rotate(-153.428 272.868 410.26)" fill="#FFFFFF"/>
<path d="M1766.942,375.108C1766.942,406.455 1741.53,431.876 1710.175,431.876C1678.819,431.876 1653.407,406.464 1653.407,375.108C1653.407,343.761 1678.819,318.341 1710.175,318.341C1741.53,318.341 1766.942,343.753 1766.942,375.108Z" fill="#FFFFFF"/>
<circle cx="930.749" cy="534.595" r="39.042" transform="rotate(-153.428 930.749 534.595)" fill="#FFFFFF"/>
<path d="M1369.897,605.46C1369.897,632.738 1347.784,654.851 1320.506,654.851C1293.228,654.851 1271.115,632.738 1271.115,605.46C1271.115,578.182 1293.228,556.061 1320.506,556.061C1347.784,556.061 1369.897,578.182 1369.897,605.46Z" fill="#FFFFFF"/>
<circle cx="1319.949" cy="103.198" r="79.199" transform="rotate(-154.535 1319.949 103.198)" fill="#FFFFFF"/>
<path d="M1217.373,104.803C1217.815,94.172 1216.249,83.681 1211.49,73.784C1207.395,65.275 1197.276,60.437 1188.042,60.428C1158.73,60.392 1154.997,99.116 1136.343,114.064C1130.638,118.628 1124.27,122.343 1118.874,127.27C1098.955,145.446 1107.924,179.102 1126.215,195.032C1138.908,206.088 1158.863,212.377 1174.509,203.727C1182.673,199.216 1188.874,191.715 1193.296,183.489C1199.567,171.822 1203.61,158.369 1208.067,145.933C1212.808,132.71 1216.789,118.929 1217.373,104.803Z" fill="#13375B"/>
<path d="M1206.413,202.63C1206.413,202.63 1184.522,180.181 1178.887,170.425C1173.253,160.669 1182.726,167.02 1192.394,164.454C1196.056,163.482 1195.127,142.015 1202.052,148.993C1213.41,160.439 1227.695,180.455 1227.695,180.455L1206.413,202.63Z" fill="#96D9C9"/>
<path d="M1175.288,139.149C1175.288,139.149 1155.643,135.275 1146.674,142.758C1137.705,150.25 1148.594,216.844 1148.585,227.883C1148.576,238.921 1142.429,267.756 1142.429,267.756C1142.429,267.756 1201.974,280.537 1211.438,263.962C1211.438,263.962 1214.127,200.817 1213.729,192.874C1213.331,184.931 1204.504,152.461 1202.062,148.985C1199.612,145.517 1175.288,139.149 1175.288,139.149Z" fill="#50BFA5"/>
<path d="M1175.164,108.757C1175.164,108.757 1175.058,109.34 1174.872,110.34C1173.979,115.134 1170.547,131.046 1168.229,135.416C1165.426,140.705 1177.818,157.555 1189.749,155.503C1193.296,154.893 1186.751,140.015 1187.06,138.441C1187.662,135.425 1188.485,131.311 1189.316,127.093C1189.785,124.713 1190.263,122.298 1190.714,120.034C1191.987,113.586 1193.031,108.314 1193.031,108.314L1175.164,108.757Z" fill="#F7A491"/>
<path d="M1174.872,110.34C1175.057,109.34 1175.164,108.757 1175.164,108.757L1193.039,108.314C1193.039,108.314 1191.996,113.586 1190.722,120.034C1190.28,122.29 1189.802,124.687 1189.333,127.057C1186.574,126.65 1183.69,125.315 1180.798,122.785C1177.649,120.034 1175.579,116.726 1174.332,113.188C1174.553,112.056 1174.73,111.092 1174.872,110.34Z" fill="#F47458"/>
<path d="M1187.193,68.211C1187.193,68.211 1178.764,67.238 1173.484,74.057C1168.203,80.877 1162.507,101.955 1175.633,113.409C1188.75,124.872 1201.708,111.897 1203.637,98.143C1205.556,84.389 1206.299,67.716 1187.193,68.211Z" fill="#F7A491"/>
<path d="M1200.328,64.753C1200.328,64.753 1183.902,88.281 1168.273,85.132L1167.84,75.093L1169.281,71.289L1177.207,66.203L1190.076,63.267L1200.328,64.753Z" fill="#13375B"/>
<path d="M1207.51,97.939C1205.945,100.973 1203.318,102.662 1201.637,101.698C1199.965,100.734 1199.868,97.497 1201.434,94.454C1202.999,91.42 1205.626,89.731 1207.307,90.695C1208.987,91.659 1209.076,94.905 1207.51,97.939Z" fill="#F7A491"/>
<path d="M1170.936,91.969C1171.59,95.525 1170.273,98.797 1167.991,99.257C1165.709,99.726 1163.329,97.214 1162.675,93.658C1162.02,90.102 1163.338,86.839 1165.62,86.37C1167.902,85.901 1170.281,88.404 1170.936,91.969Z" fill="#F7A491"/>
<path d="M1192.261,105.838L1179.905,105.201C1179.905,105.201 1179.949,109.907 1185.371,110.349C1191.987,110.88 1192.261,105.838 1192.261,105.838Z" fill="#FFFFFF"/>
<path d="M1192.261,105.838L1179.905,105.201C1179.905,105.201 1179.949,109.907 1185.371,110.349C1191.987,110.88 1192.261,105.838 1192.261,105.838Z" fill="#FFFFFF"/>
<path d="M1154.077,201.842C1154.077,201.842 1141.181,173.264 1139.226,162.172C1137.271,151.08 1146.78,137.158 1156.748,138.052C1166.717,138.954 1181.656,188.3 1181.656,188.3L1154.077,201.842Z" fill="#96D9C9"/>
<circle cx="604.714" cy="339.124" r="90.299" transform="rotate(-153.428 604.714 339.124)" fill="#FFFFFF"/>
<path d="M701.193,591.291C701.193,618.277 679.31,640.16 652.323,640.16C625.337,640.16 603.455,618.277 603.455,591.291C603.455,564.304 625.337,542.422 652.323,542.422C679.319,542.422 701.193,564.304 701.193,591.291Z" fill="#FFFFFF"/>
<circle cx="1084.777" cy="608.489" r="95.359" transform="rotate(-5.709 1084.777 608.489)" fill="#FFFFFF"/>
<path d="M1715.446,608.202C1715.446,642.53 1687.611,670.365 1653.283,670.365C1618.956,670.365 1591.12,642.53 1591.12,608.202C1591.12,573.865 1618.956,546.039 1653.283,546.039C1687.611,546.039 1715.446,573.865 1715.446,608.202Z" fill="#FFFFFF"/>
<path d="M1208.103,454.183C1208.103,468.548 1219.751,480.197 1234.116,480.197C1248.48,480.197 1260.129,468.548 1260.129,454.183C1260.129,439.819 1248.48,428.17 1234.116,428.17C1219.751,428.161 1208.103,439.81 1208.103,454.183Z" fill="#FFFFFF"/>
<path d="M1343.229,178.094C1343.229,186.647 1350.163,193.573 1358.707,193.573C1367.261,193.573 1374.186,186.638 1374.186,178.094C1374.186,169.541 1367.252,162.615 1358.707,162.615C1350.163,162.606 1343.229,169.541 1343.229,178.094Z" fill="#FFFFFF"/>
<circle cx="1516.322" cy="574.605" r="22.325" transform="rotate(-134.999 1516.322 574.605)" fill="#FFFFFF"/>
<path d="M788.608,144.695C788.608,156.866 798.479,166.737 810.65,166.737C822.821,166.737 832.692,156.866 832.692,144.695C832.692,132.524 822.821,122.653 810.65,122.653C798.479,122.653 788.608,132.524 788.608,144.695Z" fill="#FFFFFF"/>
<circle cx="417.603" cy="135.859" r="21.334" transform="rotate(-90 417.603 135.859)" fill="#FFFFFF"/>
<path d="M621.251,452.476C621.251,466.84 632.9,478.489 647.264,478.489C661.637,478.489 673.277,466.84 673.277,452.476C673.277,438.103 661.629,426.463 647.264,426.463C632.9,426.463 621.251,438.112 621.251,452.476Z" fill="#FFFFFF"/>
<path d="M810.65,678.512C810.65,692.877 822.299,704.526 836.663,704.526C851.028,704.526 862.677,692.877 862.677,678.512C862.677,664.139 851.028,652.499 836.663,652.499C822.299,652.49 810.65,664.139 810.65,678.512Z" fill="#FFFFFF"/>
<path d="M927.493,426.463C927.493,435.786 935.047,443.348 944.378,443.348C953.71,443.348 961.263,435.786 961.263,426.463C961.263,417.141 953.701,409.578 944.378,409.578C935.056,409.578 927.493,417.141 927.493,426.463Z" fill="#FFFFFF"/>
<path d="M447.295,595.616C447.295,605.249 455.105,613.059 464.737,613.059C474.37,613.059 482.18,605.249 482.18,595.616C482.18,585.984 474.37,578.174 464.737,578.174C455.096,578.174 447.295,585.984 447.295,595.616Z" fill="#FFFFFF"/>
<circle cx="135.187" cy="587.509" r="26.013" transform="rotate(-8.131 135.187 587.509)" fill="#FFFFFF"/>
<path d="M226.416,312.53C226.416,326.894 238.065,338.543 252.43,338.543C266.794,338.543 278.443,326.894 278.443,312.53C278.443,298.166 266.794,286.517 252.43,286.517C238.065,286.517 226.416,298.166 226.416,312.53Z" fill="#FFFFFF"/>
<path d="M1743.096,542.422C1743.096,556.786 1754.745,568.435 1769.109,568.435C1783.483,568.435 1795.123,556.786 1795.123,542.422C1795.123,528.057 1783.474,516.408 1769.109,516.408C1754.746,516.408 1743.096,528.057 1743.096,542.422Z" fill="#FFFFFF"/>
<path d="M774.819,280.776C796.604,269.207 821.989,279.573 823.891,309.965C825.793,340.356 804.343,351.068 783.752,349.06C763.161,347.052 742.906,293.531 774.819,280.776Z" fill="#13375B"/>
<path d="M787.962,361.532C787.962,373.499 797.665,383.202 809.633,383.202C821.6,383.202 831.303,373.499 831.303,361.532C831.303,349.564 821.6,339.861 809.633,339.861C797.666,339.861 787.962,349.555 787.962,361.532Z" fill="#13375B"/>
<path d="M763.125,373.968L689.128,371.421C689.128,371.421 631.458,353.394 629.671,352.899C627.884,352.404 619.048,329.309 616.713,331.29C614.369,333.263 621.826,342.851 618.818,344.576C615.811,346.3 587.657,337.075 587.71,339.357C587.799,343.629 604.728,345.69 604.401,347.698C604.082,349.706 586.941,343.859 585.251,347.017C583.553,350.175 601.986,350.98 602.49,352.581C602.995,354.182 585.039,354.217 586.366,357.596C587.091,359.436 602.331,357.171 601.915,359.453C601.5,361.744 590.089,365.335 591.116,367.369C592.141,369.404 600.297,363.035 606.479,363.885C612.662,364.742 617.58,362.062 627,366.388C636.42,370.713 667.855,389.986 689.021,392.18C710.179,394.373 756.916,399.335 756.916,399.335L763.125,373.968Z" fill="#F29383"/>
<path d="M777.207,370.58C817.726,372.473 782.098,406.403 782.098,406.403L722.226,397.903C720.421,385.962 723.5,371.713 723.65,368.537C736.077,367.768 767.229,370.12 777.207,370.58Z" fill="#C24C32"/>
<path d="M808.536,364.097C808.536,364.097 825.952,363.787 835.204,373.897C844.464,384.007 820.654,462.826 818.973,475.695C817.292,488.565 827.553,522.786 827.553,522.786C827.553,522.786 772.581,533.869 756.872,523.45C756.872,523.45 755.191,430.895 756.872,421.705C758.552,412.506 772.581,375.118 775.951,371.447C779.321,367.776 808.536,364.097 808.536,364.097Z" fill="#F47458"/>
<path d="M800.743,332.758C800.743,332.758 800.867,333.448 801.08,334.625C802.123,340.268 806.139,358.966 808.855,364.114C812.136,370.323 797.621,390.145 783.664,387.73C779.507,387.014 787.175,369.518 786.804,367.67C786.096,364.123 785.141,359.285 784.159,354.323C783.611,351.527 783.044,348.688 782.523,346.017C781.028,338.437 779.807,332.236 779.807,332.236L800.743,332.758Z" fill="#F7A491"/>
<path d="M801.088,334.625C800.867,333.448 800.752,332.758 800.752,332.758L779.825,332.236C779.825,332.236 781.046,338.437 782.54,346.017C783.062,348.671 783.619,351.492 784.168,354.269C787.396,353.792 790.775,352.217 794.154,349.245C797.842,346.008 800.266,342.116 801.725,337.959C801.46,336.641 801.248,335.5 801.088,334.625Z" fill="#F47458"/>
<path d="M786.662,285.083C786.662,285.083 796.525,283.942 802.707,291.956C808.89,299.97 815.55,324.753 800.195,338.233C784.84,351.704 769.662,336.456 767.415,320.287C765.16,304.109 764.284,284.508 786.662,285.083Z" fill="#F7A491"/>
<path d="M762.869,320.048C764.7,323.622 767.778,325.594 769.742,324.462C771.705,323.33 771.811,319.518 769.981,315.944C768.149,312.371 765.071,310.39 763.108,311.522C761.144,312.663 761.038,316.475 762.869,320.048Z" fill="#F7A491"/>
<path d="M785.557,282.439C785.557,282.439 798.736,306.011 808.165,307.099C817.593,308.187 818.832,320.712 818.832,320.712C818.832,320.712 815.462,291.85 806.13,286.287C796.79,280.723 785.557,282.439 785.557,282.439Z" fill="#13375B"/>
<path d="M805.688,313.016C804.918,317.2 806.466,321.039 809.129,321.587C811.8,322.136 814.586,319.19 815.347,315.007C816.116,310.823 814.568,306.984 811.906,306.436C809.243,305.887 806.457,308.833 805.688,313.016Z" fill="#F7A491"/>
<path d="M785.167,443.985C785.167,443.985 827.712,422.191 837.088,410.569C846.464,398.955 844.412,376.701 832.32,371.358C820.238,366.016 771.077,415.248 771.077,415.248L785.167,443.985Z" fill="#C24C32"/>
<path d="M976.115,138.398C964.359,132.153 950.667,137.743 949.641,154.142C948.615,170.541 960.185,176.316 971.303,175.237C982.412,174.149 993.336,145.279 976.115,138.398Z" fill="#13375B"/>
<circle cx="951.136" cy="165.216" r="5.59" fill="#13375B"/>
<path d="M962.307,170.505C962.307,173.592 959.804,176.095 956.726,176.095C953.639,176.095 951.136,173.592 951.136,170.505C951.136,167.418 953.639,164.915 956.726,164.915C959.804,164.915 962.307,167.418 962.307,170.505Z" fill="#13375B"/>
<path d="M969.631,174.512C969.631,177.599 967.128,180.102 964.041,180.102C960.954,180.102 958.451,177.599 958.451,174.512C958.451,171.425 960.954,168.922 964.041,168.922C967.128,168.931 969.631,171.434 969.631,174.512Z" fill="#13375B"/>
<path d="M954.276,156.008C954.276,159.095 951.773,161.598 948.686,161.598C945.599,161.598 943.096,159.095 943.096,156.008C943.096,152.921 945.599,150.418 948.686,150.418C951.773,150.427 954.276,152.921 954.276,156.008Z" fill="#13375B"/>
<path d="M956.196,146.42C956.196,149.507 953.693,152.001 950.606,152.001C947.519,152.001 945.016,149.498 945.016,146.42C945.016,143.333 947.519,140.83 950.606,140.83C953.692,140.83 956.196,143.333 956.196,146.42Z" fill="#13375B"/>
<path d="M962.652,140.308C962.652,143.395 960.149,145.898 957.063,145.898C953.976,145.898 951.472,143.395 951.472,140.308C951.472,137.221 953.976,134.718 957.063,134.718C960.149,134.727 962.652,137.221 962.652,140.308Z" fill="#13375B"/>
<path d="M971.197,137.77C971.197,140.857 968.693,143.36 965.606,143.36C962.52,143.36 960.017,140.857 960.017,137.77C960.017,134.683 962.52,132.188 965.606,132.188C968.693,132.188 971.197,134.683 971.197,137.77Z" fill="#13375B"/>
<path d="M980.095,138.468C980.095,141.555 977.592,144.058 974.505,144.058C971.418,144.058 968.915,141.555 968.915,138.468C968.915,135.381 971.418,132.887 974.505,132.887C977.592,132.887 980.095,135.381 980.095,138.468Z" fill="#13375B"/>
<path d="M986.729,145.448C986.729,148.534 984.226,151.038 981.139,151.038C978.052,151.038 975.549,148.534 975.549,145.448C975.549,142.361 978.052,139.857 981.139,139.857C984.226,139.866 986.729,142.361 986.729,145.448Z" fill="#13375B"/>
<path d="M986.552,163.243C986.552,166.33 984.049,168.834 980.962,168.834C977.875,168.834 975.372,166.33 975.372,163.243C975.372,160.157 977.875,157.653 980.962,157.653C984.049,157.653 986.552,160.157 986.552,163.243Z" fill="#13375B"/>
<circle cx="975.381" cy="171.619" r="5.59" fill="#13375B"/>
<path d="M988.816,153.823C988.816,156.91 986.313,159.414 983.226,159.414C980.139,159.414 977.636,156.91 977.636,153.823C977.636,150.737 980.139,148.233 983.226,148.233C986.322,148.234 988.816,150.737 988.816,153.823Z" fill="#13375B"/>
<path d="M973.293,173.707C973.293,176.794 970.79,179.297 967.703,179.297C964.616,179.297 962.113,176.794 962.113,173.707C962.113,170.62 964.616,168.117 967.703,168.117C970.79,168.126 973.293,170.629 973.293,173.707Z" fill="#13375B"/>
<path d="M982.43,188.673L1022.356,187.302C1022.356,187.302 1053.473,177.581 1054.437,177.307C1055.401,177.041 1060.169,164.579 1061.434,165.649C1062.699,166.71 1058.674,171.885 1060.301,172.823C1061.929,173.751 1077.116,168.771 1077.09,170.01C1077.036,172.318 1067.908,173.424 1068.085,174.512C1068.253,175.591 1077.505,172.442 1078.416,174.14C1079.327,175.839 1069.385,176.281 1069.12,177.139C1068.846,178.006 1078.54,178.023 1077.815,179.845C1077.425,180.836 1069.2,179.615 1069.421,180.845C1069.642,182.083 1075.807,184.02 1075.25,185.117C1074.692,186.214 1070.297,182.773 1066.962,183.242C1063.627,183.702 1060.974,182.26 1055.888,184.595C1050.802,186.93 1033.846,197.332 1022.427,198.509C1011.008,199.694 985.791,202.374 985.791,202.374L982.43,188.673Z" fill="#F29383"/>
<path d="M974.823,186.851C952.958,187.868 972.179,206.177 972.179,206.177L1004.481,201.595C1005.454,195.156 1003.791,187.461 1003.711,185.745C997.016,185.338 980.21,186.603 974.823,186.851Z" fill="#C24C32"/>
<path d="M957.929,183.348C957.929,183.348 948.535,183.18 943.538,188.638C938.54,194.095 951.392,236.622 952.295,243.565C953.197,250.509 947.669,268.977 947.669,268.977C947.669,268.977 977.326,274.956 985.799,269.34C985.799,269.34 986.711,219.401 985.799,214.438C984.889,209.476 977.326,189.301 975.504,187.32C973.691,185.338 957.929,183.348 957.929,183.348Z" fill="#F47458"/>
<path d="M962.13,166.445C962.13,166.445 962.068,166.817 961.944,167.454C961.378,170.496 959.211,180.588 957.752,183.366C955.983,186.718 963.811,197.412 971.347,196.103C973.593,195.713 969.454,186.276 969.648,185.276C970.029,183.366 970.542,180.757 971.072,178.076C971.373,176.564 971.674,175.034 971.957,173.601C972.762,169.514 973.417,166.171 973.417,166.171L962.13,166.445Z" fill="#BF7154"/>
<path d="M961.945,167.454C962.059,166.817 962.13,166.445 962.13,166.445L973.416,166.162C973.416,166.162 972.762,169.506 971.957,173.592C971.674,175.025 971.373,176.546 971.081,178.05C969.339,177.793 967.517,176.944 965.695,175.343C963.705,173.601 962.396,171.496 961.608,169.258C961.741,168.542 961.856,167.922 961.945,167.454Z" fill="#A85D42"/>
<path d="M969.728,140.724C969.728,140.724 964.403,140.105 961.069,144.43C957.734,148.755 954.134,162.129 962.422,169.4C970.71,176.67 978.9,168.444 980.112,159.714C981.324,150.984 981.802,140.406 969.728,140.724Z" fill="#BF7154"/>
<path d="M982.562,159.582C981.572,161.51 979.909,162.58 978.856,161.961C977.795,161.351 977.742,159.29 978.733,157.37C979.723,155.442 981.386,154.372 982.439,154.991C983.5,155.601 983.553,157.653 982.562,159.582Z" fill="#BF7154"/>
<path d="M970.321,139.291C970.321,139.291 963.209,152.01 958.123,152.594C953.037,153.178 952.374,159.935 952.374,159.935C952.374,159.935 954.196,144.368 959.229,141.361C964.262,138.362 970.321,139.291 970.321,139.291Z" fill="#13375B"/>
<path d="M959.459,155.796C959.875,158.052 959.044,160.13 957.602,160.422C956.16,160.714 954.656,159.131 954.25,156.867C953.834,154.611 954.665,152.541 956.107,152.241C957.54,151.94 959.044,153.532 959.459,155.796Z" fill="#BF7154"/>
<path d="M970.533,226.459C970.533,226.459 947.58,214.695 942.521,208.433C937.462,202.162 938.567,190.159 945.095,187.275C951.614,184.392 978.14,210.954 978.14,210.954L970.533,226.459Z" fill="#C24C32"/>
<path d="M1445.84,304.392C1427.522,294.707 1400.023,299.766 1392.885,335.889C1388.63,357.41 1378.043,380.018 1378.043,380.018C1405.781,392.401 1435.615,392.923 1459.541,388.748C1459.541,388.756 1480.283,318.164 1445.84,304.392Z" fill="#F47458"/>
<path d="M1458.462,404.97L1538.324,402.219C1538.324,402.219 1600.567,382.769 1602.486,382.229C1604.415,381.69 1613.95,356.773 1616.479,358.905C1619.009,361.036 1610.96,371.376 1614.215,373.243C1617.461,375.109 1647.835,365.149 1647.791,367.608C1647.693,372.225 1629.428,374.446 1629.773,376.612C1630.118,378.78 1648.613,372.473 1650.444,375.878C1652.275,379.284 1632.382,380.159 1631.843,381.884C1631.303,383.609 1650.674,383.644 1649.241,387.297C1648.463,389.279 1632.011,386.837 1632.462,389.305C1632.913,391.773 1645.225,395.656 1644.12,397.85C1643.014,400.043 1634.204,393.17 1627.535,394.09C1620.866,395.01 1615.559,392.127 1605.387,396.797C1595.215,401.467 1561.295,422.262 1538.457,424.623C1515.619,426.985 1465.184,432.354 1465.184,432.354L1458.462,404.97Z" fill="#F29383"/>
<path d="M1443.257,401.316C1399.527,403.35 1437.977,439.978 1437.977,439.978L1502.599,430.805C1504.545,417.918 1501.228,402.546 1501.06,399.114C1487.651,398.282 1454.031,400.812 1443.257,401.316Z" fill="#C5DBFC"/>
<path d="M1409.452,394.32C1409.452,394.32 1390.656,393.984 1380.67,404.899C1370.684,415.814 1396.37,500.868 1398.192,514.763C1400.014,528.659 1388.931,565.587 1388.931,565.587C1388.931,565.587 1448.255,577.554 1465.211,566.304C1465.211,566.304 1467.024,466.416 1465.211,456.501C1463.398,446.577 1448.255,406.226 1444.62,402.263C1440.984,398.283 1409.452,394.32 1409.452,394.32Z" fill="#9BC1F9"/>
<path d="M1417.854,360.497C1417.854,360.497 1417.722,361.24 1417.492,362.513C1416.368,368.599 1412.034,388.783 1409.098,394.338C1405.56,401.042 1421.215,422.43 1436.287,419.821C1440.772,419.042 1432.493,400.167 1432.891,398.168C1433.651,394.338 1434.687,389.119 1435.739,383.768C1436.332,380.752 1436.942,377.683 1437.508,374.808C1439.118,366.626 1440.436,359.939 1440.436,359.939L1417.854,360.497Z" fill="#F7A491"/>
<path d="M1417.491,362.513C1417.73,361.249 1417.854,360.497 1417.854,360.497L1440.436,359.931C1440.436,359.931 1439.118,366.618 1437.508,374.799C1436.942,377.665 1436.341,380.708 1435.748,383.706C1432.263,383.193 1428.619,381.495 1424.966,378.284C1420.986,374.79 1418.376,370.589 1416.802,366.104C1417.085,364.689 1417.315,363.46 1417.491,362.513Z" fill="#F5866E"/>
<path d="M1433.059,309.053C1433.059,309.053 1422.418,307.824 1415.74,316.466C1409.071,325.116 1401.88,351.864 1418.447,366.405C1435.023,380.946 1451.395,364.486 1453.827,347.034C1456.26,329.583 1457.206,308.417 1433.059,309.053Z" fill="#F7A491"/>
<path d="M1458.736,346.778C1456.755,350.634 1453.438,352.766 1451.315,351.545C1449.201,350.325 1449.086,346.212 1451.059,342.356C1453.04,338.499 1456.357,336.367 1458.48,337.588C1460.603,338.809 1460.709,342.922 1458.736,346.778Z" fill="#F7A491"/>
<path d="M1434.244,306.188C1434.244,306.188 1420.021,331.626 1409.849,332.794C1399.677,333.97 1398.342,347.485 1398.342,347.485C1398.342,347.485 1401.977,316.342 1412.052,310.336C1422.126,304.339 1434.244,306.188 1434.244,306.188Z" fill="#F47458"/>
<path d="M1412.521,339.189C1413.352,343.709 1411.681,347.849 1408.806,348.441C1405.922,349.034 1402.924,345.85 1402.092,341.339C1401.261,336.819 1402.932,332.679 1405.807,332.087C1408.691,331.494 1411.698,334.678 1412.521,339.189Z" fill="#F7A491"/>
<path d="M1434.669,480.533C1434.669,480.533 1388.754,457.005 1378.635,444.471C1368.517,431.938 1370.737,407.923 1383.774,402.156C1396.821,396.39 1449.874,449.522 1449.874,449.522L1434.669,480.533Z" fill="#C5DBFC"/>
<path d="M1632.409,569.691C1648.71,561.031 1667.709,568.789 1669.125,591.529C1670.549,614.27 1654.495,622.283 1639.087,620.78C1623.678,619.276 1608.536,579.235 1632.409,569.691Z" fill="#F7CC7F"/>
<path d="M1642.245,630.111C1642.245,639.062 1649.506,646.324 1658.458,646.324C1667.409,646.324 1674.671,639.062 1674.671,630.111C1674.671,621.151 1667.409,613.898 1658.458,613.898C1649.506,613.898 1642.245,621.16 1642.245,630.111Z" fill="#F7CC7F"/>
<path d="M1623.661,639.417L1568.291,637.515C1568.291,637.515 1525.136,624.026 1523.8,623.655C1522.465,623.283 1515.849,606.009 1514.097,607.486C1512.346,608.963 1517.918,616.137 1515.672,617.428C1513.425,618.719 1492.356,611.812 1492.392,613.527C1492.462,616.729 1505.12,618.268 1504.881,619.772C1504.642,621.275 1491.816,616.897 1490.552,619.259C1489.287,621.621 1503.076,622.222 1503.448,623.425C1503.819,624.619 1490.393,624.645 1491.383,627.175C1491.923,628.546 1503.333,626.857 1503.023,628.564C1502.714,630.271 1494.169,632.969 1494.939,634.49C1495.708,636.011 1501.811,631.244 1506.437,631.881C1511.063,632.517 1514.743,630.518 1521.792,633.756C1528.842,636.993 1552.37,651.411 1568.202,653.056C1584.035,654.692 1619.008,658.416 1619.008,658.416L1623.661,639.417Z" fill="#F29383"/>
<path d="M1634.205,636.887C1664.525,638.302 1637.866,663.696 1637.866,663.696L1593.066,657.337C1591.722,648.403 1594.021,637.736 1594.127,635.366C1603.424,634.782 1626.73,636.542 1634.205,636.887Z" fill="#96D9C9"/>
<path d="M1657.644,632.04C1657.644,632.04 1670.672,631.81 1677.598,639.372C1684.524,646.944 1666.71,705.914 1665.454,715.546C1664.198,725.178 1671.875,750.785 1671.875,750.785C1671.875,750.785 1630.746,759.081 1618.991,751.28C1618.991,751.28 1617.735,682.023 1618.991,675.142C1620.247,668.26 1630.746,640.283 1633.267,637.533C1635.778,634.791 1657.644,632.04 1657.644,632.04Z" fill="#50BFA5"/>
<path d="M1651.815,608.583C1651.815,608.583 1651.903,609.104 1652.071,609.98C1652.85,614.199 1655.857,628.192 1657.892,632.04C1660.351,636.692 1649.489,651.516 1639.042,649.712C1635.929,649.173 1641.669,636.082 1641.395,634.702C1640.865,632.049 1640.148,628.431 1639.423,624.716C1639.007,622.62 1638.591,620.497 1638.193,618.507C1637.079,612.837 1636.168,608.202 1636.168,608.202L1651.815,608.583Z" fill="#F7A491"/>
<path d="M1652.062,609.98C1651.903,609.104 1651.806,608.583 1651.806,608.583L1636.15,608.193C1636.15,608.193 1637.061,612.828 1638.176,618.498C1638.565,620.479 1638.98,622.593 1639.396,624.672C1641.811,624.318 1644.341,623.142 1646.871,620.913C1649.63,618.489 1651.443,615.579 1652.531,612.474C1652.346,611.492 1652.186,610.635 1652.062,609.98Z" fill="#F47458"/>
<path d="M1641.272,572.911C1641.272,572.911 1648.649,572.053 1653.275,578.05C1657.901,584.047 1662.889,602.595 1651.399,612.678C1639.91,622.762 1628.552,611.352 1626.872,599.243C1625.183,587.151 1624.537,572.478 1641.272,572.911Z" fill="#F7A491"/>
<path d="M1623.466,599.074C1624.837,601.745 1627.137,603.223 1628.606,602.382C1630.074,601.533 1630.153,598.685 1628.782,596.014C1627.411,593.343 1625.103,591.857 1623.634,592.706C1622.166,593.555 1622.096,596.403 1623.466,599.074Z" fill="#F7A491"/>
<path d="M1640.449,570.929C1640.449,570.929 1650.312,588.566 1657.361,589.38C1664.411,590.194 1665.339,599.57 1665.339,599.57C1665.339,599.57 1662.818,577.979 1655.831,573.813C1648.852,569.647 1640.449,570.929 1640.449,570.929Z" fill="#F7CC7F"/>
<path d="M1655.512,593.811C1654.937,596.942 1656.096,599.817 1658.086,600.224C1660.085,600.631 1662.164,598.428 1662.738,595.297C1663.313,592.166 1662.155,589.291 1660.165,588.884C1658.174,588.477 1656.087,590.68 1655.512,593.811Z" fill="#F7A491"/>
<path d="M1640.157,691.814C1640.157,691.814 1671.99,675.504 1679.004,666.809C1686.019,658.115 1684.48,641.468 1675.44,637.47C1666.4,633.472 1629.614,670.312 1629.614,670.312L1640.157,691.814Z" fill="#96D9C9"/>
<path d="M992.619,394.532C992.619,394.532 1010.167,389.844 1010.38,391.259C1014.909,422.235 1016.863,433.424 1017.5,433.734C1019.667,434.777 1047.361,408.092 1052.377,406.199C1054.773,405.297 1057.409,405.367 1059.939,405.376C1065.962,405.394 1067.148,405.385 1067.148,405.385C1067.316,405.394 1067.369,405.394 1067.369,405.394L1067.484,411.055C1060.868,417.335 1054.358,538.574 1053.049,538.547C1051.589,538.521 1024.072,538.371 1025.381,536.071C1025.381,536.071 1032.033,498.736 1037.269,474.12C1039.029,465.859 1043.93,448.584 1043.93,448.584C1037.207,452.184 1010.92,465.983 1006.656,464.364C993.397,459.313 992.619,394.532 992.619,394.532Z" fill="#F47458"/>
<path d="M1044.61,468.265C1047.627,453.414 1055.348,429.046 1057.613,423.518C1062.805,410.825 1067.174,405.447 1067.174,405.447L1087.721,406.058C1087.721,406.058 1088.199,406.19 1088.34,406.208C1090.021,406.473 1090.074,466.319 1089.163,488.688C1088.261,511.066 1083.29,540.184 1083.29,540.184L1077.426,539.627C1077.328,542.643 1077.258,544.633 1077.258,544.633C1047.529,549.878 1030.927,535.222 1030.927,535.222C1030.927,535.222 1040.692,487.52 1044.61,468.265Z" fill="#466EB6"/>
<path d="M1087.721,406.049C1087.721,406.049 1108.038,404.571 1113.23,402.051C1116.379,400.529 1141.968,378.779 1141.968,378.779L1140.199,322.383L1158.543,320.499C1158.543,320.499 1169.715,382.591 1166.593,389.499C1163.364,396.637 1125.861,426.649 1118.537,439.438C1114.318,446.806 1118.325,546.845 1116.954,547.763C1107.189,553.177 1066.139,557.971 1066.776,554.823C1084.404,467.928 1087.721,406.049 1087.721,406.049Z" fill="#F47458"/>
<path d="M1086.66,387.952L1087.721,406.058C1087.721,406.058 1075.038,429.294 1068.139,426.286C1062.345,423.757 1066.971,406.217 1066.971,406.217C1066.971,406.217 1067.856,402.201 1069.111,397.575C1069.987,394.347 1070.695,390.853 1070.571,388.306C1070.253,382.114 1086.66,387.952 1086.66,387.952Z" fill="#F7A491"/>
<path d="M1070.562,388.297C1070.252,382.105 1086.66,387.943 1086.66,387.943L1086.766,389.712C1086.235,390.552 1085.651,391.269 1085.006,391.817C1080.733,395.479 1074.462,397.239 1069.306,396.788C1070.084,393.79 1070.677,390.641 1070.562,388.297Z" fill="#F47458"/>
<path d="M1069.704,347.034C1069.704,347.034 1063.203,357.418 1062.92,366.016C1062.637,374.622 1064.609,380.433 1064.609,380.433L1085.652,353.898L1069.704,347.034Z" fill="#184655"/>
<path d="M1060.629,364.327C1060.399,367.343 1061.637,369.89 1063.389,370.023C1065.14,370.155 1066.75,367.82 1066.971,364.804C1067.201,361.788 1065.963,359.241 1064.212,359.108C1062.46,358.975 1060.859,361.31 1060.629,364.327Z" fill="#F48C7F"/>
<path d="M1092.799,357.878C1093.294,357.763 1093.905,382.759 1086.811,388.836C1079.717,394.912 1067.122,395.752 1063.283,389.924C1059.037,383.476 1062.221,357.029 1072.853,351.156C1083.476,345.274 1092.799,357.878 1092.799,357.878Z" fill="#F7A491"/>
<path d="M1094.232,342.329C1099.892,347.034 1102.661,350.51 1106.632,359.028C1111.515,369.51 1102.67,380.734 1095.125,385.298C1087.58,389.862 1087.085,395.16 1087.085,395.16L1086.687,391.914C1086.501,390.729 1086.519,389.765 1086.705,388.916C1086.917,387.925 1087.35,387.102 1087.722,386.244C1088.341,384.838 1090.305,380.009 1091.092,378.726C1093.161,375.347 1093.568,374.613 1092.419,371.491C1091.534,369.085 1092.348,363.698 1090.968,359.727L1080.602,357.772C1080.602,357.772 1074.109,356.392 1070.757,352.722C1061.125,342.178 1079.301,329.663 1094.232,342.329Z" fill="#184655"/>
<path d="M1090.039,374.295C1088.845,377.072 1089.181,379.885 1090.791,380.584C1092.401,381.282 1094.683,379.593 1095.877,376.816C1097.071,374.038 1096.735,371.226 1095.125,370.527C1093.515,369.828 1091.233,371.517 1090.039,374.295Z" fill="#F7A491"/>
<path d="M0.213,472.687C0.213,472.687 26.677,465.611 26.987,467.751C33.806,514.444 36.769,531.32 37.725,531.78C40.997,533.355 82.746,493.119 90.309,490.27C93.926,488.908 97.898,489.014 101.71,489.023C110.794,489.05 112.581,489.041 112.581,489.041C112.837,489.05 112.917,489.059 112.917,489.059L113.094,497.594C103.116,507.058 93.307,689.85 91.335,689.806C89.132,689.762 47.649,689.542 49.621,686.082C49.621,686.082 59.652,629.792 67.541,592.678C70.186,580.225 77.589,554.176 77.589,554.176C67.444,559.598 27.827,580.402 21.397,577.96C1.372,570.354 0.213,472.687 0.213,472.687Z" fill="#F7CC7F"/>
<path d="M78.589,583.843C83.135,561.447 94.784,524.705 98.19,516.382C106.017,497.25 112.607,489.139 112.607,489.139L143.591,490.059C143.591,490.059 144.308,490.253 144.529,490.289C147.059,490.687 147.138,580.915 145.776,614.641C144.414,648.376 136.922,692.275 136.922,692.275L128.086,691.435C127.944,695.981 127.838,698.979 127.838,698.979C83.011,706.887 57.989,684.782 57.989,684.782C57.989,684.782 72.689,612.872 78.589,583.843Z" fill="#F7CC7F"/>
<path d="M143.582,490.05C143.582,490.05 174.221,487.812 182.041,484.026C186.781,481.727 225.364,448.938 225.364,448.938L222.692,363.919L250.36,361.08C250.36,361.08 267.201,454.687 262.486,465.107C257.622,475.862 201.084,521.114 190.037,540.396C183.677,551.505 189.709,702.314 187.648,703.712C172.921,711.876 111.032,719.092 111.996,714.352C138.585,583.338 143.582,490.05 143.582,490.05Z" fill="#F7CC7F"/>
<path d="M141.99,462.754L143.582,490.05C143.582,490.05 124.459,525.085 114.049,520.548C105.319,516.735 112.288,490.289 112.288,490.289C112.288,490.289 113.624,484.23 115.517,477.26C116.835,472.386 117.905,467.123 117.71,463.285C117.251,453.953 141.99,462.754 141.99,462.754Z" fill="#BF7154"/>
<path d="M117.71,463.285C117.251,453.953 141.981,462.754 141.981,462.754L142.14,465.425C141.344,466.69 140.469,467.769 139.487,468.601C133.048,474.12 123.584,476.773 115.818,476.092C116.994,471.564 117.887,466.823 117.71,463.285Z" fill="#A3573C"/>
<path d="M116.428,401.077C116.428,401.077 106.628,416.733 106.203,429.7C105.779,442.667 108.751,451.432 108.751,451.432L140.478,411.426L116.428,401.077Z" fill="#184655"/>
<path d="M102.745,427.143C102.4,431.69 104.266,435.537 106.911,435.732C109.555,435.935 111.97,432.406 112.315,427.86C112.66,423.313 110.794,419.466 108.149,419.271C105.504,419.068 103.081,422.597 102.745,427.143Z" fill="#A3573C"/>
<path d="M151.242,417.414C151.985,417.237 152.905,454.926 142.211,464.08C131.518,473.235 112.527,474.517 106.743,465.725C100.339,456.005 105.142,416.14 121.169,407.277C137.187,398.423 151.242,417.414 151.242,417.414Z" fill="#BF7154"/>
<path d="M153.391,393.974C161.927,401.068 166.102,406.304 172.081,419.156C179.44,434.954 166.111,451.883 154.736,458.764C143.37,465.646 142.618,473.633 142.618,473.633L142.017,468.742C141.742,466.955 141.769,465.496 142.043,464.231C142.37,462.736 143.016,461.498 143.582,460.206C144.511,458.083 147.474,450.804 148.659,448.867C151.773,443.772 152.383,442.675 150.658,437.952C149.332,434.317 150.543,426.206 148.482,420.218L132.853,417.272C132.853,417.272 123.071,415.194 118.011,409.657C103.488,393.753 130.889,374.887 153.391,393.974Z" fill="#184655"/>
<path d="M147.076,442.171C145.272,446.355 145.776,450.601 148.217,451.653C150.65,452.706 154.081,450.159 155.895,445.975C157.699,441.791 157.195,437.545 154.754,436.493C152.312,435.44 148.881,437.979 147.076,442.171Z" fill="#BF7154"/>
<path d="M672.8,163.809C672.8,163.809 650.961,157.971 650.705,159.731C645.071,198.278 642.629,212.2 641.842,212.581C639.144,213.881 604.675,180.667 598.439,178.315C595.459,177.191 592.177,177.28 589.028,177.289C581.537,177.315 580.051,177.306 580.051,177.306C579.838,177.315 579.776,177.315 579.776,177.315L579.635,184.356C587.87,192.166 595.963,343.045 597.59,343.01C599.412,342.974 633.652,342.789 632.024,339.932C632.024,339.932 623.745,293.469 617.235,262.838C615.051,252.551 608.939,231.058 608.939,231.058C617.306,235.533 650.015,252.711 655.322,250.694C671.836,244.431 672.8,163.809 672.8,163.809Z" fill="#13375B"/>
<path d="M608.098,255.558C604.339,237.072 594.733,206.751 591.92,199.87C585.464,184.081 580.024,177.386 580.024,177.386L554.453,178.137C554.453,178.137 553.86,178.306 553.683,178.332C551.596,178.659 551.534,253.135 552.657,280.979C553.781,308.823 559.963,345.062 559.963,345.062L567.261,344.372C567.384,348.131 567.464,350.598 567.464,350.598C604.463,357.126 625.116,338.879 625.116,338.879C625.116,338.879 612.972,279.52 608.098,255.558Z" fill="#466EB6"/>
<path d="M554.453,178.138C554.453,178.138 529.165,176.298 522.708,173.167C518.798,171.274 486.947,144.2 486.947,144.2L489.15,74.023L466.312,71.679C466.312,71.679 452.416,148.949 456.299,157.547C460.315,166.427 506.981,203.78 516.101,219.692C521.346,228.864 516.366,353.349 518.073,354.499C530.226,361.239 581.315,367.201 580.519,363.283C558.574,255.143 554.453,178.138 554.453,178.138Z" fill="#13375B"/>
<path d="M555.771,155.61L554.453,178.138C554.453,178.138 570.233,207.052 578.83,203.311C586.039,200.171 580.29,178.333 580.29,178.333C580.29,178.333 579.184,173.335 577.627,167.577C576.539,163.552 575.655,159.21 575.814,156.043C576.185,148.348 555.771,155.61 555.771,155.61Z" fill="#F7A491"/>
<path d="M575.805,156.052C576.185,148.348 555.771,155.618 555.771,155.618L555.638,157.821C556.293,158.864 557.018,159.758 557.832,160.448C563.148,165.003 570.958,167.197 577.371,166.63C576.398,162.88 575.664,158.962 575.805,156.052Z" fill="#F47458"/>
<path d="M576.866,104.706C576.866,104.706 584.96,117.629 585.304,128.331C585.649,139.034 583.199,146.269 583.199,146.269L557.018,113.25L576.866,104.706Z" fill="#F47458"/>
<path d="M588.162,126.218C588.445,129.968 586.906,133.144 584.721,133.312C582.536,133.48 580.546,130.57 580.263,126.819C579.98,123.069 581.519,119.894 583.704,119.726C585.888,119.558 587.879,122.459 588.162,126.218Z" fill="#F48C7F"/>
<path d="M548.138,118.186C547.519,118.036 546.767,149.144 555.594,156.707C564.421,164.26 580.095,165.322 584.871,158.069C590.152,150.046 586.189,117.143 572.966,109.828C559.734,102.513 548.138,118.186 548.138,118.186Z" fill="#F7A491"/>
<path d="M546.351,98.842C539.31,104.698 535.861,109.014 530.925,119.628C524.849,132.674 535.852,146.641 545.236,152.319C554.621,157.998 555.24,164.587 555.24,164.587L555.735,160.545C555.965,159.068 555.939,157.865 555.709,156.821C555.444,155.592 554.904,154.566 554.444,153.496C553.675,151.744 551.233,145.73 550.252,144.138C547.678,139.936 547.173,139.025 548.597,135.133C549.694,132.135 548.695,125.439 550.393,120.495L563.289,118.062C563.289,118.062 571.365,116.346 575.54,111.773C587.551,98.656 564.934,83.08 546.351,98.842Z" fill="#F47458"/>
<path d="M551.57,138.618C553.056,142.076 552.64,145.579 550.632,146.446C548.624,147.312 545.785,145.216 544.299,141.758C542.813,138.299 543.229,134.797 545.237,133.93C547.244,133.063 550.084,135.159 551.57,138.618Z" fill="#F7A491"/>
<path d="M798.939,566.012C798.939,566.012 811.756,562.589 811.906,563.615C815.214,586.24 816.647,594.413 817.107,594.643C818.69,595.404 838.919,575.909 842.581,574.53C844.332,573.866 846.26,573.919 848.1,573.928C852.496,573.946 853.372,573.937 853.372,573.937C853.496,573.946 853.531,573.946 853.531,573.946L853.619,578.085C848.781,582.667 844.031,671.233 843.076,671.215C842.006,671.197 821.91,671.082 822.865,669.411C822.865,669.411 827.721,642.132 831.542,624.159C832.825,618.127 836.407,605.505 836.407,605.505C831.489,608.132 812.295,618.215 809.182,617.03C799.505,613.333 798.939,566.012 798.939,566.012Z" fill="#F7CC7F"/>
<path d="M836.92,619.869C839.123,609.016 844.766,591.219 846.42,587.177C850.214,577.908 853.407,573.98 853.407,573.98L868.417,574.423C868.417,574.423 868.762,574.52 868.868,574.538C870.098,574.732 870.133,618.445 869.47,634.79C868.807,651.136 865.18,672.408 865.18,672.408L860.899,672.001C860.828,674.204 860.775,675.654 860.775,675.654C839.061,679.484 826.934,668.782 826.934,668.782C826.934,668.782 834.063,633.932 836.92,619.869Z" fill="#466EB6"/>
<path d="M868.409,574.423C868.409,574.423 883.25,573.344 887.045,571.504C889.345,570.389 908.034,554.504 908.034,554.504L906.743,513.312L920.143,511.941C920.143,511.941 928.298,557.299 926.016,562.349C923.664,567.559 896.262,589.486 890.919,598.826C887.841,604.204 890.76,677.282 889.76,677.954C882.623,681.908 852.638,685.411 853.107,683.111C865.994,619.621 868.409,574.423 868.409,574.423Z" fill="#F7CC7F"/>
<path d="M867.639,561.2L868.408,574.423C868.408,574.423 859.148,591.397 854.097,589.203C849.869,587.355 853.239,574.538 853.239,574.538C853.239,574.538 853.885,571.602 854.805,568.223C855.441,565.861 855.963,563.314 855.866,561.457C855.654,556.937 867.639,561.2 867.639,561.2Z" fill="#F7A491"/>
<path d="M855.875,561.456C855.654,556.937 867.639,561.2 867.639,561.2L867.719,562.491C867.338,563.101 866.905,563.623 866.436,564.03C863.314,566.701 858.732,567.993 854.973,567.657C855.53,565.463 855.963,563.164 855.875,561.456Z" fill="#F47458"/>
<path d="M855.255,531.313C855.255,531.313 850.506,538.893 850.302,545.182C850.099,551.461 851.541,555.707 851.541,555.707L866.913,536.328L855.255,531.313Z" fill="#13375B"/>
<path d="M848.622,543.943C848.454,546.146 849.356,548.012 850.639,548.109C851.921,548.206 853.089,546.499 853.257,544.297C853.425,542.094 852.523,540.228 851.24,540.131C849.958,540.034 848.79,541.741 848.622,543.943Z" fill="#F48C7F"/>
<path d="M872.123,539.228C872.486,539.14 872.928,557.405 867.745,561.836C862.562,566.277 853.363,566.896 850.559,562.632C847.454,557.927 849.781,538.609 857.547,534.31C865.313,530.012 872.123,539.228 872.123,539.228Z" fill="#F7A491"/>
<path d="M873.167,527.871C877.298,531.312 879.323,533.842 882.224,540.069C885.789,547.729 879.332,555.928 873.822,559.263C868.311,562.597 867.948,566.463 867.948,566.463L867.656,564.092C867.524,563.225 867.533,562.517 867.674,561.907C867.833,561.182 868.143,560.58 868.417,559.961C868.868,558.927 870.301,555.406 870.876,554.469C872.389,552.001 872.68,551.47 871.849,549.18C871.203,547.419 871.796,543.483 870.797,540.582L863.225,539.158C863.225,539.158 858.484,538.15 856.034,535.47C848.985,527.766 862.261,518.629 873.167,527.871Z" fill="#13375B"/>
<path d="M870.106,551.222C869.231,553.248 869.478,555.309 870.654,555.813C871.831,556.326 873.494,555.087 874.369,553.062C875.245,551.036 874.997,548.976 873.821,548.471C872.645,547.967 870.973,549.197 870.106,551.222Z" fill="#F7A491"/>
<path d="M1396.494,633.252C1396.494,633.252 1381.024,629.121 1380.847,630.368C1376.858,657.664 1375.133,667.527 1374.567,667.801C1372.657,668.72 1348.253,645.201 1343.83,643.539C1341.717,642.742 1339.39,642.804 1337.17,642.813C1331.863,642.831 1330.819,642.822 1330.819,642.822C1330.669,642.831 1330.625,642.831 1330.625,642.831L1330.519,647.82C1336.356,653.357 1342.088,760.196 1343.238,760.178C1344.529,760.152 1368.773,760.019 1367.624,758.003C1367.624,758.003 1361.759,725.099 1357.151,703.402C1355.603,696.123 1351.278,680.9 1351.278,680.9C1357.204,684.067 1380.369,696.229 1384.119,694.805C1395.813,690.347 1396.494,633.252 1396.494,633.252Z" fill="#F47458"/>
<path d="M1350.676,698.236C1348.014,685.145 1341.212,663.67 1339.222,658.796C1334.649,647.616 1330.793,642.875 1330.793,642.875L1312.687,643.414C1312.687,643.414 1312.271,643.53 1312.138,643.547C1310.661,643.777 1310.617,696.52 1311.413,716.236C1312.209,735.951 1316.587,761.611 1316.587,761.611L1321.753,761.125C1321.841,763.787 1321.894,765.538 1321.894,765.538C1348.093,770.156 1362.723,757.241 1362.723,757.241C1362.723,757.241 1354.126,715.201 1350.676,698.236Z" fill="#466EB6"/>
<path d="M1312.687,643.406C1312.687,643.406 1294.776,642.097 1290.212,639.886C1287.443,638.541 1264.888,619.374 1264.888,619.374L1266.454,569.674L1250.285,568.02C1250.285,568.02 1240.44,622.735 1243.191,628.83C1246.031,635.118 1279.084,661.574 1285.541,672.843C1289.256,679.335 1285.736,767.493 1286.939,768.308C1295.545,773.076 1331.721,777.304 1331.164,774.526C1315.606,697.936 1312.687,643.406 1312.687,643.406Z" fill="#F47458"/>
<path d="M1313.624,627.449L1312.695,643.405C1312.695,643.405 1323.875,663.882 1329.961,661.228C1335.065,658.999 1330.996,643.538 1330.996,643.538C1330.996,643.538 1330.218,640 1329.112,635.922C1328.342,633.074 1327.714,629.996 1327.83,627.758C1328.077,622.31 1313.624,627.449 1313.624,627.449Z" fill="#F7A491"/>
<path d="M1327.812,627.758C1328.077,622.301 1313.625,627.449 1313.625,627.449L1313.536,629.006C1313.996,629.749 1314.518,630.377 1315.084,630.863C1318.852,634.092 1324.38,635.639 1328.917,635.241C1328.228,632.597 1327.706,629.828 1327.812,627.758Z" fill="#F47458"/>
<path d="M1328.563,591.397C1328.563,591.397 1334.295,600.543 1334.543,608.124C1334.791,615.704 1333.048,620.825 1333.048,620.825L1314.509,597.439L1328.563,591.397Z" fill="#184655"/>
<path d="M1336.559,606.637C1336.763,609.29 1335.666,611.546 1334.127,611.661C1332.579,611.776 1331.173,609.715 1330.97,607.061C1330.766,604.408 1331.863,602.152 1333.402,602.038C1334.95,601.914 1336.365,603.975 1336.559,606.637Z" fill="#F48C7F"/>
<path d="M1308.211,600.949C1307.778,600.843 1307.238,622.876 1313.492,628.227C1319.745,633.579 1330.846,634.322 1334.224,629.191C1337.966,623.513 1335.162,600.206 1325.795,595.023C1316.428,589.849 1308.211,600.949 1308.211,600.949Z" fill="#F7A491"/>
<path d="M1306.955,587.249C1301.967,591.397 1299.525,594.457 1296.032,601.967C1291.733,611.201 1299.525,621.099 1306.168,625.123C1312.811,629.148 1313.253,633.809 1313.253,633.809L1313.607,630.952C1313.766,629.909 1313.748,629.06 1313.589,628.316C1313.403,627.441 1313.023,626.715 1312.687,625.964C1312.147,624.725 1310.414,620.462 1309.724,619.339C1307.902,616.358 1307.548,615.721 1308.556,612.961C1309.335,610.839 1308.618,606.098 1309.83,602.595L1318.967,600.87C1318.967,600.87 1324.69,599.65 1327.644,596.421C1336.126,587.116 1320.108,576.086 1306.955,587.249Z" fill="#184655"/>
<path d="M1310.643,615.42C1311.696,617.87 1311.404,620.347 1309.98,620.966C1308.556,621.576 1306.548,620.09 1305.496,617.649C1304.443,615.199 1304.735,612.723 1306.159,612.103C1307.583,611.484 1309.591,612.97 1310.643,615.42Z" fill="#F7A491"/>
<path d="M1057.843,712.804C1057.843,712.804 1077.93,685.968 1085.272,673.267C1092.604,660.565 1080.274,668.835 1067.679,665.492C1062.911,664.227 1066.865,638.178 1057.843,647.271C1043.045,662.175 1028.221,694.468 1028.221,694.468L1057.843,712.804Z" fill="#13375B"/>
<path d="M1060.01,645.493C1073.003,641.557 1097.345,639.496 1097.345,639.496C1097.345,639.496 1112.603,637.019 1117.565,638.09C1124.862,639.673 1138.563,640.389 1139.837,672.072C1140.748,694.742 1143.33,750.829 1145.922,788.694L1053.005,794.338C1057.215,736.058 1047.707,649.217 1060.01,645.493Z" fill="#47637F"/>
<path d="M1084.643,612.422L1099.238,639.258C1099.238,639.258 1088.243,658.85 1077.85,659.371C1069.129,659.813 1070.5,646.909 1070.5,646.909C1070.5,646.909 1069.129,630.236 1064.936,622.762C1060.744,615.288 1084.643,612.422 1084.643,612.422Z" fill="#F7A491"/>
<path d="M1083.317,623.169C1080.044,626.663 1074.569,631.271 1068.634,634.199C1067.767,630.015 1066.573,625.69 1064.937,622.771C1063.008,619.321 1067.06,616.854 1071.977,615.199C1078.576,613.448 1084.652,612.431 1084.652,612.431L1087.456,617.587C1086.731,619.392 1084.405,622.01 1083.317,623.169Z" fill="#F47458"/>
<path d="M1077.143,567.214C1077.744,566.781 1092.135,600.33 1085.891,612.404C1079.646,624.477 1063.159,632.447 1054.827,626.626C1045.61,620.188 1035.536,582.631 1046.645,568.913C1057.764,555.185 1077.143,567.214 1077.143,567.214Z" fill="#F7A491"/>
<path d="M1046.742,548.799C1058.055,548.003 1066.82,552.62 1070.146,554.699C1075.17,553.921 1082.529,554.77 1092.498,564.172C1104.757,575.732 1102.838,592.848 1095.178,603.126C1087.518,613.404 1090.074,622.081 1090.074,622.081L1087.27,617.994C1085.183,614.89 1083.706,611.396 1083.087,607.707C1082.715,605.487 1082.529,603.037 1082.892,600.879C1083.838,595.183 1075.506,593.892 1072.269,590.265C1069.775,587.479 1067.634,580.111 1063.636,575.467L1059.497,572.23C1059.497,572.23 1051.067,568.763 1044.708,572.177C1038.339,575.573 1032.219,549.817 1046.742,548.799Z" fill="#F7CC7F"/>
<path d="M1074.445,596.341C1075.56,600.614 1078.461,603.559 1080.928,602.914C1083.396,602.268 1084.493,598.288 1083.379,594.015C1082.264,589.743 1079.363,586.798 1076.895,587.443C1074.427,588.08 1073.331,592.069 1074.445,596.341Z" fill="#F7A491"/>
<path d="M1062.699,610.193L1049.068,613.236C1049.068,613.236 1050.537,618.34 1056.569,617.172C1063.928,615.757 1062.699,610.193 1062.699,610.193Z" fill="#FFFFFF"/>
<path d="M1106.942,717.51C1106.942,717.51 1131.336,686.508 1137.298,674.329C1143.26,662.158 1136.891,642.885 1125.065,640.603C1113.239,638.321 1078.991,693.938 1078.991,693.938L1106.942,717.51Z" fill="#13375B"/>
<path d="M239.401,233.995C239.401,233.995 227.566,218.18 223.241,210.697C218.916,203.214 226.186,208.088 233.607,206.115C236.42,205.372 234.085,190.026 239.401,195.377C248.113,204.161 256.852,223.186 256.852,223.186L239.401,233.995Z" fill="#96D9C9"/>
<path d="M238.127,194.333C230.467,192.016 216.129,190.795 216.129,190.795C216.129,190.795 207.143,189.335 204.215,189.964C199.916,190.892 191.841,191.317 191.089,209.989C190.55,223.345 189.028,256.39 187.507,278.706L242.249,282.032C239.772,247.695 245.371,196.527 238.127,194.333Z" fill="#50BFA5"/>
<path d="M223.612,174.848L215.015,190.663C215.015,190.663 221.489,202.205 227.619,202.515C232.758,202.771 231.953,195.174 231.953,195.174C231.953,195.174 232.758,185.347 235.226,180.951C237.694,176.537 223.612,174.848 223.612,174.848Z" fill="#F7A491"/>
<path d="M224.4,181.181C226.328,183.242 229.556,185.948 233.05,187.682C233.554,185.214 234.271,182.667 235.235,180.951C236.376,178.916 233.988,177.466 231.087,176.493C227.204,175.458 223.621,174.856 223.621,174.856L221.967,177.899C222.383,178.952 223.754,180.491 224.4,181.181Z" fill="#F47458"/>
<path d="M228.026,148.215C227.672,147.959 219.19,167.727 222.869,174.839C226.549,181.95 236.261,186.647 241.17,183.215C246.601,179.42 252.536,157.299 245.99,149.215C239.445,141.121 228.026,148.215 228.026,148.215Z" fill="#F7A491"/>
<path d="M245.946,137.362C239.277,136.894 234.12,139.609 232.157,140.838C229.194,140.379 224.859,140.883 218.986,146.42C211.76,153.23 212.892,163.314 217.412,169.373C221.932,175.423 220.419,180.544 220.419,180.544L222.064,178.138C223.294,176.307 224.17,174.255 224.532,172.079C224.753,170.77 224.859,169.328 224.647,168.055C224.09,164.694 228.999,163.933 230.909,161.801C232.378,160.156 233.634,155.813 235.995,153.08L238.437,151.17C238.437,151.17 243.408,149.126 247.149,151.134C250.899,153.133 254.499,137.964 245.946,137.362Z" fill="#184655"/>
<path d="M229.627,165.366C228.972,167.887 227.265,169.62 225.806,169.24C224.355,168.86 223.71,166.516 224.364,163.995C225.019,161.474 226.726,159.74 228.185,160.121C229.636,160.51 230.281,162.854 229.627,165.366Z" fill="#F7A491"/>
<path d="M236.535,173.53L244.566,175.326C244.566,175.326 243.7,178.333 240.144,177.643C235.819,176.812 236.535,173.53 236.535,173.53Z" fill="#FFFFFF"/>
<path d="M210.478,236.764C210.478,236.764 196.104,218.499 192.593,211.325C189.081,204.152 192.832,192.795 199.802,191.45C206.772,190.106 226.947,222.877 226.947,222.877L210.478,236.764Z" fill="#96D9C9"/>
<path d="M497.482,391.517C499.021,391.578 503.231,392.994 509.396,404.643C517.268,419.52 528.776,464.462 528.776,464.462L494.43,477.252L490.017,467.876L482.746,395.665C482.755,395.647 497.057,391.499 497.482,391.517Z" fill="#8CA5D2"/>
<path d="M452.08,385.033C461.899,385.042 486.196,387.908 497.473,391.516C497.473,391.516 505.761,462.719 490.017,516.833C486.497,528.942 492.936,567.038 492.936,567.038L391.182,565.693C391.182,565.693 403.238,473.59 398.692,458.712C394.154,443.835 394.039,391.985 394.039,391.985C394.039,391.985 394.738,391.879 416.904,388.049C427.243,386.272 441.599,385.024 452.08,385.033Z" fill="#466EB6"/>
<path d="M392.933,399.911C402.451,396.338 407.103,482.064 408.386,517.356C425.236,518.974 454.601,517.365 461.916,516.816C465.357,516.56 473.282,513.65 476.705,513.208C480.208,512.748 483.383,512.509 485.108,512.81C485.736,512.916 503.302,520.098 504.806,521.672C506.672,523.627 511.705,528.554 510.856,530.685C510.007,532.817 501.17,524.751 501.17,524.751L496.854,522.327C502.232,527.581 512.483,534.498 511.006,537.019C509.564,539.478 500.312,532.454 493.723,527.669C499.375,532.773 506.407,541.919 504.788,543.343C503.337,544.625 495.341,534.038 486.806,530.995C483.639,529.863 480.491,532.994 477.996,533.374C476.165,533.649 473.344,534.241 471.548,533.737L462.305,531.119C459.156,531.402 459.077,533.268 455.893,533.94C452.195,534.728 446.145,535.55 441.44,536.7C414.356,543.316 405.325,546.385 397.038,546.385C371.909,546.359 370.449,408.349 392.933,399.911Z" fill="#F7A491"/>
<path d="M374.881,480.392C373.094,444.251 373.359,399.699 393.623,392.101C401.619,389.102 415.709,407.138 413.18,481.127C402.353,482.02 386.477,482.736 374.881,480.392Z" fill="#8CA5D2"/>
<path d="M474.918,298.069C472.026,297.096 469.169,295.99 466.418,294.663C463.305,293.16 459.271,291.408 456.724,291.01C451.364,290.188 442.147,290.736 437.061,296.255C430.72,303.128 419.46,297.494 421.733,333.502C424.298,374.251 446.959,369.784 447.507,369.095C448.056,368.405 467.718,343.019 467.718,343.019C467.718,343.019 474.591,358.056 474.591,357.508C474.6,356.968 509.697,309.78 474.918,298.069Z" fill="#0E2E35"/>
<path d="M457.715,372.102L459.669,386.661C459.669,386.661 464.048,407.642 458.413,411.684C452.779,415.726 434.443,386.06 434.443,386.06L436.38,349.158L457.715,372.102Z" fill="#F7A491"/>
<path d="M435.752,361.125C440.405,373.712 451.497,381.451 459.378,384.45L457.715,372.102L436.38,349.167L435.752,361.125Z" fill="#F47458"/>
<path d="M456.556,309.01C468.506,307.082 479.217,316.688 478.916,328.646C478.783,333.847 478.359,340.33 477.28,347.327C474.679,364.133 463.216,378.939 455.627,377.621C448.047,376.303 428.959,361.797 432.321,337.88C434.399,323.109 444.022,311.036 456.556,309.01Z" fill="#F7A491"/>
<path d="M437.592,340.728C436.955,344.425 433.992,346.999 430.976,346.469C427.96,345.947 426.04,342.523 426.677,338.826C427.314,335.129 430.277,332.555 433.293,333.086C436.309,333.608 438.229,337.031 437.592,340.728Z" fill="#F7A491"/>
<path d="M433.294,333.086C433.294,333.086 442.466,335.368 445.862,329.468C449.268,323.568 461.43,310.849 476.9,316.121C492.37,321.401 463.287,303.296 462.049,303.296C460.811,303.296 445.96,303.189 445.96,303.189C445.96,303.189 434.514,312.601 434.099,313.635C433.683,314.67 430.384,325.948 430.384,325.948L433.294,333.086Z" fill="#0E2E35"/>
<path d="M450.072,357.693L466.754,360.886C466.754,360.886 465.162,367.166 457.785,365.981C448.79,364.522 450.072,357.693 450.072,357.693Z" fill="#FFFFFF"/>
<path d="M676.497,607.884C677.293,607.919 679.487,608.653 682.689,614.704C686.784,622.434 692.763,645.794 692.763,645.794L674.914,652.445L672.623,647.572L668.846,610.042C668.846,610.033 676.276,607.875 676.497,607.884Z" fill="#FADFAE"/>
<path d="M652.898,604.514C658.002,604.523 670.633,606.008 676.488,607.884C676.488,607.884 680.796,644.891 672.614,673.019C670.783,679.316 674.127,699.112 674.127,699.112L621.242,698.413C621.242,698.413 627.504,650.543 625.151,642.813C622.79,635.082 622.737,608.131 622.737,608.131C622.737,608.131 623.099,608.078 634.616,606.079C639.994,605.159 647.45,604.505 652.898,604.514Z" fill="#F7CC7F"/>
<path d="M622.162,612.245C627.106,610.387 629.53,654.949 630.193,673.285C638.95,674.125 654.216,673.294 658.011,673.002C659.798,672.869 663.919,671.357 665.697,671.127C667.519,670.888 669.173,670.764 670.067,670.923C670.394,670.976 679.522,674.709 680.301,675.531C681.265,676.548 683.883,679.105 683.441,680.219C682.998,681.325 678.408,677.132 678.408,677.132L676.161,675.876C678.956,678.609 684.281,682.201 683.52,683.509C682.768,684.783 677.965,681.139 674.534,678.654C677.47,681.307 681.123,686.057 680.283,686.8C679.531,687.463 675.374,681.962 670.934,680.379C669.288,679.795 667.652,681.413 666.352,681.617C665.397,681.758 663.937,682.068 663,681.802L658.197,680.44C656.56,680.591 656.516,681.555 654.862,681.909C652.943,682.316 649.794,682.749 647.353,683.341C633.28,686.782 628.584,688.374 624.276,688.374C611.229,688.365 610.469,616.632 622.162,612.245Z" fill="#F7A491"/>
<path d="M612.768,654.073C611.84,635.286 611.981,612.138 622.507,608.185C626.664,606.628 633.988,615.995 632.67,654.453C627.053,654.922 618.801,655.293 612.768,654.073Z" fill="#FADFAE"/>
<path d="M664.768,559.316C663.265,558.811 661.779,558.236 660.355,557.546C658.736,556.768 656.64,555.857 655.322,555.654C652.536,555.22 647.75,555.512 645.106,558.378C641.816,561.951 635.96,559.024 637.136,577.74C638.472,598.924 650.245,596.597 650.537,596.235C650.82,595.872 661.045,582.684 661.045,582.684C661.045,582.684 664.618,590.503 664.618,590.211C664.6,589.928 682.848,565.401 664.768,559.316Z" fill="#0E2E35"/>
<path d="M655.826,597.792L656.843,605.363C656.843,605.363 659.125,616.269 656.188,618.374C653.261,620.479 643.726,605.053 643.726,605.053L644.734,585.877L655.826,597.792Z" fill="#BF7154"/>
<path d="M644.407,592.086C646.831,598.632 652.589,602.647 656.684,604.204L655.826,597.791L644.734,585.868L644.407,592.086Z" fill="#96482A"/>
<path d="M655.225,565.003C661.434,564.004 667.006,568.992 666.847,575.21C666.776,577.917 666.555,581.287 665.998,584.922C664.645,593.661 658.683,601.356 654.747,600.666C650.802,599.976 640.887,592.44 642.638,580.013C643.709,572.327 648.706,566.056 655.225,565.003Z" fill="#BF7154"/>
<path d="M645.371,581.489C645.035,583.409 643.496,584.744 641.931,584.47C640.365,584.196 639.365,582.418 639.702,580.499C640.038,578.579 641.577,577.244 643.142,577.518C644.699,577.783 645.699,579.561 645.371,581.489Z" fill="#BF7154"/>
<path d="M643.133,577.51C643.133,577.51 647.901,578.695 649.67,575.625C651.439,572.556 657.763,565.949 665.803,568.691C673.843,571.433 658.727,562.022 658.082,562.022C657.436,562.022 649.723,561.969 649.723,561.969C649.723,561.969 643.77,566.86 643.558,567.4C643.346,567.939 641.63,573.794 641.63,573.794L643.133,577.51Z" fill="#0E2E35"/>
<path d="M651.855,590.3L660.523,591.954C660.523,591.954 659.691,595.218 655.861,594.598C651.191,593.855 651.855,590.3 651.855,590.3Z" fill="#FFFFFF"/>
<path d="M1438.136,225.707L1465.83,228.537C1465.83,228.537 1467.104,205.832 1467.104,195.005C1467.104,181.871 1465.99,164.941 1464.397,165.313C1459.939,166.339 1453.942,168.798 1450.378,173.698C1438.022,190.663 1438.136,225.707 1438.136,225.707Z" fill="#B75742"/>
<path d="M1451.74,192.679C1451.156,196.686 1440.516,305.587 1440.516,305.587C1490.941,329.937 1518.759,309.921 1518.759,309.921C1518.759,309.921 1517.105,233.446 1519.086,223.036C1520.395,216.145 1522.023,170.39 1517.565,169.107C1511.842,167.462 1505.27,165.72 1498.114,164.977C1492.002,164.34 1468.271,163.977 1464.026,165.401C1464.026,165.41 1454.181,175.83 1451.74,192.679Z" fill="#F47458"/>
<path d="M1491.375,143.935L1494.621,165.357C1494.621,165.357 1482.751,190.866 1475.666,188.655C1469.722,186.798 1473.375,164.234 1473.375,164.234C1473.375,164.234 1476.612,152.116 1475.648,146.048C1474.684,139.972 1491.375,143.935 1491.375,143.935Z" fill="#F7A491"/>
<path d="M1475.648,146.039C1474.675,139.972 1491.375,143.934 1491.375,143.934L1491.649,145.712C1491.162,146.897 1490.561,147.915 1489.835,148.702C1486.103,152.717 1480.274,155.123 1475.241,155.309C1475.745,152.027 1476.046,148.525 1475.648,146.039Z" fill="#F47458"/>
<path d="M1494.117,113.622C1494.586,113.454 1497.903,138.017 1491.613,144.783C1485.334,151.541 1473.092,153.761 1468.696,148.427C1463.84,142.536 1464.088,116.134 1473.853,109.173C1483.626,102.23 1494.117,113.622 1494.117,113.622Z" fill="#F7A491"/>
<path d="M1477.576,96.038C1485.13,97.577 1490.013,102.194 1491.817,104.158C1495.249,104.565 1499.901,106.458 1504.713,114.427C1510.63,124.219 1506.261,135.072 1499.371,140.396C1492.48,145.721 1492.577,151.868 1492.577,151.868L1491.489,148.684C1490.685,146.278 1490.357,143.722 1490.623,141.192C1490.782,139.68 1491.109,138.035 1491.737,136.69C1493.391,133.134 1488.182,130.773 1486.713,127.81C1485.59,125.528 1485.537,120.318 1483.759,116.559L1481.645,113.684C1481.645,113.684 1476.754,109.881 1471.977,110.951C1467.201,112.03 1467.891,94.066 1477.576,96.038Z" fill="#0E2E35"/>
<path d="M1487.041,132.188C1486.988,135.186 1488.35,137.636 1490.083,137.672C1491.817,137.698 1493.259,135.292 1493.303,132.294C1493.356,129.295 1491.994,126.845 1490.26,126.81C1488.535,126.783 1487.094,129.189 1487.041,132.188Z" fill="#F7A491"/>
<path d="M1476.842,139.113L1467.369,138.627C1467.369,138.627 1467.405,142.236 1471.562,142.572C1476.63,142.979 1476.842,139.113 1476.842,139.113Z" fill="#FFFFFF"/>
<path d="M1568.698,306.746C1568.733,306.516 1568.733,306.277 1568.707,306.047C1567.964,298.502 1561.702,235.171 1560.649,232.483C1559.694,230.05 1531.611,189.885 1531.611,189.885L1517.813,208.689L1544.825,244.715C1545.435,247.006 1555.174,289.754 1555.174,289.754C1555.174,289.754 1557.173,297.547 1558.067,302.217C1557.659,303.34 1557.261,304.402 1556.899,305.277C1556.005,307.144 1554.953,308.665 1553.989,309.956C1552.777,311.575 1550.787,315.113 1550.539,316.059C1550.256,317.156 1549.734,319.447 1549.442,320.827C1549.15,322.207 1548.752,323.817 1548.682,324.56C1548.637,325.02 1548.169,325.922 1547.806,326.568C1547.267,327.523 1548.186,328.655 1549.23,328.31C1550.212,327.983 1550.973,326.718 1551.45,325.922C1552.777,323.684 1553.485,319.606 1553.821,319.828C1554.148,320.04 1555.315,326.965 1555.502,327.744C1555.687,328.531 1557.085,336.562 1557.872,338.031C1558.659,339.499 1559.703,339.251 1559.977,338.331C1560.216,337.535 1559.11,326.293 1559.11,326.293C1559.11,326.293 1558.969,324.86 1559.597,325.311C1560.225,325.763 1561.251,335.97 1561.684,337.465C1562.118,338.959 1563.117,339.747 1563.966,338.553C1564.992,337.093 1563.223,326.267 1563.223,326.267C1563.223,326.267 1563.029,324.905 1563.604,325.028C1564.187,325.152 1564.913,333.856 1565.364,334.608C1565.815,335.359 1566.956,335.634 1567.504,334.378C1568.15,332.901 1566.487,323.251 1566.487,323.251C1566.487,323.251 1566.567,322.481 1566.929,322.737C1567.292,322.994 1568.442,330.362 1569.194,331.043C1569.822,331.618 1570.353,331.061 1570.353,331.061C1571.733,330.123 1569.618,323.109 1569.636,319.624C1569.654,316.139 1568.044,312.221 1568.521,308.072C1568.565,307.789 1568.645,307.144 1568.698,306.746Z" fill="#F8A492"/>
<path d="M1553.564,215.323L1529.576,231.43C1529.576,231.43 1516.052,211.307 1508.799,204.143C1499.707,195.174 1512.107,167.684 1517.972,169.24C1531.062,172.716 1553.564,215.323 1553.564,215.323Z" fill="#F47458"/>
<path d="M1683.083,416.273C1690.203,394.674 1698.163,395.594 1698.163,395.594L1692.007,441.004C1687.611,439.801 1681.88,437.121 1677.493,435.883C1678.952,429.054 1681.331,421.589 1683.083,416.273Z" fill="#47637F"/>
<path d="M1685.294,360.099C1687.47,345.893 1700.33,335.677 1713.766,342.568C1716.791,344.116 1720.887,347.264 1722.974,349.944C1728.617,357.189 1730.058,366.14 1735.896,373.171C1733.756,374.799 1731.164,376.497 1728.077,378.134L1724.451,373.295L1725.698,379.337C1716.676,383.653 1703.93,387.218 1686.497,387.12C1684.303,377.258 1684.126,367.679 1685.294,360.099Z" fill="#F7CC7F"/>
<path d="M1716.393,391.71C1716.393,391.71 1727.954,390.198 1733.145,395.867C1738.338,401.537 1723.195,447.072 1722.248,454.281C1721.302,461.498 1728.873,479.586 1728.873,479.586C1728.873,479.586 1695.819,485.804 1687.01,479.958C1687.01,479.958 1686.488,429.16 1687.425,424.004C1688.371,418.847 1696.235,397.884 1698.119,395.823C1700.012,393.771 1716.393,391.71 1716.393,391.71Z" fill="#13375B"/>
<path d="M1712.023,374.144C1712.023,374.144 1712.094,374.534 1712.209,375.188C1712.793,378.346 1715.048,388.836 1716.57,391.719C1718.41,395.204 1710.272,406.314 1702.444,404.961C1700.109,404.554 1704.417,394.753 1704.204,393.709C1703.806,391.719 1703.275,389.004 1702.728,386.227C1702.417,384.661 1702.099,383.069 1701.808,381.574C1700.967,377.329 1700.286,373.853 1700.286,373.853L1712.023,374.144Z" fill="#F7A491"/>
<g opacity="0.5">
<path d="M1712.209,375.188C1712.085,374.534 1712.023,374.144 1712.023,374.144L1700.295,373.853C1700.295,373.853 1700.976,377.329 1701.816,381.574C1702.108,383.06 1702.417,384.643 1702.727,386.2C1704.541,385.935 1706.433,385.05 1708.326,383.387C1710.396,381.574 1711.75,379.389 1712.572,377.063C1712.421,376.32 1712.307,375.675 1712.209,375.188Z" fill="#F47458"/>
</g>
<path d="M1704.125,347.415C1704.125,347.415 1709.653,346.778 1713.12,351.271C1716.588,355.764 1720.32,369.66 1711.714,377.214C1703.099,384.768 1694.59,376.214 1693.334,367.148C1692.069,358.082 1691.583,347.087 1704.125,347.415Z" fill="#F7A491"/>
<path d="M1690.787,367.015C1691.812,369.014 1693.538,370.129 1694.643,369.492C1695.74,368.855 1695.802,366.723 1694.775,364.716C1693.749,362.717 1692.025,361.602 1690.919,362.239C1689.813,362.867 1689.76,365.007 1690.787,367.015Z" fill="#F7A491"/>
<path d="M1703.506,345.929C1703.506,345.929 1710.892,359.143 1716.181,359.753C1721.47,360.364 1722.16,367.387 1722.16,367.387C1722.16,367.387 1720.267,351.209 1715.04,348.087C1709.804,344.965 1703.506,345.929 1703.506,345.929Z" fill="#F7CC7F"/>
<path d="M1714.792,363.07C1714.358,365.414 1715.225,367.573 1716.72,367.882C1718.215,368.192 1719.78,366.538 1720.205,364.194C1720.638,361.85 1719.771,359.692 1718.277,359.382C1716.782,359.072 1715.225,360.726 1714.792,363.07Z" fill="#F7A491"/>
<path d="M1708.282,371.598L1700.286,373.172C1700.286,373.172 1701.064,376.171 1704.603,375.578C1708.919,374.862 1708.282,371.598 1708.282,371.598Z" fill="#FFFFFF"/>
<path d="M1731.058,394.294C1731.058,394.294 1735.419,396.364 1739.257,405.297C1742.902,413.788 1743.972,456.174 1743.972,456.174L1728.069,453.547L1722.16,433.999C1720.33,426.26 1718.277,408.402 1725.911,397.956C1727.936,395.178 1729.82,393.498 1731.058,394.294Z" fill="#47637F"/>
<path d="M317.724,625.362C318.069,617.003 316.839,608.751 313.098,600.967C309.878,594.271 301.918,590.477 294.656,590.459C271.597,590.432 268.669,620.895 253.995,632.641C249.511,636.232 244.496,639.151 240.259,643.025C224.594,657.319 231.652,683.783 246.035,696.325C256.021,705.02 271.712,709.965 284.015,703.163C290.437,699.616 295.31,693.716 298.787,687.25C303.713,678.078 306.897,667.491 310.4,657.708C314.133,647.306 317.264,636.471 317.724,625.362Z" fill="#F7CC7F"/>
<path d="M309.1,702.296C309.1,702.296 291.878,684.642 287.447,676.973C283.016,669.304 290.463,674.293 298.07,672.276C300.954,671.515 300.219,654.63 305.668,660.114C314.601,669.118 325.835,684.863 325.835,684.863L309.1,702.296Z" fill="#F47458"/>
<path d="M284.617,652.374C284.617,652.374 269.164,649.323 262.115,655.213C255.065,661.104 263.627,713.485 263.619,722.162C263.61,730.848 258.78,753.526 258.78,753.526C258.78,753.526 305.615,763.583 313.053,750.545C313.053,750.545 315.167,700.88 314.858,694.636C314.539,688.391 307.596,662.847 305.677,660.114C303.757,657.38 284.617,652.374 284.617,652.374Z" fill="#B75742"/>
<path d="M284.519,628.475C284.519,628.475 284.44,628.935 284.289,629.722C283.591,633.49 280.893,646.006 279.071,649.446C276.868,653.603 286.615,666.862 295.991,665.244C298.786,664.757 293.63,653.064 293.877,651.826C294.355,649.455 294.992,646.218 295.655,642.901C296.027,641.026 296.398,639.133 296.752,637.346C297.751,632.278 298.574,628.13 298.574,628.13L284.519,628.475Z" fill="#F7A491"/>
<path d="M284.289,629.722C284.44,628.935 284.519,628.475 284.519,628.475L298.574,628.121C298.574,628.121 297.751,632.27 296.752,637.338C296.398,639.116 296.027,641 295.655,642.857C293.488,642.539 291.215,641.486 288.942,639.496C286.465,637.329 284.838,634.728 283.856,631.951C284.042,631.066 284.183,630.306 284.289,629.722Z" fill="#F47458"/>
<path d="M293.984,596.58C293.984,596.58 287.359,595.819 283.201,601.18C279.044,606.54 274.569,623.115 284.891,632.129C295.204,641.141 305.402,630.943 306.915,620.126C308.427,609.308 309.011,596.191 293.984,596.58Z" fill="#F7A491"/>
<path d="M304.315,593.865C304.315,593.865 291.401,612.369 279.097,609.892L278.752,601.993L279.885,599.004L286.112,595.006L296.239,592.697L304.315,593.865Z" fill="#F7CC7F"/>
<path d="M309.966,619.966C308.737,622.355 306.667,623.681 305.349,622.921C304.031,622.16 303.961,619.613 305.19,617.224C306.42,614.836 308.489,613.51 309.807,614.27C311.125,615.031 311.196,617.578 309.966,619.966Z" fill="#F7A491"/>
<path d="M281.202,615.269C281.715,618.073 280.681,620.638 278.885,621.001C277.089,621.372 275.223,619.4 274.71,616.596C274.197,613.792 275.232,611.227 277.028,610.864C278.814,610.493 280.681,612.465 281.202,615.269Z" fill="#F7A491"/>
<path d="M297.973,626.175L288.252,625.671C288.252,625.671 288.287,629.377 292.551,629.722C297.752,630.137 297.973,626.175 297.973,626.175Z" fill="#FFFFFF"/>
<path d="M297.973,626.175L288.252,625.671C288.252,625.671 288.287,629.377 292.551,629.722C297.752,630.137 297.973,626.175 297.973,626.175Z" fill="#FFFFFF"/>
<path d="M267.935,701.677C267.935,701.677 257.798,679.192 256.251,670.471C254.711,661.75 262.194,650.8 270.031,651.499C277.868,652.206 289.623,691.019 289.623,691.019L267.935,701.677Z" fill="#F47458"/>
</svg>
