<svg width="122" height="104" viewBox="0 0 122 104" fill="none" xmlns="http://www.w3.org/2000/svg" xmlns:xlink="http://www.w3.org/1999/xlink">
<path d="M17.984,69.352L19.454,67.995L18.168,66.602L16.708,67.811L17.984,69.352ZM1.805,82.757L0.529,81.216L-0.195,81.816L-0.195,82.757L1.805,82.757ZM1.805,98.83L-0.195,98.83L-0.195,103.131L3.093,100.36L1.805,98.83ZM26.21,78.264L27.499,79.794L29.099,78.445L27.68,76.908L26.21,78.264ZM16.708,67.811L0.529,81.216L3.081,84.297L19.26,70.892L16.708,67.811ZM-0.195,82.757L-0.195,98.83L3.805,98.83L3.805,82.757L-0.195,82.757ZM3.093,100.36L27.499,79.794L24.921,76.735L0.516,97.301L3.093,100.36ZM27.68,76.908L19.454,67.995L16.514,70.708L24.74,79.621L27.68,76.908Z" fill="#000000"/>
<path d="M104.292,29.048L104.292,27.048L102.292,27.048L102.292,29.048L104.292,29.048ZM118.075,29.048L120.075,29.048L120.075,27.048L118.075,27.048L118.075,29.048ZM118.075,44.281L118.075,46.281L120.075,46.281L120.075,44.281L118.075,44.281ZM104.292,44.281L102.292,44.281L102.292,46.281L104.292,46.281L104.292,44.281ZM104.292,31.048L118.075,31.048L118.075,27.048L104.292,27.048L104.292,31.048ZM116.075,29.048L116.075,44.281L120.075,44.281L120.075,29.048L116.075,29.048ZM118.075,42.281L104.292,42.281L104.292,46.281L118.075,46.281L118.075,42.281ZM106.292,44.281L106.292,29.048L102.292,29.048L102.292,44.281L106.292,44.281Z" fill="#000000"/>
<path d="M104.292,18.573L104.292,16.573L102.292,16.573L102.292,18.573L104.292,18.573ZM113.165,18.573L115.165,18.573L115.165,16.573L113.165,16.573L113.165,18.573ZM113.165,26.512L113.165,28.512L115.165,28.512L115.165,26.512L113.165,26.512ZM104.292,26.512L102.292,26.512L102.292,28.512L104.292,28.512L104.292,26.512ZM104.292,20.573L113.165,20.573L113.165,16.573L104.292,16.573L104.292,20.573ZM111.165,18.573L111.165,26.512L115.165,26.512L115.165,18.573L111.165,18.573ZM113.165,24.512L104.292,24.512L104.292,28.512L113.165,28.512L113.165,24.512ZM106.292,26.512L106.292,18.573L102.292,18.573L102.292,26.512L106.292,26.512Z" fill="#000000"/>
<path d="M101.623,15.954L103.622,15.941L103.61,13.988L101.657,13.954L101.623,15.954ZM87.226,16.503L87.413,18.494L87.413,18.494L87.226,16.503ZM62.031,25.163L60.51,26.461L61.614,27.754L63.068,26.873L62.031,25.163ZM46.343,19.414L46.696,17.446L46.695,17.446L46.343,19.414ZM43.556,19.597L44.152,21.506L44.159,21.504L43.556,19.597ZM32.305,23.108L31.221,24.789L32.007,25.295L32.9,25.017L32.305,23.108ZM1.874,3.494L2.957,1.813L-0.126,-0.175L-0.126,3.494L1.874,3.494ZM1.874,8.557L-0.126,8.557L-0.126,9.647L0.79,10.238L1.874,8.557ZM31.671,27.765L30.587,29.446L31.374,29.953L32.267,29.674L31.671,27.765ZM44.828,23.66L45.423,25.569L45.436,25.565L44.828,23.66ZM45.589,23.606L45.943,21.637L45.926,21.635L45.589,23.606ZM56.247,26.395L55.338,28.177L55.428,28.223L55.523,28.26L56.247,26.395ZM60.891,32.538L62.891,32.545L62.891,32.538L60.891,32.538ZM60.867,39.309L58.867,39.301L58.867,39.302L60.867,39.309ZM59.809,41.842L58.399,40.424L58.398,40.425L59.809,41.842ZM57.274,42.887L57.267,44.887L57.274,44.887L57.274,42.887ZM54.739,41.83L53.321,43.24L53.321,43.24L54.739,41.83ZM53.696,39.291L51.696,39.285L51.696,39.285L53.696,39.291ZM53.718,30.783L55.718,30.789L55.731,25.731L52.263,29.412L53.718,30.783ZM52.054,32.55L50.598,31.178L50.585,31.193L52.054,32.55ZM35.488,42.454L35.6,40.457L35.594,40.457L35.488,42.454ZM26.056,38.942L27.662,37.75L26.4,36.049L24.774,37.407L26.056,38.942ZM22.775,41.683L21.493,40.148L19.915,41.466L21.276,43.007L22.775,41.683ZM35.575,46.764L35.469,48.761L35.472,48.761L35.575,46.764ZM36.817,46.763L38.074,48.319L42.774,44.525L36.738,44.765L36.817,46.763ZM24.927,56.363L23.806,58.02L25.032,58.849L26.184,57.92L24.927,56.363ZM21.4,51.788L19.494,52.393L19.494,52.394L21.4,51.788ZM21.373,46.292L19.408,45.922L19.406,45.928L21.373,46.292ZM21.639,44.884L23.604,45.255L23.853,43.936L22.727,43.206L21.639,44.884ZM1.874,32.069L2.962,30.391L-0.126,28.389L-0.126,32.069L1.874,32.069ZM1.874,37.138L-0.126,37.138L-0.126,38.224L0.784,38.815L1.874,37.138ZM16.968,46.944L18.928,47.343L19.199,46.009L18.058,45.267L16.968,46.944ZM21.531,59.082L22.808,60.621L24.846,58.93L22.662,57.433L21.531,59.082ZM16.421,63.321L15.144,61.782L13.503,63.144L14.967,64.694L16.421,63.321ZM31.832,79.642L30.378,81.015L31.644,82.357L33.083,81.203L31.832,79.642ZM43.152,70.565L44.236,68.884L43.025,68.103L41.901,69.004L43.152,70.565ZM44.013,71.12L42.929,72.801L42.93,72.801L44.013,71.12ZM48.508,71.851L48.926,73.806L48.928,73.806L48.508,71.851ZM52.081,69.276L53.761,70.361L53.762,70.36L52.081,69.276ZM52.464,64.217L53.55,62.538L48.892,59.525L50.556,64.817L52.464,64.217ZM52.944,64.527L51.858,66.207L51.86,66.208L52.944,64.527ZM57.291,65.321L57.709,67.277L57.713,67.276L57.291,65.321ZM60.927,62.806L59.248,61.72L59.246,61.723L60.927,62.806ZM61.719,58.457L59.762,58.872L59.764,58.878L61.719,58.457ZM61.498,57.709L62.325,55.888L58.016,53.933L59.616,58.385L61.498,57.709ZM68.331,55.696L70.012,56.78L70.012,56.78L68.331,55.696ZM69.079,51.647L68.046,49.934L66.834,50.665L67.12,52.051L69.079,51.647ZM81.876,47.56L81.54,45.588L81.54,45.588L81.876,47.56ZM101.825,46.532L101.754,48.531L103.839,48.605L103.825,46.519L101.825,46.532ZM49.609,67.662L51.291,68.745L51.47,68.467L51.55,68.147L49.609,67.662ZM47.625,69.033L48.045,70.988L48.045,70.988L47.625,69.033ZM45.249,68.598L46.334,66.917L46.334,66.917L45.249,68.598ZM41.195,65.982L42.28,64.301L42.278,64.3L41.195,65.982ZM39.82,63.997L37.865,64.418L37.866,64.42L39.82,63.997ZM40.253,61.626L41.932,62.711L41.933,62.711L40.253,61.626ZM44.612,60.686L45.696,59.005L45.696,59.005L44.612,60.686ZM48.666,63.302L49.751,61.621L49.751,61.621L48.666,63.302ZM49.609,67.662L47.928,66.578L47.749,66.856L47.669,67.177L49.609,67.662ZM58.728,61.381L60.567,60.593L59.084,57.134L57.047,60.298L58.728,61.381ZM56.744,62.753L56.326,60.797L56.317,60.799L56.744,62.753ZM54.371,62.321L55.455,60.64L55.455,60.64L54.371,62.321ZM46.336,57.136L47.42,55.455L47.419,55.455L46.336,57.136ZM45.392,52.777L47.072,53.862L47.073,53.862L45.392,52.777ZM49.752,51.838L48.667,53.519L48.667,53.519L49.752,51.838ZM57.787,57.023L56.702,58.704L56.704,58.705L57.787,57.023ZM59.159,59.008L57.203,59.426L57.205,59.432L59.159,59.008ZM58.728,61.381L56.89,62.169L58.373,65.628L60.41,62.463L58.728,61.381ZM65.469,53.843L67.149,54.928L67.469,54.432L67.469,53.843L65.469,53.843ZM61.32,54.738L60.236,56.418L60.237,56.419L61.32,54.738ZM55.335,50.876L56.42,49.195L56.418,49.194L55.335,50.876ZM54.439,46.727L52.759,45.643L52.758,45.644L54.439,46.727ZM58.588,45.835L59.672,44.154L59.672,44.154L58.588,45.835ZM64.573,49.697L65.658,48.017L65.657,48.016L64.573,49.697ZM65.469,53.843L63.788,52.759L63.469,53.254L63.469,53.843L65.469,53.843ZM101.657,13.954C97.152,13.877 92.176,14.029 87.039,14.511L87.413,18.494C92.392,18.026 97.22,17.878 101.588,17.954L101.657,13.954ZM87.039,14.511C75.447,15.599 65.856,20.504 60.994,23.452L63.068,26.873C67.68,24.076 76.671,19.502 87.413,18.494L87.039,14.511ZM63.552,23.864C61.392,21.334 58.292,19.528 46.696,17.446L45.989,21.383C57.532,23.455 59.341,25.092 60.51,26.461L63.552,23.864ZM46.695,17.446C45.443,17.222 44.152,17.311 42.952,17.69L44.159,21.504C44.748,21.318 45.384,21.275 45.991,21.383L46.695,17.446ZM42.96,17.688L31.709,21.198L32.9,25.017L44.152,21.506L42.96,17.688ZM33.388,21.427L2.957,1.813L0.79,5.175L31.221,24.789L33.388,21.427ZM-0.126,3.494L-0.126,8.557L3.874,8.557L3.874,3.494L-0.126,3.494ZM0.79,10.238L30.587,29.446L32.755,26.084L2.958,6.876L0.79,10.238ZM32.267,29.674L45.423,25.569L44.232,21.751L31.075,25.856L32.267,29.674ZM45.436,25.565C45.413,25.573 45.382,25.579 45.347,25.582C45.312,25.584 45.28,25.582 45.252,25.577L45.926,21.635C45.364,21.538 44.783,21.575 44.219,21.755L45.436,25.565ZM45.235,25.574C51.401,26.682 54.121,27.556 55.338,28.177L57.156,24.614C55.36,23.697 52.114,22.746 45.943,21.637L45.235,25.574ZM55.523,28.26C56.354,28.583 57.232,29.223 57.892,30.05C58.553,30.878 58.891,31.758 58.891,32.538L62.891,32.538C62.891,30.63 62.089,28.897 61.019,27.556C59.949,26.213 58.505,25.127 56.971,24.531L55.523,28.26ZM58.891,32.531L58.867,39.301L62.867,39.316L62.891,32.545L58.891,32.531ZM58.867,39.302C58.865,39.731 58.701,40.123 58.399,40.424L61.219,43.261C62.277,42.209 62.862,40.8 62.867,39.315L58.867,39.302ZM58.398,40.425C58.096,40.726 57.705,40.887 57.283,40.887L57.283,44.887C58.763,44.887 60.169,44.307 61.221,43.259L58.398,40.425ZM57.283,40.887L57.274,40.887L57.274,44.887L57.283,44.887L57.283,40.887ZM57.281,40.887C56.849,40.885 56.457,40.721 56.158,40.42L53.321,43.24C54.372,44.297 55.782,44.881 57.267,44.887L57.281,40.887ZM56.158,40.42C55.856,40.116 55.695,39.724 55.696,39.296L51.696,39.285C51.692,40.775 52.272,42.185 53.321,43.24L56.158,40.42ZM55.696,39.296L55.718,30.789L51.718,30.778L51.696,39.285L55.696,39.296ZM52.263,29.412L50.598,31.178L53.509,33.921L55.174,32.155L52.263,29.412ZM50.585,31.193C47.609,34.413 44.749,36.814 42.151,38.368C39.533,39.934 37.326,40.554 35.6,40.457L35.375,44.451C38.195,44.61 41.208,43.593 44.204,41.801C47.221,39.997 50.372,37.318 53.523,33.907L50.585,31.193ZM35.594,40.457C29.183,40.115 27.483,37.509 27.662,37.75L24.45,40.134C24.94,40.794 27.714,44.043 35.381,44.451L35.594,40.457ZM24.774,37.407L21.493,40.148L24.057,43.218L27.338,40.477L24.774,37.407ZM21.276,43.007C22.794,44.726 27.244,48.323 35.469,48.761L35.681,44.767C28.611,44.39 25.139,41.338 24.274,40.359L21.276,43.007ZM35.472,48.761C35.97,48.787 36.452,48.779 36.897,48.762L36.738,44.765C36.356,44.78 36.007,44.784 35.678,44.767L35.472,48.761ZM35.561,45.207L23.671,54.807L26.184,57.92L38.074,48.319L35.561,45.207ZM24.927,56.363C26.048,54.707 26.049,54.707 26.049,54.708C26.049,54.708 26.05,54.708 26.05,54.708C26.05,54.709 26.051,54.709 26.051,54.709C26.052,54.71 26.053,54.71 26.054,54.711C26.055,54.712 26.055,54.712 26.056,54.712C26.056,54.712 26.053,54.71 26.049,54.707C26.04,54.701 26.022,54.688 25.996,54.669C25.945,54.631 25.862,54.569 25.757,54.485C25.546,54.314 25.251,54.058 24.932,53.729C24.276,53.052 23.62,52.169 23.306,51.182L19.494,52.394C20.067,54.196 21.175,55.6 22.06,56.513C22.512,56.98 22.933,57.345 23.244,57.597C23.401,57.723 23.532,57.822 23.628,57.893C23.676,57.928 23.716,57.957 23.746,57.978C23.761,57.989 23.774,57.997 23.784,58.004C23.789,58.008 23.793,58.011 23.797,58.013C23.799,58.015 23.801,58.016 23.802,58.017C23.803,58.017 23.804,58.018 23.804,58.018C23.805,58.019 23.805,58.019 23.805,58.019C23.806,58.019 23.806,58.02 24.927,56.363ZM23.307,51.183C23.177,50.775 23.094,50.053 23.106,49.133C23.117,48.248 23.212,47.343 23.34,46.657L19.406,45.928C19.237,46.843 19.12,47.975 19.106,49.082C19.093,50.153 19.172,51.378 19.494,52.393L23.307,51.183ZM23.338,46.663L23.604,45.255L19.673,44.514L19.408,45.922L23.338,46.663ZM22.727,43.206L2.962,30.391L0.785,33.747L20.551,46.563L22.727,43.206ZM-0.126,32.069L-0.126,37.138L3.874,37.138L3.874,32.069L-0.126,32.069ZM0.784,38.815L15.879,48.622L18.058,45.267L2.963,35.461L0.784,38.815ZM15.009,46.546C14.772,47.708 14.517,50.094 15.096,52.755C15.684,55.457 17.151,58.504 20.4,60.732L22.662,57.433C20.437,55.907 19.428,53.851 19.005,51.905C18.572,49.917 18.772,48.111 18.928,47.343L15.009,46.546ZM20.254,57.543L15.144,61.782L17.699,64.861L22.808,60.621L20.254,57.543ZM14.967,64.694L30.378,81.015L33.286,78.269L17.876,61.948L14.967,64.694ZM33.083,81.203L44.403,72.125L41.901,69.004L30.581,78.082L33.083,81.203ZM42.068,72.245L42.929,72.801L45.097,69.439L44.236,68.884L42.068,72.245ZM42.93,72.801C44.292,73.678 45.927,73.981 47.282,73.981L47.282,69.981C46.439,69.981 45.626,69.779 45.096,69.438L42.93,72.801ZM47.282,73.981C47.832,73.981 48.383,73.923 48.926,73.806L48.089,69.895C47.818,69.953 47.547,69.981 47.282,69.981L47.282,73.981ZM48.928,73.806C51.036,73.353 52.684,72.028 53.761,70.361L50.401,68.191C49.804,69.115 48.997,69.7 48.088,69.895L48.928,73.806ZM53.762,70.36C55.184,68.155 54.96,65.486 54.372,63.617L50.556,64.817C50.965,66.117 50.914,67.396 50.4,68.192L53.762,70.36ZM51.378,65.896L51.858,66.207L54.03,62.848L53.55,62.538L51.378,65.896ZM51.86,66.208C53.126,67.024 54.579,67.452 56.064,67.452L56.064,63.452C55.354,63.452 54.652,63.249 54.027,62.846L51.86,66.208ZM56.064,67.452C56.615,67.452 57.166,67.393 57.709,67.277L56.873,63.366C56.601,63.424 56.33,63.452 56.064,63.452L56.064,67.452ZM57.713,67.276C59.74,66.839 61.485,65.633 62.608,63.889L59.246,61.723C58.698,62.573 57.86,63.153 56.869,63.366L57.713,67.276ZM62.606,63.892C63.733,62.149 64.111,60.062 63.674,58.035L59.764,58.878C59.978,59.872 59.795,60.874 59.248,61.72L62.606,63.892ZM63.675,58.041C63.595,57.663 63.484,57.32 63.381,57.033L59.616,58.385C59.687,58.584 59.734,58.739 59.762,58.872L63.675,58.041ZM60.672,59.53C61.656,59.977 62.701,60.193 63.737,60.193L63.737,56.193C63.258,56.193 62.777,56.093 62.325,55.888L60.672,59.53ZM63.737,60.193C66.178,60.193 68.584,58.993 70.012,56.78L66.651,54.612C65.993,55.631 64.882,56.193 63.737,56.193L63.737,60.193ZM70.012,56.78C71.116,55.067 71.415,53.075 71.038,51.243L67.12,52.051C67.298,52.916 67.155,53.83 66.65,54.612L70.012,56.78ZM70.112,53.36C71.694,52.405 75.284,50.714 82.213,49.531L81.54,45.588C74.217,46.838 70.134,48.675 68.046,49.934L70.112,53.36ZM82.212,49.531C86.281,48.837 91.151,48.582 95.052,48.506C96.993,48.468 98.673,48.474 99.868,48.49C100.465,48.498 100.939,48.508 101.263,48.516C101.425,48.521 101.549,48.524 101.632,48.527C101.674,48.528 101.705,48.529 101.725,48.53C101.736,48.53 101.743,48.53 101.748,48.53C101.75,48.531 101.752,48.531 101.753,48.531C101.754,48.531 101.754,48.531 101.754,48.531C101.754,48.531 101.754,48.531 101.754,48.531C101.754,48.531 101.754,48.531 101.825,46.532C101.897,44.533 101.896,44.533 101.896,44.533C101.896,44.533 101.896,44.533 101.896,44.533C101.895,44.533 101.894,44.533 101.893,44.533C101.892,44.533 101.889,44.533 101.886,44.533C101.88,44.533 101.87,44.532 101.859,44.532C101.835,44.531 101.8,44.53 101.755,44.529C101.666,44.526 101.534,44.522 101.365,44.518C101.026,44.509 100.535,44.499 99.921,44.49C98.692,44.474 96.967,44.468 94.974,44.507C91.009,44.584 85.904,44.844 81.54,45.588L82.212,49.531ZM103.825,46.519L103.622,15.941L99.623,15.967L99.825,46.545L103.825,46.519ZM47.928,66.579C47.761,66.839 47.512,67.011 47.205,67.077L48.045,70.988C49.386,70.7 50.545,69.902 51.291,68.745L47.928,66.579ZM47.206,67.077C46.901,67.143 46.597,67.087 46.334,66.917L44.165,70.278C45.316,71.021 46.701,71.276 48.045,70.988L47.206,67.077ZM46.334,66.917L42.28,64.301L40.111,67.662L44.165,70.278L46.334,66.917ZM42.278,64.3C42.016,64.131 41.841,63.88 41.775,63.573L37.866,64.42C38.156,65.761 38.957,66.919 40.112,67.663L42.278,64.3ZM41.775,63.575C41.709,63.27 41.764,62.972 41.932,62.711L38.573,60.54C37.827,61.694 37.576,63.077 37.865,64.418L41.775,63.575ZM41.933,62.711C42.278,62.176 42.994,62.022 43.528,62.366L45.696,59.005C43.303,57.462 40.114,58.154 38.573,60.541L41.933,62.711ZM43.528,62.366L47.582,64.982L49.751,61.621L45.696,59.005L43.528,62.366ZM47.581,64.982C48.117,65.328 48.27,66.048 47.928,66.578L51.291,68.745C52.83,66.356 52.139,63.164 49.751,61.621L47.581,64.982ZM47.669,67.177L47.669,67.177L51.55,68.147L51.55,68.147L47.669,67.177ZM57.047,60.298C56.878,60.56 56.627,60.733 56.326,60.797L57.162,64.709C58.507,64.421 59.666,63.619 60.41,62.463L57.047,60.298ZM56.317,60.799C56.019,60.864 55.72,60.811 55.455,60.64L53.286,64.001C54.436,64.743 55.821,65.002 57.171,64.707L56.317,60.799ZM55.455,60.64L47.42,55.455L45.251,58.816L53.286,64.001L55.455,60.64ZM47.419,55.455C46.883,55.109 46.731,54.391 47.072,53.862L43.712,51.691C42.168,54.083 42.863,57.276 45.252,58.817L47.419,55.455ZM47.073,53.862C47.417,53.329 48.134,53.174 48.667,53.519L50.836,50.158C48.447,48.616 45.255,49.303 43.712,51.691L47.073,53.862ZM48.667,53.519L56.702,58.704L58.871,55.343L50.836,50.158L48.667,53.519ZM56.704,58.705C56.966,58.874 57.139,59.124 57.203,59.426L61.115,58.591C60.828,57.245 60.025,56.086 58.869,55.342L56.704,58.705ZM57.205,59.432C57.27,59.734 57.216,60.036 57.047,60.298L60.41,62.463C61.151,61.313 61.405,59.929 61.114,58.584L57.205,59.432ZM60.567,60.593L60.567,60.593L56.89,62.169L56.89,62.169L60.567,60.593ZM63.789,52.759C63.488,53.224 62.87,53.358 62.404,53.057L60.237,56.419C62.558,57.916 65.651,57.25 67.149,54.928L63.789,52.759ZM62.405,53.057L56.42,49.195L54.251,52.557L60.236,56.418L62.405,53.057ZM56.418,49.194C55.954,48.896 55.819,48.278 56.12,47.811L52.758,45.644C51.261,47.966 51.928,51.062 54.253,52.558L56.418,49.194ZM56.119,47.812C56.417,47.351 57.037,47.215 57.504,47.516L59.672,44.154C57.351,42.658 54.255,43.324 52.759,45.643L56.119,47.812ZM57.503,47.516L63.488,51.377L65.657,48.016L59.672,44.154L57.503,47.516ZM63.488,51.377C63.954,51.678 64.085,52.298 63.788,52.759L67.15,54.927C68.646,52.607 67.975,49.513 65.658,48.017L63.488,51.377ZM63.469,53.843L63.469,53.843L67.469,53.843L67.469,53.843L63.469,53.843Z" fill="#000000"/>
<path d="M109.728,58.094L111.124,59.525L114.725,56.013L109.696,56.094L109.728,58.094ZM92.213,75.179L90.816,73.748L87.298,77.179L92.213,77.179L92.213,75.179ZM107.131,75.179L108.45,76.683L112.442,73.179L107.131,73.179L107.131,75.179ZM77.199,101.444L75.506,100.38L78.518,102.947L77.199,101.444ZM89.817,81.357L91.511,82.421L93.435,79.357L89.817,79.357L89.817,81.357ZM79.082,81.357L77.277,80.497L75.914,83.357L79.082,83.357L79.082,81.357ZM90.016,58.411L89.983,56.411L88.743,56.431L88.21,57.55L90.016,58.411ZM108.331,56.662L90.816,73.748L93.609,76.611L111.124,59.525L108.331,56.662ZM92.213,77.179L107.131,77.179L107.131,73.179L92.213,73.179L92.213,77.179ZM105.812,73.676L75.88,99.941L78.518,102.947L108.45,76.683L105.812,73.676ZM78.893,102.508L91.511,82.421L88.124,80.293L75.506,100.38L78.893,102.508ZM89.817,79.357L79.082,79.357L79.082,83.357L89.817,83.357L89.817,79.357ZM80.888,82.218L91.821,59.271L88.21,57.55L77.277,80.497L80.888,82.218ZM90.048,60.41L109.76,60.093L109.696,56.094L89.983,56.411L90.048,60.41Z" fill="#000000"/>
</svg>
