<svg width="130" height="176" viewBox="0 0 130 176" fill="none" xmlns="http://www.w3.org/2000/svg" xmlns:xlink="http://www.w3.org/1999/xlink">
<path d="M37.556,37.464C37.556,39.792 38.481,42.026 40.127,43.672C41.773,45.318 44.007,46.243 46.335,46.243C48.663,46.243 50.897,45.318 52.543,43.672C54.189,42.026 55.114,39.792 55.114,37.464C55.114,35.137 54.189,32.902 52.543,31.256C50.897,29.611 48.663,28.685 46.335,28.685C44.007,28.685 41.773,29.61 40.127,31.256C38.481,32.902 37.556,35.137 37.556,37.464ZM46.335,34.538C47.519,34.538 48.586,35.251 49.038,36.345C49.491,37.438 49.242,38.696 48.405,39.534C47.567,40.371 46.309,40.621 45.216,40.167C44.122,39.715 43.409,38.648 43.409,37.464C43.409,35.848 44.719,34.538 46.335,34.538Z" fill="#000000"/>
<path d="M31.702,37.464C31.702,35.136 30.777,32.902 29.131,31.256C27.485,29.611 25.251,28.685 22.923,28.685C20.596,28.685 18.361,29.61 16.716,31.256C15.07,32.902 14.145,35.137 14.145,37.464C14.145,39.792 15.069,42.026 16.716,43.672C18.362,45.318 20.596,46.243 22.923,46.243C25.251,46.243 27.486,45.318 29.131,43.672C30.777,42.026 31.702,39.792 31.702,37.464ZM22.923,40.391C21.74,40.391 20.672,39.677 20.22,38.584C19.767,37.49 20.016,36.232 20.854,35.395C21.691,34.557 22.949,34.308 24.043,34.761C25.136,35.213 25.85,36.281 25.85,37.464C25.85,38.24 25.541,38.985 24.993,39.534C24.444,40.082 23.699,40.391 22.923,40.391Z" fill="#000000"/>
<path d="M60.966,37.464C60.966,39.792 61.891,42.026 63.537,43.672C65.183,45.318 67.417,46.243 69.745,46.243C72.072,46.243 74.307,45.318 75.953,43.672C77.598,42.026 78.524,39.792 78.524,37.464C78.524,35.137 77.599,32.902 75.953,31.256C74.307,29.611 72.072,28.685 69.745,28.685C67.417,28.685 65.183,29.61 63.537,31.256C61.891,32.902 60.966,35.137 60.966,37.464ZM69.745,34.538C70.929,34.538 71.996,35.251 72.448,36.345C72.901,37.438 72.652,38.696 71.814,39.534C70.977,40.371 69.719,40.621 68.625,40.167C67.532,39.715 66.819,38.648 66.819,37.464C66.819,35.848 68.129,34.538 69.745,34.538Z" fill="#000000"/>
<path d="M34.629,25.759C36.569,25.759 38.431,24.988 39.803,23.617C41.175,22.245 41.945,20.383 41.945,18.443C41.945,16.503 41.174,14.642 39.803,13.27C38.431,11.898 36.569,11.127 34.629,11.127C32.689,11.127 30.828,11.898 29.456,13.27C28.084,14.641 27.313,16.503 27.313,18.443C27.313,20.383 28.084,22.245 29.456,23.617C30.827,24.989 32.689,25.759 34.629,25.759ZM34.629,16.98C35.221,16.98 35.754,17.337 35.981,17.883C36.207,18.43 36.082,19.06 35.664,19.478C35.246,19.896 34.616,20.021 34.069,19.795C33.523,19.568 33.166,19.035 33.166,18.443C33.166,17.635 33.821,16.98 34.629,16.98L34.629,16.98Z" fill="#000000"/>
<path d="M58.039,25.759C59.979,25.759 61.84,24.988 63.212,23.617C64.584,22.245 65.355,20.383 65.355,18.443C65.355,16.503 64.584,14.642 63.212,13.27C61.841,11.898 59.979,11.127 58.039,11.127C56.099,11.127 54.237,11.898 52.865,13.27C51.494,14.641 50.723,16.503 50.723,18.443C50.723,20.383 51.494,22.245 52.865,23.617C54.237,24.989 56.099,25.759 58.039,25.759ZM58.039,16.98C58.631,16.98 59.164,17.337 59.391,17.883C59.617,18.43 59.492,19.06 59.074,19.478C58.655,19.896 58.026,20.021 57.479,19.795C56.932,19.568 56.576,19.035 56.576,18.443C56.576,17.635 57.23,16.98 58.039,16.98L58.039,16.98Z" fill="#000000"/>
<path d="M58.039,46.244C55.711,46.244 53.477,47.169 51.831,48.815C50.185,50.462 49.26,52.696 49.26,55.023C49.26,57.351 50.185,59.585 51.831,61.231C53.477,62.877 55.711,63.802 58.039,63.802C60.366,63.802 62.601,62.877 64.247,61.231C65.892,59.585 66.818,57.351 66.818,55.023C66.818,52.696 65.893,50.461 64.247,48.815C62.601,47.17 60.366,46.244 58.039,46.244ZM58.039,57.95C56.855,57.95 55.788,57.237 55.336,56.143C54.882,55.05 55.132,53.792 55.969,52.954C56.807,52.117 58.065,51.867 59.158,52.321C60.252,52.773 60.965,53.84 60.965,55.023C60.965,55.799 60.657,56.544 60.108,57.093C59.559,57.642 58.815,57.95 58.039,57.95Z" fill="#000000"/>
<path d="M34.629,46.244C32.301,46.244 30.067,47.169 28.421,48.815C26.776,50.462 25.85,52.696 25.85,55.023C25.85,57.351 26.775,59.585 28.421,61.231C30.067,62.877 32.301,63.802 34.629,63.802C36.957,63.802 39.191,62.877 40.837,61.231C42.483,59.585 43.408,57.351 43.408,55.023C43.408,52.696 42.483,50.461 40.837,48.815C39.191,47.17 36.957,46.244 34.629,46.244ZM34.629,57.95C33.446,57.95 32.378,57.237 31.926,56.143C31.473,55.05 31.722,53.792 32.56,52.954C33.397,52.117 34.655,51.867 35.749,52.321C36.842,52.773 37.556,53.84 37.556,55.023C37.556,55.799 37.247,56.544 36.699,57.093C36.15,57.642 35.405,57.95 34.629,57.95Z" fill="#000000"/>
<path d="M87.303,93.065C79.56,93.075 71.977,95.28 65.436,99.423C58.895,103.567 53.661,109.48 50.343,116.476L40.481,116.476C38.153,116.476 35.919,115.551 34.273,113.905C32.627,112.258 31.702,110.024 31.702,107.697L31.702,73.129C34.729,74.15 37.855,74.849 41.029,75.213C42.817,75.409 44.615,75.506 46.412,75.505C51.357,75.504 56.271,74.715 60.966,73.164L60.966,90.137C60.966,91.753 62.276,93.063 63.892,93.063C65.508,93.063 66.819,91.753 66.819,90.137L66.819,70.823C78.157,65.298 86.79,55.436 90.768,43.467C94.744,31.497 93.729,18.431 87.952,7.22C86.72,4.851 84.859,2.871 82.572,1.495C80.286,0.118 77.663,-0.599 74.995,-0.579L17.676,-0.579C15,-0.597 12.372,0.125 10.08,1.506C7.79,2.888 5.926,4.876 4.694,7.252C-1.078,18.453 -2.086,31.509 1.896,43.465C5.877,55.421 14.513,65.264 25.849,70.766L25.849,107.699C25.852,111.07 27.019,114.338 29.151,116.949C31.283,119.562 34.251,121.359 37.554,122.038L37.554,172.077C37.554,172.853 37.862,173.598 38.411,174.146C38.96,174.695 39.704,175.003 40.48,175.003L52.186,175.003C52.962,175.003 53.706,174.695 54.255,174.146C54.804,173.598 55.112,172.853 55.112,172.077L55.112,166.224C55.112,164.608 53.802,163.298 52.186,163.298C50.57,163.298 49.259,164.608 49.259,166.224L49.259,169.15L43.407,169.15L43.407,122.329L48.06,122.329C44.759,133.4 46.286,145.353 52.267,155.238C58.246,165.125 68.123,172.026 79.462,174.243C90.802,176.458 102.549,173.784 111.812,166.877C121.074,159.97 126.99,149.473 128.1,137.973C129.21,126.471 125.414,115.038 117.645,106.486C109.876,97.934 98.856,93.06 87.302,93.065L87.303,93.065ZM5.709,34.083C4.617,25.795 6.077,17.372 9.897,9.936C10.638,8.518 11.756,7.333 13.129,6.51C14.501,5.687 16.075,5.259 17.676,5.275L74.996,5.275C76.589,5.258 78.158,5.681 79.528,6.498C80.897,7.316 82.014,8.495 82.756,9.908C86.91,17.975 88.269,27.191 86.622,36.113C84.974,45.036 80.412,53.159 73.652,59.21C64.959,67.056 53.303,70.769 41.673,69.397C32.611,68.333 24.161,64.285 17.65,57.892C11.14,51.498 6.94,43.123 5.711,34.083L5.709,34.083ZM87.303,169.15C77.989,169.15 69.057,165.45 62.472,158.865C55.886,152.279 52.186,143.347 52.186,134.034C52.186,124.72 55.886,115.788 62.472,109.203C69.058,102.617 77.989,98.917 87.303,98.917C96.616,98.917 105.548,102.617 112.134,109.203C118.719,115.789 122.419,124.72 122.419,134.034C122.409,143.345 118.706,152.27 112.123,158.854C105.539,165.437 96.614,169.14 87.303,169.15Z" fill="#000000"/>
<path d="M99.009,128.181L93.546,128.181L96.059,108.06C96.229,106.688 95.417,105.385 94.112,104.933C92.805,104.483 91.362,105.005 90.649,106.189L73.09,135.452C72.548,136.357 72.533,137.483 73.052,138.401C73.571,139.318 74.544,139.886 75.599,139.886L81.062,139.886L78.549,160.008C78.379,161.38 79.191,162.682 80.496,163.134C81.803,163.585 83.246,163.062 83.96,161.879L101.518,132.615C102.06,131.711 102.076,130.585 101.556,129.666C101.037,128.749 100.064,128.181 99.009,128.181ZM86.075,146.978L87.28,137.321C87.384,136.487 87.125,135.651 86.57,135.023C86.014,134.394 85.216,134.034 84.378,134.034L80.767,134.034L88.533,121.09L87.327,130.747C87.224,131.58 87.483,132.416 88.038,133.045C88.593,133.673 89.392,134.034 90.23,134.034L93.841,134.034L86.075,146.978Z" fill="#000000"/>
</svg>
