<svg width="136" height="90" viewBox="0 0 136 90" fill="none" xmlns="http://www.w3.org/2000/svg" xmlns:xlink="http://www.w3.org/1999/xlink">
<g opacity="0.78">
<path d="M131.624,24.212L115.54,24.212C114.52,24.096 113.543,23.75 112.688,23.202C111.833,22.654 111.125,21.919 110.621,21.058C102.078,7.744 85.763,-0.587 67.988,-0.587C49.587,-0.587 32.971,8.146 24.627,22.204L24.55,22.351C24.393,22.936 24.023,23.447 23.508,23.793C22.993,24.139 22.366,24.297 21.741,24.238L4.271,24.238C3.133,24.244 2.044,24.684 1.244,25.461C0.443,26.238 -0.004,27.289 0,28.383L0,56.062C-0.001,56.601 0.108,57.136 0.323,57.635C0.537,58.133 0.851,58.587 1.248,58.968C1.645,59.35 2.116,59.652 2.635,59.858C3.154,60.064 3.709,60.169 4.271,60.168L18.817,60.168C19.438,60.212 20.037,60.404 20.561,60.727C21.085,61.05 21.517,61.494 21.817,62.018C22.011,62.314 22.364,62.719 22.741,63.202C23.395,64.054 24.242,65.129 24.82,65.977C29.47,72.945 35.887,78.662 43.466,82.591C51.045,86.519 59.539,88.531 68.149,88.436C85.426,88.436 101.049,81.22 109.938,69.085C110.169,68.752 110.485,68.307 110.862,67.827C112.332,65.918 113.644,63.902 114.786,61.796C115.555,60.464 116.094,60.205 117.171,60.205L131.639,60.205C132.776,60.209 133.869,59.779 134.678,59.009C135.486,58.239 135.943,57.193 135.95,56.099L135.95,28.42C135.958,27.869 135.854,27.323 135.641,26.812C135.429,26.301 135.113,25.836 134.712,25.444C134.31,25.051 133.832,24.739 133.305,24.526C132.777,24.313 132.211,24.202 131.639,24.201M22.663,25.385L22.663,25.312C23.381,25.221 24.054,24.927 24.596,24.465C25.138,24.004 25.523,23.397 25.704,22.723C33.862,9.069 50.023,0.597 67.956,0.597C85.264,0.597 101.24,8.655 109.554,21.687C110.161,22.723 111.022,23.601 112.061,24.245C113.1,24.89 114.287,25.282 115.519,25.387L131.602,25.387C132.239,25.39 132.858,25.584 133.373,25.942L129.365,29.532C128.959,29.294 128.494,29.166 128.019,29.162L7.794,29.162C7.301,29.161 6.818,29.303 6.41,29.569L3.13,25.61C3.476,25.491 3.84,25.428 4.207,25.424L22.648,25.424L22.663,25.385ZM34.283,74.963C32.727,73.738 31.321,72.348 30.093,70.818C29.016,69.56 27.976,68.19 26.975,66.895C25.937,65.527 25.013,64.231 24.283,63.159C23.435,61.864 22.825,60.939 22.705,60.68C22.333,60.197 22.119,59.619 22.092,59.019C22.064,58.419 22.224,57.825 22.55,57.313C23.752,56.002 25.272,54.997 26.975,54.389L35.402,59.119L35.017,59.748L27.821,55.894C33.399,71.175 49.37,82.171 68.149,82.171C76.6,82.266 84.876,79.856 91.852,75.268C98.828,70.68 104.165,64.137 107.138,56.53L100.827,59.711L100.634,59.415C100.598,59.309 100.545,59.209 100.479,59.119L100.44,59.082L109.136,54.272L114.677,58.527C112.906,62.856 107.936,70.264 101.171,69.479C97.119,74.069 92.043,77.72 86.319,80.161C80.596,82.602 74.374,83.769 68.116,83.576C61.718,83.637 55.373,82.449 49.466,80.083C43.56,77.717 38.214,74.223 33.753,69.812L29.635,68.517C30.917,70.833 32.48,72.994 34.292,74.955L34.292,74.955M99.438,60.489C94.743,73.291 80.082,78.139 67.961,78.358C55.84,78.135 41.217,73.326 36.484,60.489C36.331,60.119 36.369,59.897 36.446,59.823C36.491,59.794 36.545,59.781 36.599,59.786L99.36,59.786C99.437,59.786 99.513,59.786 99.513,59.823C99.577,60.046 99.55,60.284 99.437,60.489M129.412,31.583L129.412,50.417C129.413,50.588 129.379,50.756 129.312,50.914C129.245,51.071 129.145,51.215 129.02,51.335C128.895,51.455 128.746,51.551 128.582,51.615C128.419,51.68 128.243,51.713 128.066,51.712L7.834,51.712C7.657,51.713 7.482,51.68 7.318,51.615C7.154,51.551 7.005,51.455 6.88,51.335C6.755,51.215 6.656,51.071 6.588,50.914C6.521,50.756 6.487,50.588 6.488,50.417L6.488,31.611C6.492,31.269 6.635,30.942 6.887,30.701C7.139,30.459 7.479,30.321 7.834,30.317L128.046,30.317C128.223,30.316 128.399,30.349 128.562,30.413C128.726,30.478 128.875,30.574 129,30.694C129.125,30.814 129.225,30.957 129.292,31.115C129.359,31.272 129.393,31.441 129.392,31.611Z" fill="#434343"/>
<path d="M36.848,28.245L100.378,28.245C102.61,28.245 101.686,26.431 101.147,25.47C103.451,25.835 105.6,26.823 107.341,28.318C101.763,11.889 86.331,3.968 68.17,3.968C49.738,3.968 34.578,13.587 29.036,28.758C30.809,27.456 32.838,26.512 35.001,25.983C34.936,26.251 34.935,26.53 34.998,26.799C35.061,27.068 35.185,27.32 35.362,27.537C35.54,27.753 35.765,27.929 36.022,28.05C36.279,28.172 36.561,28.236 36.848,28.239M37.001,24.946C42.388,11.514 54.548,6.963 67.974,6.963C81.866,6.963 95.911,11.329 100.374,24.946C100.391,25.047 100.416,25.146 100.451,25.242C100.451,25.205 100.413,25.095 100.374,24.946C100.568,25.76 100.489,26.093 99.527,26.093L38.074,26.093C37.42,26.13 36.573,25.944 36.997,24.946Z" fill="#434343"/>
<path d="M29.189,44.82L24.033,32.5L16.337,32.5L16.337,48.743L21.032,48.743L21.032,35.867L26.458,48.743L33.927,48.743L33.927,32.5L29.191,32.5L29.189,44.82Z" fill="#434343"/>
<line x1="38.822" y1="32.5" x2="38.822" y2="48.743" stroke="#010101" stroke-width="1.335" stroke-miterlimit="10"/>
<path d="M86.219,32.5L80.177,48.743L85.025,48.743L86.102,45.819L93.106,45.819L91.797,42.23L87.41,42.23L89.597,36.124L94.215,48.738L99.063,48.738L93.098,32.495L86.219,32.5Z" fill="#434343"/>
<path d="M55.51,38.752L50.469,38.752L50.469,36.124L59.974,36.124L59.974,32.498L50.278,32.498C49.635,32.436 48.986,32.516 48.38,32.732C47.775,32.947 47.228,33.293 46.783,33.743C46.337,34.192 46.004,34.734 45.81,35.326C45.615,35.918 45.563,36.545 45.659,37.16C45.659,38.787 45.929,42.415 51.354,42.415L56.472,42.415L56.472,45.043L46.122,45.043L46.122,48.743L56.627,48.743C57.292,48.728 57.947,48.585 58.553,48.322C59.16,48.059 59.705,47.682 60.157,47.213C60.609,46.743 60.959,46.192 61.185,45.59C61.412,44.989 61.51,44.35 61.475,43.711C61.513,40.53 59.744,38.754 55.51,38.754Z" fill="#434343"/>
<path d="M113.653,44.82L108.497,32.5L100.845,32.5L100.845,48.743L105.54,48.743L105.54,35.867L110.965,48.743L118.392,48.743L118.392,32.5L113.655,32.5L113.653,44.82Z" fill="#434343"/>
<path d="M73.365,38.752L68.324,38.752L68.324,36.124L77.829,36.124L77.829,32.498L68.132,32.498C67.488,32.435 66.837,32.514 66.229,32.728C65.62,32.943 65.071,33.288 64.622,33.737C64.173,34.187 63.837,34.728 63.638,35.321C63.44,35.914 63.384,36.543 63.475,37.16C63.475,38.787 63.783,42.415 69.171,42.415L74.327,42.415L74.327,45.043L63.967,45.043L63.967,48.743L74.473,48.743C75.138,48.728 75.793,48.585 76.399,48.322C77.005,48.059 77.551,47.682 78.003,47.213C78.455,46.743 78.804,46.192 79.031,45.59C79.257,44.989 79.356,44.35 79.321,43.711C79.359,40.53 77.59,38.754 73.356,38.754Z" fill="#434343"/>
</g>
</svg>
