<svg width="108" height="108" viewBox="0 0 108 108" fill="none" xmlns="http://www.w3.org/2000/svg" xmlns:xlink="http://www.w3.org/1999/xlink">
<g opacity="0.78">
<path d="M53.782,0.476C43.152,0.476 32.761,3.628 23.923,9.534C15.084,15.44 8.195,23.834 4.127,33.654C0.059,43.475 -1.005,54.282 1.069,64.707C3.143,75.133 8.261,84.71 15.778,92.226C23.295,99.743 32.871,104.862 43.297,106.935C53.723,109.009 64.529,107.945 74.35,103.877C84.171,99.809 92.565,92.92 98.47,84.082C104.376,75.243 107.528,64.852 107.528,54.222C107.514,39.972 101.847,26.31 91.771,16.234C81.694,6.157 68.032,0.49 53.782,0.476M53.782,106.458C43.451,106.458 33.351,103.394 24.76,97.654C16.17,91.914 9.474,83.756 5.521,74.211C1.567,64.665 0.532,54.162 2.548,44.029C4.564,33.896 9.539,24.588 16.844,17.282C24.15,9.977 33.458,5.001 43.591,2.986C53.724,0.97 64.228,2.005 73.773,5.958C83.318,9.912 91.477,16.608 97.217,25.198C102.957,33.789 106.02,43.888 106.02,54.22C106.005,68.07 100.497,81.348 90.704,91.141C80.91,100.935 67.632,106.443 53.782,106.458Z" fill="#434343"/>
<path d="M23.158,33.104C23.196,33.142 23.274,33.182 23.312,33.22L23.35,33.182L26.482,29.238C26.868,28.774 27.256,28.272 27.642,27.808C27.828,27.579 27.948,27.302 27.989,27.01C28.03,26.717 27.99,26.418 27.874,26.146C27.754,25.878 27.564,25.648 27.325,25.478C27.085,25.309 26.804,25.207 26.512,25.184C26.219,25.16 25.926,25.215 25.662,25.344C25.398,25.472 25.174,25.669 25.012,25.914L23.612,27.654C22.646,28.854 21.718,30.012 20.79,31.212C21.292,31.598 21.756,31.986 22.26,32.412C22.571,32.625 22.868,32.858 23.15,33.108Z" fill="#434343"/>
<path d="M53.782,2.874C43.634,2.874 33.714,5.883 25.276,11.521C16.838,17.159 10.261,25.173 6.378,34.548C2.494,43.924 1.478,54.241 3.458,64.194C5.438,74.147 10.325,83.29 17.501,90.466C24.676,97.641 33.819,102.528 43.772,104.508C53.725,106.488 64.042,105.472 73.418,101.588C82.793,97.705 90.807,91.128 96.445,82.69C102.083,74.252 105.092,64.332 105.092,54.184C105.093,47.446 103.766,40.773 101.188,34.548C98.61,28.322 94.83,22.665 90.066,17.901C85.301,13.136 79.644,9.356 73.419,6.778C67.193,4.2 60.521,2.873 53.782,2.874M45.508,6.074L50.308,5.532L53.788,15.702L57.268,5.532L62.068,6.074L62.61,20.496L58.86,19.994L58.512,10.366L55.148,19.994L52.48,19.994L49.08,10.366L48.732,19.994L44.982,20.536L45.508,6.074ZM13.108,29.854L11.948,28.926L11.832,28.81C11.91,28.732 11.948,28.656 12.032,28.578C13.032,27.34 14.004,26.104 15.01,24.828C16.17,23.358 17.33,21.928 18.49,20.458C18.722,20.188 18.916,19.916 19.148,19.608C19.453,19.231 19.832,18.921 20.263,18.699C20.694,18.476 21.167,18.346 21.651,18.317C22.135,18.288 22.619,18.36 23.074,18.529C23.528,18.698 23.943,18.96 24.29,19.298C24.766,19.751 25.102,20.331 25.26,20.968C25.418,21.606 25.39,22.275 25.18,22.898C25.262,22.811 25.352,22.734 25.45,22.666C25.996,22.263 26.639,22.011 27.313,21.934C27.987,21.857 28.67,21.959 29.293,22.229C29.915,22.5 30.456,22.929 30.86,23.473C31.265,24.018 31.52,24.66 31.598,25.334C31.637,25.852 31.598,26.373 31.482,26.88C31.121,27.789 30.581,28.617 29.896,29.316C28.696,30.824 27.496,32.294 26.296,33.802C25.296,35.04 24.286,36.276 23.318,37.514C23.251,37.612 23.173,37.702 23.086,37.784C23.086,37.822 23.008,37.706 22.97,37.706C22.622,37.396 22.236,37.126 21.848,36.816C20.378,35.656 18.948,34.496 17.478,33.336C16.048,32.176 14.578,31.016 13.108,29.856M53.784,86.27C47.441,86.274 41.238,84.397 35.961,80.876C30.685,77.354 26.57,72.348 24.139,66.488C21.708,60.629 21.069,54.18 22.303,47.958C23.537,41.735 26.588,36.018 31.071,31.53C35.554,27.041 41.267,23.983 47.489,22.742C53.71,21.501 60.159,22.132 66.021,24.556C71.884,26.981 76.895,31.089 80.423,36.361C83.95,41.634 85.835,47.834 85.838,54.178C85.843,58.391 85.018,62.563 83.409,66.456C81.801,70.35 79.44,73.888 76.463,76.868C73.486,79.849 69.951,82.213 66.06,83.826C62.168,85.44 57.997,86.27 53.784,86.27ZM84.33,37.59L82.474,34.42L88.816,26.108L79.304,30.478L76.636,28.004L85.298,16.604L87.966,19.078L82.94,25.652L90.94,21.978L93.298,24.916L87.962,31.916L95.464,28.474L97.32,31.644L84.33,37.59Z" fill="#434343"/>
<path d="M23.042,23.946C23.108,23.688 23.107,23.418 23.04,23.161C22.972,22.904 22.84,22.668 22.656,22.476C22.431,22.23 22.135,22.061 21.809,21.992C21.483,21.923 21.144,21.957 20.838,22.09C20.417,22.307 20.07,22.643 19.838,23.056C18.678,24.456 17.596,25.878 16.438,27.27C16.438,27.308 16.168,27.58 16.206,27.58C16.438,27.78 16.67,27.928 16.902,28.122C17.52,28.624 18.102,29.088 18.68,29.592C19.298,28.858 19.88,28.122 20.458,27.35C21.076,26.616 21.658,25.88 22.236,25.15C22.601,24.822 22.88,24.41 23.048,23.95Z" fill="#434343"/>
<path d="M23.352,54.182L53.812,54.182L53.812,23.752C45.801,23.951 38.173,27.22 32.504,32.883C26.835,38.547 23.559,46.171 23.352,54.182Z" fill="#434343"/>
<path d="M53.782,84.65C61.794,84.432 69.417,81.152 75.084,75.484C80.752,69.817 84.032,62.194 84.25,54.182L53.782,54.182L53.782,84.65Z" fill="#434343"/>
</g>
</svg>
