<svg width="144" height="74" viewBox="0 0 144 74" fill="none" xmlns="http://www.w3.org/2000/svg" xmlns:xlink="http://www.w3.org/1999/xlink">
<g opacity="0.78">
<path d="M71.216,73.104C110.429,73.104 142.465,56.691 142.465,36.605C142.465,16.518 110.462,0.138 71.216,0.138C31.969,0.138 0,16.516 0,36.605C0,56.693 32.003,73.104 71.216,73.104ZM71.216,8.757C107.407,8.757 136.868,21.257 136.868,36.612C136.868,51.966 107.372,64.466 71.216,64.466C35.06,64.466 5.522,51.966 5.522,36.612C5.557,21.264 35.053,8.757 71.216,8.757Z" fill="#434343"/>
<path d="M96.419,53.911L103.355,29.601L110.326,53.911L119.906,53.911L110.015,19.093L95.284,19.093L95.284,20.706L96.686,20.706L86.832,53.911L96.419,53.911Z" fill="#434343"/>
<path d="M28.12,53.909L37.703,53.909L37.703,38.733L48.519,53.051L59.645,53.051L46.802,35.986L57.893,19.848L46.767,19.848L37.736,32.964L37.736,19.813L28.155,19.813L28.155,19.848L26.438,19.848L26.438,21.29C27.023,21.272 27.606,21.366 28.155,21.565L28.155,53.911L28.12,53.909Z" fill="#434343"/>
<path d="M67.678,53.909L77.259,53.909L77.259,19.881L67.678,19.881L67.678,19.916L65.961,19.916L65.961,21.358C66.546,21.343 67.128,21.436 67.678,21.633L67.678,53.909Z" fill="#434343"/>
</g>
</svg>
