<svg width="774" height="338" viewBox="0 0 774 338" fill="none" xmlns="http://www.w3.org/2000/svg" xmlns:xlink="http://www.w3.org/1999/xlink">
<rect  x="400.81" y="191.511" width="2.024" height="122.9" transform="rotate(-165.122 400.81 191.511)" fill="#9BC1F9"/>
<path d="M339.959,152.003L340.512,150.994L171.448,61.796L239.03,45.323L238.747,44.217L168.233,61.4L339.959,152.003Z" fill="#9BC1F9"/>
<rect  x="174.31" y="260.374" width="2.027" height="232.893" transform="rotate(-142.182 174.31 260.374)" fill="#9BC1F9"/>
<path d="M711.061,261.015L711.897,260.215L601.833,149.97L601.727,149.929L413.533,70.342L348.595,61.033L348.427,62.162L413.289,71.463L601.163,150.934L711.061,261.015Z" fill="#9BC1F9"/>
<path d="M360.306,287.211L368.7,228.081L368.269,227.916L272.55,191.103L187.07,155.389L186.612,156.439L272.107,192.161L367.415,228.817L359.15,287.054L360.306,287.211Z" fill="#9BC1F9"/>
<path d="M353.841,287.642L354.383,286.624L277.729,247.367L277.729,186.544L199.271,251.43L60.615,184.728L202.989,146.588L203.103,146.337L246.169,50.831L346.511,62.102L336.947,139.304L338.105,139.443L347.811,61.096L347.229,61.029L245.448,49.598L245.277,49.986L202.146,145.627L57.327,184.421L199.442,252.79L199.732,252.546L276.561,189.007L276.561,248.058L353.841,287.642Z" fill="#9BC1F9"/>
<path d="M595.773,157.555L595.797,156.412L465.405,153.807L502.457,46.178L501.351,45.812L463.788,154.921L595.773,157.555Z" fill="#9BC1F9"/>
<path d="M761.503,226.851L762.063,225.845L614.243,146.483L518.237,61.75L517.455,62.598L613.567,147.413L761.503,226.851Z" fill="#9BC1F9"/>
<rect  x="675.219" y="271.065" width="2.028" height="78.116" transform="rotate(-139.357 675.219 271.065)" fill="#9BC1F9"/>
<rect  x="568.669" y="253.988" width="72.891" height="2.026" transform="rotate(-28.943 568.669 253.988)" fill="#9BC1F9"/>
<rect  x="481.606" y="265.183" width="82.134" height="2.023" transform="rotate(-7.855 481.606 265.183)" fill="#9BC1F9"/>
<path d="M406.035,181.23L406.218,181.215L584.873,167.029L584.777,165.889L406.309,180.056L351.546,148.198L350.951,149.181L406.035,181.23Z" fill="#9BC1F9"/>
<path d="M446.346,256.695L447.372,256.149L406.247,181.712L370.474,229.295L371.416,229.975L406.095,183.842L446.346,256.695Z" fill="#9BC1F9"/>
<path d="M339.422,144.66L410.317,73.926L508.333,46.549L508.012,45.446L409.703,72.906L409.596,73.018L338.59,143.86L339.422,144.66Z" fill="#9BC1F9"/>
<rect  x="139.93" y="160.63" width="2.025" height="72.495" transform="rotate(-156.893 139.93 160.63)" fill="#9BC1F9"/>
<path d="M119.95,273.086L120.358,272.012L57.014,249.031L57.014,178.757L108.49,139.585L108.379,139.212L86.899,67.898L85.782,68.22L107.143,139.163L55.847,178.196L55.847,249.827L119.95,273.086Z" fill="#9BC1F9"/>
<rect  x="70.47" y="209.82" width="145.777" height="2.035" transform="rotate(-63.289 70.47 209.82)" fill="#9BC1F9"/>
<rect  x="547.05" y="80.713" width="2.026" height="79.894" transform="rotate(-145.922 547.05 80.713)" fill="#9BC1F9"/>
<rect  x="516.893" y="211.126" width="105.454" height="2.064" transform="rotate(-175.765 516.893 211.126)" fill="#9BC1F9"/>
<path d="M281.345,261.497L327.9,131.281L326.798,130.9L280.246,261.116L281.345,261.497Z" fill="#9BC1F9"/>
<rect  x="142.548" y="84.118" width="2.042" height="132.231" transform="rotate(-93.912 142.548 84.118)" fill="#9BC1F9"/>
<path d="M54.917,184.279L54.917,250.462L120.5,274.254L121.552,271.474L57.945,248.398L57.945,246.242L58.99,247.872L115.156,213.26L199.576,253.87L200.331,253.242L220.83,236.287L281.039,256.13L279.057,261.672L281.913,262.658L283.907,257.076L284.793,257.366L285.757,254.554L284.911,254.272L285.185,253.502L354.231,288.866L355.631,286.236L286.195,250.67L302.577,204.855L366.389,229.4L358.095,287.828L361.093,288.234L369.407,229.658L371.603,231.246L405.965,185.535L445.961,257.924L448.623,256.512L407.469,182.022L466.229,177.358L463.039,263.682L466.067,263.788L469.271,177.119L585.865,167.862L585.621,164.907L469.379,174.133L470.027,156.588L466.999,156.483L466.339,174.376L406.519,179.126L351.211,146.946L349.665,149.499L405.065,181.73L369.491,229.056L369.711,227.49L368.597,227.064L303.571,202.056L324.091,144.667L340.325,153.232L341.763,150.624L325.101,141.834L329.075,130.72L326.219,129.734L322.401,140.407L229.015,91.134L246.745,51.814L345.479,62.901L335.913,140.097L337.941,140.339L337.893,140.728L340.143,141.008L337.275,143.871L339.433,145.949L343.911,141.479L461.689,156.184L462.075,153.24L346.577,138.818L410.809,74.733L415.549,73.41L481.293,101.217L462.501,155.799L596.685,158.479L596.741,155.512L466.689,152.914L484.081,102.394L600.623,151.692L610.421,161.509L568.301,252.76L531.295,187.739L469.763,270.548L472.307,272.158L530.911,193.775L568.393,259.762L612.699,163.782L711.049,262.296L713.213,260.222L614.037,160.882L615.727,157.22L612.965,156.001L611.765,158.606L602.375,149.2L485.053,99.587L502.417,49.142L509.485,47.169L508.657,44.317L503.593,45.734L503.635,45.606L500.767,44.657L500.057,46.72L415.729,70.274L413.795,69.456L347.813,59.994L347.785,60.17L347.335,60.121L244.877,48.611L244.426,49.613L226.341,89.718L174.008,62.109L240.159,45.984L239.427,43.106L165.678,61.078L225.117,92.439L201.479,144.857L190.117,147.899L93.723,61.474L91.679,63.664L186.662,148.834L64.368,181.596L62.812,181.084L62.461,182.108L57.949,183.315L57.949,179.204L109.565,139.928L109.272,138.957L108.044,134.883L175.419,148.097L176.014,145.19L107.079,131.67L87.533,66.773L84.627,67.606L103.723,131.012L103.048,130.881L102.453,133.789L104.691,134.226L106.076,138.826L54.921,177.754L54.921,184.13L54.715,184.186L54.917,184.279ZM420.119,72.135L498.879,50.136L482.257,98.414L420.119,72.135ZM348.503,63.096L409.917,71.9L409.211,72.098L408.929,72.382L342.809,138.351L339.235,137.907L348.503,63.096ZM64.268,184.694L123.924,204.351L114.981,209.863L63.235,184.971L64.268,184.694ZM300.761,200.976L278.659,192.478L278.659,184.586L272.165,189.956L186.578,154.193L185.388,156.917L269.575,192.093L220.182,232.942L130.938,203.532L184.667,170.422L183.054,167.911L127.231,202.314L69.509,183.292L189.301,151.203L191.498,153.172L193.542,150.982L192.753,150.276L203.66,147.354L203.95,146.704L227.783,93.855L321.397,143.247L300.761,200.976ZM275.631,190.968L275.631,191.312L275.349,191.204L275.631,190.968ZM283.489,249.288L278.659,246.814L278.659,195.658L299.757,203.771L283.489,249.288ZM223.542,234.049L272.721,193.375L275.631,194.496L275.631,248.612L282.473,252.116L282.039,253.328L223.542,234.049ZM118.173,211.402L127.628,205.576L217.474,235.185L199.133,250.352L118.173,211.402ZM57.945,185.733L111.964,211.72L57.945,245.008L57.945,185.733Z" fill="#9BC1F9"/>
<path d="M758.401,226.224L621.549,152.736L608.518,152.96L608.464,149.993L616.191,149.862L613.026,148.162L609.509,145.056L606.988,151.716L604.151,150.684L607.087,142.919L516.143,62.667L518.172,60.466L608.212,139.941L642.464,49.341L645.302,50.372L610.634,142.074L614.784,145.737L622.27,149.758L738.501,155.729L738.555,158.697L627.625,152.631L757.639,222.431L735.121,157.497L738.093,156.929L761.099,224.288L763.325,225.484L761.873,228.089L761.857,228.082L763.467,236.101L721.613,262.515L719.973,260.021L760.099,234.7L758.401,226.224Z" fill="#9BC1F9"/>
<path d="M638.933,244.909L712.914,271.229L711.881,274.02L636.534,247.215L636.771,246.576L566.833,264.622L566.066,261.752L638.441,243.074L638.933,244.909Z" fill="#9BC1F9"/>
<rect  x="480.649" y="264.279" width="83.995" height="2.964" transform="rotate(-7.855 480.649 264.279)" fill="#9BC1F9"/>
<rect  x="547.133" y="81.495" width="2.972" height="81.748" transform="rotate(-145.973 547.133 81.495)" fill="#9BC1F9"/>
<rect  x="641.701" y="101.502" width="106.516" height="2.06" transform="rotate(-138.577 641.701 101.502)" fill="#9BC1F9"/>
<path d="M311.732,41.445C311.732,57.967 298.459,71.362 282.086,71.362C265.713,71.362 252.44,57.967 252.44,41.445C252.44,24.922 265.713,11.527 282.086,11.527C298.459,11.527 311.732,24.922 311.732,41.445Z" transform="rotate(-115.517 282.086 41.445)" fill="#FFFFFF"/>
<path d="M209.123,263.892C209.123,280.704 195.754,294.334 179.263,294.334C162.772,294.334 149.403,280.704 149.403,263.892C149.403,247.079 162.772,233.45 179.263,233.45C195.754,233.45 209.123,247.079 209.123,263.892Z" transform="rotate(-161.191 179.263 263.892)" fill="#FFFFFF"/>
<path d="M486.902,154.364C486.902,166.435 476.914,176.222 464.595,176.222C452.277,176.222 442.288,166.435 442.288,154.364C442.288,142.294 452.277,132.507 464.595,132.507C476.914,132.507 486.902,142.294 486.902,154.364Z" fill="#FFFFFF"/>
<path d="M660.126,144.254C660.126,166.857 641.455,185.18 618.423,185.18C595.391,185.18 576.72,166.857 576.72,144.254C576.72,121.651 595.391,103.327 618.423,103.327C641.455,103.327 660.126,121.651 660.126,144.254Z" transform="rotate(-22.173 618.423 144.254)" fill="#FFFFFF"/>
<path d="M440.523,65.642C440.523,76.25 431.786,84.849 421.009,84.849C410.231,84.849 401.494,76.25 401.494,65.642C401.494,55.034 410.231,46.435 421.009,46.435C431.786,46.435 440.523,55.034 440.523,65.642Z" transform="rotate(-37.937 421.009 65.642)" fill="#FFFFFF"/>
<path d="M721.461,56.951C721.461,72.64 708.993,85.359 693.614,85.359C678.235,85.359 665.768,72.64 665.768,56.951C665.768,41.262 678.235,28.544 693.614,28.544C708.993,28.544 721.461,41.262 721.461,56.951Z" transform="rotate(-168.463 693.614 56.951)" fill="#FFFFFF"/>
<path d="M121.835,72.397C121.835,86.053 110.536,97.124 96.599,97.124C82.661,97.124 71.362,86.053 71.362,72.397C71.362,58.74 82.661,47.669 96.599,47.669C110.536,47.669 121.835,58.74 121.835,72.397Z" fill="#FFFFFF"/>
<path d="M447.369,138.111C447.369,158.542 431.128,175.104 411.093,175.104C391.058,175.104 374.816,158.542 374.816,138.111C374.816,117.68 391.058,101.118 411.093,101.118C431.128,101.118 447.369,117.68 447.369,138.111Z" transform="rotate(-164.769 411.093 138.111)" fill="#FFFFFF"/>
<path d="M150.503,173.799C150.503,192.851 135.337,208.296 116.628,208.296C97.919,208.296 82.752,192.851 82.752,173.799C82.752,154.746 97.919,139.301 116.628,139.301C135.337,139.301 150.503,154.746 150.503,173.799Z" transform="rotate(-152.902 116.628 173.799)" fill="#FFFFFF"/>
<path d="M760.848,158.945C760.848,172.189 749.89,182.929 736.37,182.929C722.85,182.929 711.893,172.193 711.893,158.945C711.893,145.701 722.85,134.961 736.37,134.961C749.89,134.961 760.848,145.697 760.848,158.945Z" fill="#FFFFFF"/>
<path d="M416.809,226.328C416.809,235.615 409.415,243.144 400.295,243.144C391.175,243.144 383.782,235.615 383.782,226.328C383.782,217.04 391.175,209.511 400.295,209.511C409.415,209.511 416.809,217.04 416.809,226.328Z" transform="rotate(-152.902 400.295 226.328)" fill="#FFFFFF"/>
<path d="M589.647,256.269C589.647,267.793 580.113,277.136 568.351,277.136C556.589,277.136 547.054,267.793 547.054,256.269C547.054,244.744 556.589,235.397 568.351,235.397C580.113,235.397 589.647,244.744 589.647,256.269Z" fill="#FFFFFF"/>
<path d="M601.607,44.064C601.607,62.906 586.611,78.18 568.112,78.18C549.614,78.18 534.617,62.906 534.617,44.064C534.617,25.222 549.614,9.948 568.112,9.948C586.611,9.948 601.607,25.222 601.607,44.064Z" transform="rotate(-154.029 568.112 44.064)" fill="#FFFFFF"/>
<path d="M523.883,44.743C524.074,40.251 523.399,35.819 521.347,31.637C519.581,28.042 515.218,25.998 511.236,25.994C498.597,25.979 496.988,42.34 488.944,48.655C486.485,50.584 483.739,52.153 481.412,54.235C472.823,61.914 476.691,76.134 484.578,82.864C490.051,87.535 498.654,90.192 505.401,86.537C508.921,84.632 511.595,81.462 513.502,77.987C516.206,73.058 517.949,67.374 519.871,62.12C521.915,56.533 523.631,50.711 523.883,44.743Z" fill="#13375B"/>
<path d="M519.158,86.074C519.158,86.074 509.719,76.589 507.289,72.467C504.86,68.345 508.944,71.029 513.113,69.945C514.692,69.534 514.292,60.464 517.278,63.413C522.175,68.248 528.334,76.705 528.334,76.705L519.158,86.074Z" fill="#96D9C9"/>
<path d="M505.737,59.254C505.737,59.254 497.267,57.617 493.399,60.778C489.532,63.944 494.227,92.079 494.223,96.743C494.22,101.407 491.569,113.59 491.569,113.59C491.569,113.59 517.244,118.99 521.324,111.986C521.324,111.986 522.484,85.308 522.312,81.952C522.14,78.596 518.334,64.878 517.282,63.409C516.225,61.944 505.737,59.254 505.737,59.254Z" fill="#50BFA5"/>
<path d="M505.684,46.413C505.684,46.413 505.638,46.66 505.558,47.082C505.172,49.108 503.693,55.831 502.694,57.677C501.484,59.911 506.828,67.03 511.973,66.163C513.502,65.906 510.679,59.62 510.813,58.955C511.073,57.68 511.427,55.943 511.786,54.16C511.988,53.155 512.194,52.135 512.388,51.178C512.938,48.454 513.388,46.227 513.388,46.227L505.684,46.413Z" fill="#F7A491"/>
<path d="M505.558,47.082C505.638,46.66 505.684,46.413 505.684,46.413L513.391,46.227C513.391,46.227 512.941,48.454 512.392,51.178C512.202,52.131 511.996,53.144 511.793,54.145C510.603,53.973 509.36,53.409 508.113,52.34C506.755,51.178 505.863,49.781 505.325,48.286C505.42,47.807 505.497,47.4 505.558,47.082Z" fill="#F47458"/>
<path d="M510.871,29.283C510.871,29.283 507.236,28.872 504.959,31.753C502.683,34.634 500.227,43.54 505.886,48.379C511.542,53.222 517.129,47.74 517.961,41.929C518.788,36.118 519.109,29.074 510.871,29.283Z" fill="#F7A491"/>
<path d="M516.534,27.821C516.534,27.821 509.452,37.762 502.713,36.431L502.526,32.19L503.147,30.583L506.565,28.434L512.114,27.193L516.534,27.821Z" fill="#13375B"/>
<path d="M519.632,41.843C518.957,43.125 517.824,43.839 517.099,43.431C516.378,43.024 516.336,41.656 517.012,40.371C517.686,39.089 518.819,38.375 519.544,38.782C520.268,39.19 520.306,40.561 519.632,41.843Z" fill="#F7A491"/>
<path d="M503.86,39.32C504.143,40.822 503.575,42.205 502.591,42.399C501.607,42.597 500.581,41.536 500.298,40.034C500.016,38.531 500.584,37.153 501.569,36.955C502.552,36.756 503.578,37.814 503.86,39.32Z" fill="#F7A491"/>
<path d="M513.057,45.179L507.729,44.91C507.729,44.91 507.748,46.898 510.085,47.085C512.938,47.309 513.057,45.179 513.057,45.179Z" fill="#FFFFFF"/>
<path d="M513.057,45.179L507.729,44.91C507.729,44.91 507.748,46.898 510.085,47.085C512.938,47.309 513.057,45.179 513.057,45.179Z" fill="#FFFFFF"/>
<path d="M496.591,85.741C496.591,85.741 491.031,73.667 490.188,68.981C489.345,64.294 493.445,58.412 497.743,58.79C502.041,59.171 508.483,80.02 508.483,80.02L496.591,85.741Z" fill="#96D9C9"/>
<path d="M297.907,143.742C297.907,165.223 280.807,182.636 259.714,182.636C238.621,182.636 221.521,165.223 221.521,143.742C221.521,122.261 238.621,104.848 259.714,104.848C280.807,104.848 297.907,122.261 297.907,143.742Z" transform="rotate(-152.902 259.714 143.742)" fill="#FFFFFF"/>
<path d="M301.314,250.282C301.314,261.683 291.879,270.929 280.243,270.929C268.607,270.929 259.171,261.683 259.171,250.282C259.171,238.88 268.607,229.635 280.243,229.635C291.883,229.635 301.314,238.88 301.314,250.282Z" fill="#FFFFFF"/>
<path d="M507.825,257.549C507.825,279.801 489.417,297.839 466.71,297.839C444.003,297.839 425.595,279.801 425.595,257.549C425.595,235.297 444.003,217.258 466.71,217.258C489.417,217.258 507.825,235.297 507.825,257.549Z" transform="rotate(-5.594 466.71 257.549)" fill="#FFFFFF"/>
<path d="M738.644,257.428C738.644,271.931 726.642,283.691 711.84,283.691C697.038,283.691 685.036,271.931 685.036,257.428C685.036,242.921 697.038,231.164 711.84,231.164C726.642,231.164 738.644,242.921 738.644,257.428Z" fill="#FFFFFF"/>
<path d="M519.885,192.355C519.885,198.424 524.908,203.345 531.101,203.345C537.295,203.345 542.318,198.424 542.318,192.355C542.318,186.286 537.295,181.364 531.101,181.364C524.908,181.361 519.885,186.282 519.885,192.355Z" fill="#FFFFFF"/>
<path d="M578.149,75.708C578.149,79.321 581.139,82.248 584.823,82.248C588.511,82.248 591.497,79.318 591.497,75.708C591.497,72.094 588.507,69.168 584.823,69.168C581.139,69.164 578.149,72.094 578.149,75.708Z" fill="#FFFFFF"/>
<path d="M662.244,243.232C662.244,248.533 658.008,252.83 652.783,252.83C647.558,252.83 643.322,248.533 643.322,243.232C643.322,237.932 647.558,233.634 652.783,233.634C658.008,233.634 662.244,237.932 662.244,243.232Z" transform="rotate(-134.169 652.783 243.232)" fill="#FFFFFF"/>
<path d="M339.006,61.597C339.006,66.739 343.262,70.909 348.51,70.909C353.758,70.909 358.014,66.739 358.014,61.597C358.014,56.455 353.758,52.284 348.51,52.284C343.262,52.284 339.006,56.455 339.006,61.597Z" fill="#FFFFFF"/>
<circle cx="179.035" cy="57.864" r="9.107" transform="rotate(-88.834 179.035 57.864)" fill="#FFFFFF"/>
<path d="M266.845,191.633C266.845,197.702 271.868,202.624 278.061,202.624C284.259,202.624 289.278,197.702 289.278,191.633C289.278,185.561 284.255,180.643 278.061,180.643C271.868,180.643 266.845,185.564 266.845,191.633Z" fill="#FFFFFF"/>
<path d="M348.51,287.132C348.51,293.201 353.533,298.123 359.727,298.123C365.921,298.123 370.943,293.201 370.943,287.132C370.943,281.06 365.921,276.142 359.727,276.142C353.533,276.138 348.51,281.06 348.51,287.132Z" fill="#FFFFFF"/>
<path d="M398.891,180.643C398.891,184.582 402.148,187.777 406.172,187.777C410.195,187.777 413.452,184.582 413.452,180.643C413.452,176.704 410.192,173.509 406.172,173.509C402.152,173.509 398.891,176.704 398.891,180.643Z" fill="#FFFFFF"/>
<path d="M191.838,252.109C191.838,256.178 195.205,259.478 199.359,259.478C203.512,259.478 206.88,256.178 206.88,252.109C206.88,248.039 203.512,244.739 199.359,244.739C195.202,244.739 191.838,248.039 191.838,252.109Z" fill="#FFFFFF"/>
<path d="M68.478,248.685C68.478,254.755 63.456,259.676 57.262,259.676C51.068,259.676 46.047,254.755 46.047,248.685C46.047,242.614 51.068,237.693 57.262,237.693C63.456,237.693 68.478,242.614 68.478,248.685Z" transform="rotate(-7.968 57.262 248.685)" fill="#FFFFFF"/>
<path d="M96.599,132.506C96.599,138.575 101.621,143.497 107.815,143.497C114.009,143.497 119.032,138.575 119.032,132.506C119.032,126.437 114.009,121.516 107.815,121.516C101.621,121.516 96.599,126.437 96.599,132.506Z" fill="#FFFFFF"/>
<path d="M750.564,229.634C750.564,235.703 755.587,240.625 761.781,240.625C767.979,240.625 772.997,235.703 772.997,229.634C772.997,223.565 767.975,218.644 761.781,218.644C755.588,218.644 750.564,223.565 750.564,229.634Z" fill="#FFFFFF"/>
<path d="M333.06,119.091C342.454,114.203 353.4,118.583 354.22,131.423C355.04,144.264 345.791,148.789 336.912,147.941C328.034,147.093 319.3,124.48 333.06,119.091Z" fill="#13375B"/>
<path d="M338.728,153.21C338.728,158.267 342.912,162.366 348.072,162.366C353.232,162.366 357.416,158.267 357.416,153.21C357.416,148.154 353.232,144.055 348.072,144.055C342.912,144.055 338.728,148.15 338.728,153.21Z" fill="#13375B"/>
<path d="M328.019,158.465L296.112,157.388C296.112,157.388 271.246,149.772 270.476,149.563C269.705,149.354 265.895,139.597 264.888,140.434C263.878,141.267 267.093,145.318 265.796,146.047C264.499,146.775 252.36,142.878 252.383,143.842C252.421,145.647 259.721,146.518 259.579,147.366C259.442,148.214 252.051,145.744 251.323,147.078C250.59,148.412 258.538,148.752 258.756,149.429C258.973,150.105 251.231,150.12 251.803,151.548C252.116,152.325 258.687,151.368 258.508,152.332C258.328,153.3 253.409,154.817 253.851,155.677C254.293,156.536 257.81,153.846 260.476,154.205C263.142,154.567 265.262,153.435 269.324,155.262C273.386,157.089 286.94,165.232 296.066,166.159C305.189,167.086 325.342,169.182 325.342,169.182L328.019,158.465Z" fill="#F29383"/>
<path d="M334.09,157.034C351.561,157.833 336.199,172.168 336.199,172.168L310.383,168.577C309.605,163.532 310.932,157.512 310.997,156.17C316.355,155.845 329.788,156.839 334.09,157.034Z" fill="#C24C32"/>
<path d="M347.599,154.294C347.599,154.294 355.108,154.164 359.097,158.435C363.091,162.706 352.824,196.007 352.099,201.444C351.374,206.882 355.798,221.34 355.798,221.34C355.798,221.34 332.095,226.023 325.322,221.62C325.322,221.62 324.597,182.516 325.322,178.634C326.047,174.747 332.095,158.951 333.549,157.4C335.002,155.849 347.599,154.294 347.599,154.294Z" fill="#F47458"/>
<path d="M344.239,141.053C344.239,141.053 344.293,141.345 344.384,141.842C344.834,144.226 346.565,152.126 347.737,154.301C349.151,156.925 342.893,165.299 336.875,164.279C335.082,163.976 338.389,156.584 338.229,155.803C337.924,154.305 337.512,152.261 337.088,150.164C336.852,148.983 336.608,147.784 336.383,146.655C335.738,143.453 335.212,140.833 335.212,140.833L344.239,141.053Z" fill="#F7A491"/>
<path d="M344.388,141.842C344.293,141.345 344.243,141.053 344.243,141.053L335.22,140.833C335.22,140.833 335.746,143.453 336.391,146.655C336.616,147.776 336.856,148.968 337.092,150.142C338.484,149.94 339.941,149.275 341.398,148.019C342.989,146.652 344.033,145.007 344.663,143.251C344.548,142.694 344.457,142.212 344.388,141.842Z" fill="#F47458"/>
<path d="M338.167,120.911C338.167,120.911 342.42,120.429 345.086,123.815C347.751,127.201 350.623,137.672 344.002,143.367C337.382,149.058 330.837,142.616 329.868,135.785C328.896,128.95 328.518,120.668 338.167,120.911Z" fill="#F7A491"/>
<path d="M327.908,135.683C328.698,137.193 330.025,138.026 330.871,137.548C331.718,137.07 331.764,135.459 330.975,133.949C330.185,132.44 328.858,131.603 328.011,132.081C327.164,132.563 327.119,134.174 327.908,135.683Z" fill="#F7A491"/>
<path d="M337.69,119.794C337.69,119.794 343.373,129.753 347.439,130.213C351.504,130.672 352.038,135.964 352.038,135.964C352.038,135.964 350.585,123.77 346.561,121.42C342.534,119.069 337.69,119.794 337.69,119.794Z" fill="#13375B"/>
<path d="M346.371,132.713C346.039,134.481 346.707,136.103 347.855,136.335C349.007,136.566 350.208,135.322 350.536,133.554C350.868,131.787 350.2,130.165 349.053,129.933C347.904,129.701 346.703,130.946 346.371,132.713Z" fill="#F7A491"/>
<path d="M337.523,188.047C337.523,188.047 355.868,178.839 359.91,173.929C363.953,169.022 363.068,159.62 357.855,157.363C352.645,155.106 331.448,175.906 331.448,175.906L337.523,188.047Z" fill="#C24C32"/>
<path d="M419.854,58.937C414.786,56.299 408.882,58.66 408.44,65.589C407.997,72.517 412.986,74.958 417.78,74.502C422.57,74.042 427.28,61.844 419.854,58.937Z" fill="#13375B"/>
<path d="M411.495,70.267C411.495,71.571 410.416,72.629 409.085,72.629C407.754,72.629 406.674,71.571 406.674,70.267C406.674,68.963 407.754,67.905 409.085,67.905C410.416,67.905 411.495,68.963 411.495,70.267Z" fill="#13375B"/>
<path d="M413.902,72.501C413.902,73.806 412.822,74.863 411.495,74.863C410.164,74.863 409.084,73.806 409.084,72.501C409.084,71.197 410.164,70.14 411.495,70.14C412.822,70.14 413.902,71.197 413.902,72.501Z" fill="#13375B"/>
<path d="M417.058,74.195C417.058,75.499 415.979,76.557 414.648,76.557C413.317,76.557 412.238,75.499 412.238,74.195C412.238,72.891 413.317,71.833 414.648,71.833C415.979,71.837 417.058,72.894 417.058,74.195Z" fill="#13375B"/>
<path d="M410.439,66.376C410.439,67.681 409.359,68.738 408.028,68.738C406.698,68.738 405.618,67.681 405.618,66.376C405.618,65.072 406.698,64.015 408.028,64.015C409.359,64.018 410.439,65.072 410.439,66.376Z" fill="#13375B"/>
<path d="M411.266,62.326C411.266,63.63 410.187,64.684 408.856,64.684C407.525,64.684 406.446,63.626 406.446,62.326C406.446,61.021 407.525,59.964 408.856,59.964C410.187,59.964 411.266,61.021 411.266,62.326Z" fill="#13375B"/>
<path d="M414.051,59.744C414.051,61.048 412.971,62.106 411.64,62.106C410.309,62.106 409.23,61.048 409.23,59.744C409.23,58.439 410.309,57.382 411.64,57.382C412.971,57.386 414.051,58.439 414.051,59.744Z" fill="#13375B"/>
<path d="M417.734,58.671C417.734,59.976 416.655,61.033 415.323,61.033C413.992,61.033 412.913,59.976 412.913,58.671C412.913,57.367 413.992,56.313 415.323,56.313C416.655,56.313 417.734,57.367 417.734,58.671Z" fill="#13375B"/>
<path d="M421.571,58.966C421.571,60.271 420.491,61.328 419.16,61.328C417.829,61.328 416.75,60.271 416.75,58.966C416.75,57.662 417.829,56.608 419.16,56.608C420.491,56.608 421.571,57.662 421.571,58.966Z" fill="#13375B"/>
<path d="M424.431,61.915C424.431,63.219 423.352,64.276 422.021,64.276C420.69,64.276 419.611,63.219 419.611,61.915C419.611,60.61 420.69,59.553 422.021,59.553C423.352,59.557 424.431,60.61 424.431,61.915Z" fill="#13375B"/>
<path d="M424.355,69.433C424.355,70.737 423.276,71.795 421.945,71.795C420.614,71.795 419.534,70.737 419.534,69.433C419.534,68.129 420.614,67.071 421.945,67.071C423.276,67.071 424.355,68.129 424.355,69.433Z" fill="#13375B"/>
<path d="M421.948,72.973C421.948,74.277 420.869,75.335 419.538,75.335C418.207,75.335 417.128,74.277 417.128,72.973C417.128,71.669 418.207,70.611 419.538,70.611C420.869,70.611 421.948,71.669 421.948,72.973Z" fill="#13375B"/>
<path d="M425.332,65.454C425.332,66.758 424.252,67.815 422.922,67.815C421.591,67.815 420.511,66.758 420.511,65.454C420.511,64.149 421.591,63.092 422.922,63.092C424.256,63.092 425.332,64.149 425.332,65.454Z" fill="#13375B"/>
<path d="M418.638,73.855C418.638,75.159 417.559,76.217 416.228,76.217C414.897,76.217 413.817,75.159 413.817,73.855C413.817,72.551 414.897,71.493 416.228,71.493C417.559,71.497 418.638,72.555 418.638,73.855Z" fill="#13375B"/>
<path d="M422.578,80.177L439.793,79.598C439.793,79.598 453.21,75.491 453.626,75.375C454.042,75.263 456.098,69.997 456.643,70.449C457.188,70.898 455.453,73.084 456.154,73.48C456.856,73.873 463.405,71.769 463.393,72.292C463.37,73.267 459.435,73.734 459.511,74.194C459.583,74.65 463.573,73.319 463.965,74.037C464.358,74.754 460.072,74.941 459.957,75.304C459.839,75.67 464.019,75.677 463.706,76.447C463.538,76.866 459.991,76.35 460.087,76.87C460.182,77.393 462.84,78.211 462.6,78.675C462.36,79.138 460.464,77.684 459.026,77.882C457.588,78.077 456.445,77.468 454.252,78.454C452.059,79.441 444.747,83.835 439.824,84.332C434.9,84.833 424.027,85.965 424.027,85.965L422.578,80.177Z" fill="#F29383"/>
<path d="M419.298,79.408C409.87,79.838 418.158,87.574 418.158,87.574L432.086,85.638C432.505,82.917 431.789,79.666 431.754,78.941C428.867,78.769 421.621,79.304 419.298,79.408Z" fill="#C24C32"/>
<path d="M412.014,77.927C412.014,77.927 407.963,77.856 405.808,80.162C403.654,82.468 409.195,100.435 409.584,103.369C409.973,106.302 407.589,114.105 407.589,114.105C407.589,114.105 420.377,116.631 424.031,114.258C424.031,114.258 424.424,93.159 424.031,91.063C423.638,88.966 420.377,80.442 419.592,79.605C418.81,78.768 412.014,77.927 412.014,77.927Z" fill="#F47458"/>
<path d="M413.826,70.787C413.826,70.787 413.799,70.944 413.745,71.213C413.501,72.498 412.567,76.762 411.938,77.936C411.175,79.352 414.55,83.87 417.799,83.317C418.768,83.153 416.983,79.165 417.067,78.743C417.231,77.936 417.453,76.833 417.681,75.701C417.811,75.062 417.94,74.415 418.063,73.81C418.41,72.084 418.692,70.671 418.692,70.671L413.826,70.787Z" fill="#BF7154"/>
<path d="M413.744,71.213C413.794,70.944 413.824,70.787 413.824,70.787L418.691,70.667C418.691,70.667 418.409,72.08 418.062,73.806C417.94,74.412 417.81,75.054 417.684,75.689C416.933,75.581 416.147,75.223 415.361,74.546C414.503,73.81 413.939,72.921 413.6,71.975C413.657,71.672 413.706,71.411 413.744,71.213Z" fill="#A85D42"/>
<path d="M417.101,59.919C417.101,59.919 414.805,59.658 413.368,61.485C411.93,63.312 410.378,68.963 413.951,72.035C417.525,75.106 421.056,71.631 421.579,67.943C422.101,64.254 422.307,59.785 417.101,59.919Z" fill="#BF7154"/>
<path d="M422.634,67.887C422.207,68.701 421.49,69.154 421.036,68.892C420.579,68.634 420.556,67.763 420.983,66.953C421.41,66.138 422.127,65.686 422.581,65.947C423.039,66.205 423.061,67.072 422.634,67.887Z" fill="#BF7154"/>
<path d="M417.358,59.314C417.358,59.314 414.291,64.688 412.098,64.935C409.905,65.181 409.619,68.036 409.619,68.036C409.619,68.036 410.405,61.459 412.575,60.189C414.745,58.922 417.358,59.314 417.358,59.314Z" fill="#13375B"/>
<path d="M412.673,66.287C412.853,67.24 412.494,68.118 411.872,68.242C411.251,68.365 410.602,67.696 410.427,66.739C410.248,65.786 410.606,64.912 411.228,64.785C411.846,64.658 412.494,65.331 412.673,66.287Z" fill="#BF7154"/>
<path d="M417.448,96.142C417.448,96.142 407.551,91.172 405.37,88.527C403.188,85.877 403.665,80.806 406.479,79.588C409.29,78.369 420.728,89.592 420.728,89.592L417.448,96.142Z" fill="#C24C32"/>
<path d="M622.394,129.068C614.496,124.976 602.638,127.114 599.561,142.376C597.726,151.468 593.161,161.019 593.161,161.019C605.121,166.251 617.985,166.472 628.302,164.708C628.302,164.712 637.245,134.887 622.394,129.068Z" fill="#F47458"/>
<path d="M627.835,171.561L662.271,170.399C662.271,170.399 689.109,162.181 689.936,161.953C690.768,161.725 694.879,151.198 695.969,152.099C697.06,152.999 693.59,157.368 694.993,158.156C696.393,158.945 709.49,154.737 709.47,155.776C709.429,157.726 701.553,158.664 701.702,159.58C701.851,160.496 709.825,157.831 710.615,159.27C711.404,160.709 702.827,161.079 702.594,161.807C702.362,162.536 710.714,162.551 710.096,164.094C709.761,164.931 702.667,163.9 702.861,164.943C703.056,165.985 708.365,167.626 707.888,168.553C707.411,169.479 703.613,166.576 700.737,166.964C697.861,167.353 695.573,166.135 691.187,168.108C686.801,170.081 672.175,178.867 662.328,179.864C652.481,180.862 630.734,183.131 630.734,183.131L627.835,171.561Z" fill="#F29383"/>
<path d="M621.28,170.017C602.425,170.877 619.004,186.352 619.004,186.352L646.868,182.476C647.707,177.032 646.276,170.537 646.204,169.087C640.422,168.736 625.926,169.804 621.28,170.017Z" fill="#C5DBFC"/>
<path d="M606.703,167.062C606.703,167.062 598.599,166.92 594.293,171.531C589.987,176.143 601.063,212.078 601.848,217.949C602.634,223.819 597.855,239.422 597.855,239.422C597.855,239.422 623.434,244.478 630.746,239.724C630.746,239.724 631.527,197.522 630.746,193.333C629.964,189.14 623.434,172.092 621.867,170.418C620.3,168.736 606.703,167.062 606.703,167.062Z" fill="#9BC1F9"/>
<path d="M610.326,152.772C610.326,152.772 610.269,153.086 610.17,153.624C609.685,156.195 607.817,164.723 606.551,167.069C605.025,169.902 611.775,178.938 618.274,177.836C620.208,177.507 616.638,169.532 616.81,168.687C617.138,167.069 617.584,164.865 618.038,162.604C618.293,161.329 618.556,160.033 618.8,158.818C619.495,155.361 620.063,152.536 620.063,152.536L610.326,152.772Z" fill="#F7A491"/>
<path d="M610.17,153.623C610.274,153.089 610.327,152.771 610.327,152.771L620.064,152.532C620.064,152.532 619.495,155.357 618.801,158.814C618.557,160.025 618.298,161.311 618.042,162.577C616.54,162.361 614.968,161.643 613.393,160.286C611.677,158.81 610.552,157.035 609.873,155.141C609.995,154.543 610.094,154.023 610.17,153.623Z" fill="#F5866E"/>
<path d="M616.882,131.037C616.882,131.037 612.294,130.518 609.415,134.169C606.539,137.824 603.439,149.124 610.582,155.268C617.729,161.412 624.789,154.457 625.838,147.084C626.886,139.711 627.294,130.768 616.882,131.037Z" fill="#F7A491"/>
<path d="M627.954,146.975C627.1,148.605 625.67,149.505 624.754,148.99C623.843,148.474 623.794,146.736 624.644,145.107C625.498,143.477 626.929,142.577 627.844,143.093C628.759,143.608 628.805,145.346 627.954,146.975Z" fill="#F7A491"/>
<path d="M617.394,129.826C617.394,129.826 611.261,140.574 606.875,141.067C602.489,141.564 601.913,147.275 601.913,147.275C601.913,147.275 603.481,134.117 607.825,131.579C612.169,129.046 617.394,129.826 617.394,129.826Z" fill="#F47458"/>
<path d="M608.027,143.769C608.386,145.679 607.665,147.428 606.425,147.678C605.182,147.928 603.889,146.583 603.53,144.677C603.172,142.767 603.893,141.019 605.132,140.768C606.376,140.518 607.673,141.863 608.027,143.769Z" fill="#F7A491"/>
<path d="M617.577,203.487C617.577,203.487 597.779,193.547 593.416,188.251C589.053,182.956 590.01,172.81 595.632,170.373C601.257,167.937 624.133,190.385 624.133,190.385L617.577,203.487Z" fill="#C5DBFC"/>
<path d="M702.838,241.157C709.867,237.498 718.06,240.776 718.67,250.384C719.284,259.991 712.361,263.377 705.718,262.742C699.074,262.106 692.545,245.189 702.838,241.157Z" fill="#F7CC7F"/>
<path d="M707.08,266.684C707.08,270.466 710.211,273.534 714.071,273.534C717.93,273.534 721.062,270.466 721.062,266.684C721.062,262.898 717.93,259.834 714.071,259.834C710.211,259.834 707.08,262.902 707.08,266.684Z" fill="#F7CC7F"/>
<path d="M699.067,270.614L675.193,269.811C675.193,269.811 656.585,264.112 656.009,263.955C655.433,263.798 652.581,256.5 651.825,257.124C651.07,257.748 653.473,260.778 652.504,261.324C651.535,261.869 642.451,258.951 642.466,259.676C642.497,261.029 647.955,261.679 647.851,262.314C647.749,262.95 642.218,261.1 641.673,262.098C641.128,263.096 647.073,263.35 647.234,263.858C647.394,264.362 641.604,264.373 642.031,265.442C642.264,266.021 647.184,265.308 647.051,266.029C646.917,266.75 643.233,267.89 643.565,268.533C643.897,269.175 646.528,267.161 648.523,267.431C650.517,267.699 652.104,266.855 655.144,268.223C658.183,269.59 668.328,275.682 675.155,276.377C681.981,277.068 697.061,278.642 697.061,278.642L699.067,270.614Z" fill="#F29383"/>
<path d="M703.613,269.547C716.687,270.145 705.192,280.874 705.192,280.874L685.875,278.187C685.296,274.413 686.287,269.906 686.333,268.904C690.341,268.658 700.391,269.401 703.613,269.547Z" fill="#96D9C9"/>
<path d="M713.72,267.498C713.72,267.498 719.338,267.401 722.324,270.596C725.311,273.795 717.63,298.709 717.088,302.779C716.546,306.849 719.857,317.667 719.857,317.667C719.857,317.667 702.122,321.173 697.054,317.877C697.054,317.877 696.512,288.616 697.054,285.709C697.595,282.801 702.122,270.981 703.209,269.819C704.292,268.66 713.72,267.498 713.72,267.498Z" fill="#50BFA5"/>
<path d="M711.206,257.588C711.206,257.588 711.245,257.808 711.317,258.178C711.653,259.961 712.949,265.872 713.827,267.498C714.887,269.464 710.203,275.727 705.699,274.965C704.357,274.736 706.832,269.206 706.713,268.623C706.485,267.502 706.176,265.973 705.863,264.404C705.684,263.518 705.505,262.621 705.333,261.78C704.853,259.385 704.46,257.427 704.46,257.427L711.206,257.588Z" fill="#F7A491"/>
<path d="M711.314,258.179C711.244,257.809 711.203,257.588 711.203,257.588L704.452,257.424C704.452,257.424 704.845,259.382 705.326,261.778C705.493,262.615 705.672,263.508 705.852,264.386C706.893,264.236 707.984,263.739 709.075,262.798C710.265,261.774 711.046,260.544 711.515,259.233C711.436,258.818 711.366,258.455 711.314,258.179Z" fill="#F47458"/>
<path d="M706.661,242.517C706.661,242.517 709.842,242.154 711.836,244.688C713.831,247.222 715.983,255.058 711.028,259.318C706.074,263.579 701.177,258.758 700.452,253.642C699.724,248.534 699.445,242.334 706.661,242.517Z" fill="#F7A491"/>
<path d="M698.983,253.571C699.575,254.699 700.567,255.324 701.2,254.969C701.833,254.61 701.867,253.406 701.276,252.278C700.685,251.149 699.69,250.521 699.056,250.88C698.423,251.239 698.393,252.442 698.983,253.571Z" fill="#F7A491"/>
<path d="M706.306,241.68C706.306,241.68 710.559,249.132 713.598,249.476C716.638,249.819 717.039,253.781 717.039,253.781C717.039,253.781 715.951,244.659 712.938,242.898C709.929,241.138 706.306,241.68 706.306,241.68Z" fill="#F7CC7F"/>
<path d="M712.801,251.347C712.553,252.67 713.052,253.884 713.911,254.056C714.773,254.228 715.669,253.298 715.917,251.975C716.164,250.652 715.665,249.437 714.807,249.266C713.949,249.093 713.049,250.024 712.801,251.347Z" fill="#F7A491"/>
<path d="M706.18,292.752C706.18,292.752 719.906,285.862 722.93,282.188C725.955,278.515 725.291,271.481 721.393,269.792C717.496,268.103 701.634,283.668 701.634,283.668L706.18,292.752Z" fill="#96D9C9"/>
<path d="M426.972,167.151C426.972,167.151 434.538,165.171 434.63,165.769C436.583,178.856 437.425,183.583 437.7,183.714C438.634,184.155 450.575,172.88 452.738,172.081C453.771,171.699 454.908,171.729 455.999,171.733C458.596,171.741 459.107,171.737 459.107,171.737C459.18,171.741 459.202,171.741 459.202,171.741L459.252,174.132C456.399,176.785 453.592,228.008 453.028,227.997C452.399,227.986 440.534,227.922 441.098,226.951C441.098,226.951 443.966,211.177 446.224,200.777C446.983,197.287 449.096,189.988 449.096,189.988C446.197,191.509 434.863,197.339 433.024,196.655C427.307,194.521 426.972,167.151 426.972,167.151Z" fill="#F47458"/>
<path d="M449.39,198.303C450.69,192.028 454.02,181.733 454.996,179.398C457.235,174.035 459.119,171.763 459.119,171.763L467.978,172.02C467.978,172.02 468.184,172.077 468.245,172.084C468.97,172.196 468.993,197.481 468.6,206.931C468.211,216.386 466.068,228.688 466.068,228.688L463.539,228.453C463.497,229.727 463.467,230.568 463.467,230.568C450.648,232.784 443.49,226.592 443.49,226.592C443.49,226.592 447.7,206.438 449.39,198.303Z" fill="#466EB6"/>
<path d="M467.978,172.017C467.978,172.017 476.739,171.393 478.978,170.328C480.336,169.685 491.369,160.496 491.369,160.496L490.606,136.669L498.516,135.873C498.516,135.873 503.333,162.107 501.987,165.025C500.595,168.041 484.424,180.721 481.266,186.125C479.447,189.237 481.174,231.503 480.583,231.891C476.373,234.179 458.673,236.204 458.947,234.874C466.548,198.161 467.978,172.017 467.978,172.017Z" fill="#F47458"/>
<path d="M467.521,164.372L467.979,172.021C467.979,172.021 462.51,181.838 459.535,180.568C457.037,179.499 459.032,172.088 459.032,172.088C459.032,172.088 459.413,170.392 459.954,168.437C460.332,167.074 460.637,165.597 460.584,164.521C460.446,161.905 467.521,164.372 467.521,164.372Z" fill="#F7A491"/>
<path d="M460.579,164.517C460.446,161.901 467.521,164.368 467.521,164.368L467.566,165.115C467.337,165.47 467.086,165.773 466.808,166.004C464.966,167.551 462.261,168.295 460.038,168.105C460.374,166.838 460.629,165.507 460.579,164.517Z" fill="#F47458"/>
<path d="M460.209,147.084C460.209,147.084 457.406,151.471 457.284,155.104C457.162,158.74 458.012,161.195 458.012,161.195L467.085,149.984L460.209,147.084Z" fill="#184655"/>
<path d="M456.296,154.39C456.197,155.664 456.731,156.74 457.486,156.796C458.241,156.852 458.935,155.866 459.031,154.591C459.13,153.317 458.596,152.241 457.841,152.185C457.086,152.129 456.395,153.115 456.296,154.39Z" fill="#F48C7F"/>
<path d="M470.167,151.665C470.381,151.616 470.644,162.177 467.585,164.744C464.527,167.312 459.096,167.667 457.441,165.204C455.61,162.48 456.983,151.306 461.567,148.825C466.148,146.34 470.167,151.665 470.167,151.665Z" fill="#F7A491"/>
<path d="M470.785,145.096C473.226,147.084 474.419,148.553 476.132,152.152C478.237,156.58 474.423,161.322 471.17,163.25C467.917,165.179 467.703,167.417 467.703,167.417L467.532,166.046C467.451,165.545 467.459,165.138 467.539,164.779C467.631,164.36 467.818,164.013 467.978,163.65C468.245,163.056 469.092,161.016 469.431,160.474C470.323,159.046 470.499,158.736 470.003,157.417C469.622,156.401 469.973,154.125 469.378,152.447L464.908,151.621C464.908,151.621 462.109,151.038 460.663,149.487C456.51,145.033 464.347,139.745 470.785,145.096Z" fill="#184655"/>
<path d="M468.978,158.601C468.463,159.774 468.608,160.963 469.302,161.258C469.996,161.553 470.98,160.839 471.495,159.666C472.01,158.492 471.865,157.304 471.171,157.009C470.476,156.714 469.493,157.427 468.978,158.601Z" fill="#F7A491"/>
<path d="M-0.937,200.172C-0.937,200.172 10.474,197.182 10.608,198.086C13.548,217.814 14.826,224.944 15.238,225.139C16.649,225.804 34.65,208.804 37.911,207.601C39.471,207.025 41.183,207.07 42.827,207.074C46.744,207.085 47.514,207.081 47.514,207.081C47.625,207.085 47.659,207.089 47.659,207.089L47.736,210.695C43.434,214.694 39.204,291.922 38.354,291.904C37.404,291.885 19.517,291.792 20.367,290.33C20.367,290.33 24.692,266.548 28.094,250.868C29.235,245.606 32.427,234.601 32.427,234.601C28.052,236.891 10.97,245.681 8.198,244.649C-0.437,241.436 -0.937,200.172 -0.937,200.172Z" fill="#F7CC7F"/>
<path d="M32.858,247.135C34.818,237.673 39.841,222.15 41.309,218.633C44.685,210.55 47.526,207.123 47.526,207.123L60.886,207.512C60.886,207.512 61.195,207.594 61.29,207.609C62.381,207.777 62.415,245.898 61.828,260.147C61.241,274.4 58.01,292.947 58.01,292.947L54.2,292.592C54.139,294.513 54.093,295.78 54.093,295.78C34.765,299.121 23.976,289.782 23.976,289.782C23.976,289.782 30.314,259.4 32.858,247.135Z" fill="#F7CC7F"/>
<path d="M60.882,207.508C60.882,207.508 74.094,206.562 77.465,204.963C79.509,203.991 96.145,190.138 96.145,190.138L94.993,154.218L106.923,153.019C106.923,153.019 114.185,192.567 112.152,196.97C110.054,201.514 85.676,220.632 80.913,228.779C78.171,233.473 80.772,297.188 79.883,297.779C73.533,301.228 46.847,304.277 47.263,302.274C58.728,246.922 60.882,207.508 60.882,207.508Z" fill="#F7CC7F"/>
<path d="M60.196,195.976L60.882,207.508C60.882,207.508 52.637,222.31 48.148,220.393C44.383,218.783 47.389,207.609 47.389,207.609C47.389,207.609 47.965,205.049 48.781,202.105C49.349,200.045 49.811,197.822 49.727,196.2C49.528,192.257 60.196,195.976 60.196,195.976Z" fill="#BF7154"/>
<path d="M49.726,196.199C49.528,192.257 60.192,195.975 60.192,195.975L60.26,197.103C59.917,197.638 59.539,198.094 59.116,198.445C56.34,200.777 52.259,201.898 48.91,201.61C49.417,199.697 49.803,197.694 49.726,196.199Z" fill="#A3573C"/>
<path d="M49.174,169.917C49.174,169.917 44.948,176.531 44.765,182.01C44.582,187.488 45.863,191.192 45.863,191.192L59.544,174.289L49.174,169.917Z" fill="#184655"/>
<path d="M43.274,180.93C43.125,182.851 43.93,184.477 45.07,184.559C46.21,184.645 47.251,183.154 47.4,181.233C47.549,179.312 46.744,177.686 45.604,177.604C44.463,177.518 43.418,179.009 43.274,180.93Z" fill="#A3573C"/>
<path d="M64.185,176.819C64.505,176.745 64.902,192.668 60.291,196.536C55.68,200.404 47.492,200.946 44.998,197.231C42.236,193.124 44.307,176.281 51.218,172.537C58.125,168.796 64.185,176.819 64.185,176.819Z" fill="#BF7154"/>
<path d="M65.112,166.917C68.792,169.914 70.592,172.126 73.17,177.556C76.343,184.23 70.596,191.383 65.692,194.29C60.791,197.198 60.467,200.572 60.467,200.572L60.207,198.505C60.089,197.751 60.1,197.134 60.219,196.6C60.36,195.968 60.638,195.445 60.882,194.899C61.283,194.002 62.56,190.927 63.071,190.108C64.414,187.956 64.677,187.492 63.933,185.497C63.361,183.961 63.884,180.534 62.995,178.004L56.256,176.76C56.256,176.76 52.038,175.882 49.856,173.542C43.594,166.823 55.409,158.852 65.112,166.917Z" fill="#184655"/>
<path d="M62.388,187.279C61.61,189.047 61.828,190.84 62.88,191.285C63.929,191.73 65.409,190.653 66.191,188.886C66.969,187.118 66.752,185.325 65.699,184.88C64.646,184.435 63.167,185.508 62.388,187.279Z" fill="#BF7154"/>
<path d="M289.072,69.673C289.072,69.673 279.656,67.207 279.545,67.95C277.116,84.236 276.063,90.118 275.724,90.279C274.56,90.828 259.698,76.796 257.009,75.802C255.724,75.327 254.309,75.365 252.951,75.368C249.721,75.38 249.08,75.376 249.08,75.376C248.989,75.38 248.962,75.38 248.962,75.38L248.901,78.354C252.452,81.654 255.941,145.4 256.643,145.385C257.429,145.37 272.192,145.291 271.49,144.084C271.49,144.084 267.921,124.454 265.113,111.513C264.172,107.167 261.536,98.086 261.536,98.086C265.144,99.977 279.247,107.234 281.536,106.382C288.656,103.736 289.072,69.673 289.072,69.673Z" fill="#13375B"/>
<path d="M261.173,108.436C259.552,100.625 255.411,87.815 254.198,84.908C251.414,78.237 249.068,75.408 249.068,75.408L238.042,75.726C238.042,75.726 237.787,75.797 237.711,75.808C236.811,75.946 236.784,107.412 237.268,119.176C237.753,130.94 240.418,146.251 240.418,146.251L243.565,145.959C243.618,147.547 243.653,148.59 243.653,148.59C259.606,151.348 268.511,143.638 268.511,143.638C268.511,143.638 263.275,118.559 261.173,108.436Z" fill="#466EB6"/>
<path d="M238.042,75.727C238.042,75.727 227.139,74.949 224.354,73.626C222.669,72.827 208.935,61.388 208.935,61.388L209.885,31.738L200.038,30.748C200.038,30.748 194.046,63.395 195.72,67.027C197.452,70.779 217.573,86.56 221.505,93.283C223.767,97.158 221.62,149.753 222.356,150.239C227.596,153.086 249.625,155.605 249.282,153.949C239.82,108.261 238.042,75.727 238.042,75.727Z" fill="#13375B"/>
<path d="M238.611,66.208L238.042,75.726C238.042,75.726 244.846,87.943 248.553,86.362C251.662,85.035 249.183,75.809 249.183,75.809C249.183,75.809 248.706,73.697 248.035,71.265C247.566,69.564 247.184,67.729 247.253,66.392C247.413,63.14 238.611,66.208 238.611,66.208Z" fill="#F7A491"/>
<path d="M247.249,66.395C247.413,63.14 238.61,66.212 238.61,66.212L238.553,67.142C238.835,67.583 239.148,67.961 239.499,68.252C241.791,70.177 245.159,71.104 247.924,70.865C247.504,69.28 247.188,67.625 247.249,66.395Z" fill="#F47458"/>
<path d="M247.706,44.702C247.706,44.702 251.196,50.162 251.345,54.684C251.493,59.205 250.437,62.262 250.437,62.262L239.148,48.312L247.706,44.702Z" fill="#F47458"/>
<path d="M252.577,53.791C252.699,55.375 252.035,56.717 251.093,56.788C250.151,56.859 249.293,55.629 249.171,54.045C249.049,52.46 249.713,51.119 250.655,51.048C251.597,50.977 252.455,52.203 252.577,53.791Z" fill="#F48C7F"/>
<path d="M235.319,50.397C235.052,50.334 234.728,63.477 238.534,66.672C242.341,69.863 249.099,70.312 251.158,67.247C253.435,63.858 251.726,49.956 246.025,46.866C240.319,43.775 235.319,50.397 235.319,50.397Z" fill="#F7A491"/>
<path d="M234.549,42.225C231.513,44.699 230.025,46.523 227.897,51.007C225.277,56.519 230.022,62.42 234.068,64.819C238.115,67.218 238.382,70.002 238.382,70.002L238.595,68.294C238.694,67.67 238.683,67.162 238.584,66.721C238.469,66.201 238.237,65.768 238.038,65.316C237.707,64.576 236.654,62.035 236.231,61.362C235.121,59.587 234.903,59.202 235.517,57.558C235.99,56.291 235.559,53.462 236.292,51.373L241.852,50.345C241.852,50.345 245.334,49.62 247.134,47.688C252.314,42.146 242.561,35.566 234.549,42.225Z" fill="#F47458"/>
<path d="M236.799,59.03C237.44,60.491 237.261,61.971 236.395,62.337C235.529,62.704 234.305,61.818 233.664,60.357C233.023,58.896 233.203,57.416 234.068,57.049C234.934,56.683 236.158,57.569 236.799,59.03Z" fill="#F7A491"/>
<path d="M343.462,239.602C343.462,239.602 348.988,238.156 349.053,238.589C350.48,248.148 351.097,251.601 351.296,251.698C351.978,252.02 360.701,243.783 362.279,243.201C363.035,242.92 363.866,242.943 364.659,242.946C366.555,242.954 366.933,242.95 366.933,242.95C366.986,242.954 367.001,242.954 367.001,242.954L367.039,244.703C364.953,246.638 362.905,284.057 362.493,284.05C362.031,284.042 353.367,283.993 353.778,283.287C353.778,283.287 355.872,271.762 357.52,264.169C358.073,261.62 359.617,256.287 359.617,256.287C357.497,257.397 349.221,261.657 347.878,261.157C343.706,259.595 343.462,239.602 343.462,239.602Z" fill="#F7CC7F"/>
<path d="M359.838,262.355C360.788,257.77 363.221,250.251 363.934,248.543C365.57,244.627 366.947,242.968 366.947,242.968L373.419,243.154C373.419,243.154 373.568,243.196 373.614,243.203C374.144,243.285 374.159,261.754 373.873,268.66C373.587,275.566 372.023,284.553 372.023,284.553L370.177,284.381C370.147,285.312 370.124,285.925 370.124,285.925C360.761,287.543 355.532,283.021 355.532,283.021C355.532,283.021 358.606,268.297 359.838,262.355Z" fill="#466EB6"/>
<path d="M373.416,243.155C373.416,243.155 379.816,242.699 381.452,241.922C382.443,241.451 390.502,234.739 390.502,234.739L389.945,217.336L395.723,216.757C395.723,216.757 399.239,235.92 398.255,238.054C397.241,240.255 385.426,249.519 383.122,253.465C381.795,255.737 383.053,286.613 382.622,286.897C379.545,288.567 366.616,290.047 366.818,289.075C372.374,262.251 373.416,243.155 373.416,243.155Z" fill="#F7CC7F"/>
<path d="M373.084,237.569L373.416,243.156C373.416,243.156 369.423,250.327 367.245,249.4C365.422,248.619 366.875,243.204 366.875,243.204C366.875,243.204 367.154,241.964 367.55,240.536C367.825,239.538 368.05,238.462 368.008,237.678C367.917,235.768 373.084,237.569 373.084,237.569Z" fill="#F7A491"/>
<path d="M368.012,237.677C367.917,235.767 373.084,237.568 373.084,237.568L373.119,238.114C372.955,238.371 372.768,238.592 372.566,238.764C371.22,239.893 369.244,240.438 367.623,240.296C367.863,239.37 368.05,238.398 368.012,237.677Z" fill="#F47458"/>
<path d="M367.744,224.94C367.744,224.94 365.696,228.143 365.608,230.8C365.52,233.453 366.142,235.247 366.142,235.247L372.771,227.059L367.744,224.94Z" fill="#13375B"/>
<path d="M364.884,230.277C364.811,231.208 365.2,231.996 365.753,232.037C366.306,232.078 366.81,231.357 366.882,230.427C366.955,229.496 366.566,228.708 366.013,228.667C365.46,228.625 364.956,229.347 364.884,230.277Z" fill="#F48C7F"/>
<path d="M375.017,228.285C375.174,228.248 375.364,235.965 373.129,237.837C370.894,239.713 366.928,239.974 365.719,238.173C364.38,236.185 365.383,228.023 368.732,226.207C372.08,224.391 375.017,228.285 375.017,228.285Z" fill="#F7A491"/>
<path d="M375.467,223.487C377.248,224.94 378.122,226.009 379.373,228.64C380.91,231.876 378.126,235.34 375.75,236.749C373.374,238.158 373.217,239.791 373.217,239.791L373.091,238.79C373.034,238.424 373.038,238.124 373.099,237.867C373.168,237.56 373.301,237.306 373.419,237.045C373.614,236.607 374.232,235.12 374.48,234.724C375.132,233.681 375.257,233.457 374.899,232.489C374.621,231.746 374.876,230.083 374.445,228.857L371.181,228.255C371.181,228.255 369.136,227.829 368.08,226.697C365.04,223.442 370.765,219.582 375.467,223.487Z" fill="#13375B"/>
<path d="M374.147,233.352C373.77,234.208 373.877,235.079 374.384,235.292C374.891,235.509 375.608,234.985 375.986,234.13C376.363,233.274 376.256,232.403 375.749,232.19C375.242,231.977 374.521,232.497 374.147,233.352Z" fill="#F7A491"/>
<path d="M601.114,268.01C601.114,268.01 594.444,266.265 594.368,266.792C592.648,278.324 591.904,282.491 591.66,282.606C590.836,282.995 580.314,273.058 578.407,272.356C577.495,272.02 576.492,272.046 575.535,272.049C573.247,272.057 572.797,272.053 572.797,272.053C572.732,272.057 572.713,272.057 572.713,272.057L572.667,274.165C575.184,276.504 577.655,321.643 578.151,321.636C578.708,321.625 589.162,321.568 588.666,320.717C588.666,320.717 586.138,306.815 584.151,297.648C583.483,294.573 581.618,288.141 581.618,288.141C584.173,289.479 594.162,294.617 595.779,294.016C600.821,292.132 601.114,268.01 601.114,268.01Z" fill="#F47458"/>
<path d="M581.359,295.465C580.211,289.934 577.278,280.861 576.42,278.802C574.448,274.078 572.785,272.075 572.785,272.075L564.978,272.303C564.978,272.303 564.799,272.352 564.742,272.359C564.105,272.456 564.086,294.74 564.429,303.07C564.772,311.399 566.66,322.241 566.66,322.241L568.888,322.035C568.925,323.16 568.949,323.9 568.949,323.9C580.245,325.851 586.553,320.394 586.553,320.394C586.553,320.394 582.846,302.633 581.359,295.465Z" fill="#466EB6"/>
<path d="M564.979,272.3C564.979,272.3 557.256,271.747 555.288,270.812C554.094,270.244 544.369,262.146 544.369,262.146L545.044,241.148L538.072,240.449C538.072,240.449 533.827,263.567 535.013,266.141C536.238,268.798 550.49,279.975 553.274,284.737C554.876,287.479 553.358,324.726 553.877,325.07C557.588,327.084 573.186,328.871 572.946,327.697C566.237,295.338 564.979,272.3 564.979,272.3Z" fill="#F47458"/>
<path d="M565.383,265.558L564.982,272.3C564.982,272.3 569.803,280.951 572.427,279.83C574.628,278.888 572.874,272.356 572.874,272.356C572.874,272.356 572.538,270.861 572.061,269.138C571.729,267.935 571.458,266.634 571.508,265.689C571.615,263.387 565.383,265.558 565.383,265.558Z" fill="#F7A491"/>
<path d="M571.5,265.69C571.614,263.384 565.383,265.559 565.383,265.559L565.344,266.216C565.543,266.53 565.768,266.796 566.012,267.001C567.637,268.365 570.02,269.019 571.976,268.851C571.679,267.734 571.454,266.564 571.5,265.69Z" fill="#F47458"/>
<path d="M571.824,250.327C571.824,250.327 574.296,254.191 574.402,257.394C574.509,260.597 573.758,262.76 573.758,262.76L565.764,252.88L571.824,250.327Z" fill="#184655"/>
<path d="M575.273,256.766C575.361,257.887 574.887,258.84 574.224,258.888C573.557,258.937 572.95,258.066 572.863,256.945C572.775,255.824 573.248,254.871 573.911,254.823C574.579,254.77 575.189,255.641 575.273,256.766Z" fill="#F48C7F"/>
<path d="M563.049,254.363C562.862,254.318 562.629,263.627 565.325,265.888C568.022,268.149 572.808,268.463 574.265,266.295C575.878,263.896 574.669,254.049 570.631,251.859C566.592,249.673 563.049,254.363 563.049,254.363Z" fill="#F7A491"/>
<path d="M562.507,248.574C560.356,250.326 559.303,251.619 557.797,254.792C555.943,258.693 559.303,262.875 562.168,264.575C565.032,266.276 565.222,268.245 565.222,268.245L565.375,267.038C565.444,266.597 565.436,266.238 565.367,265.925C565.287,265.555 565.123,265.248 564.978,264.93C564.746,264.407 563.998,262.606 563.701,262.132C562.915,260.872 562.763,260.603 563.197,259.437C563.533,258.54 563.224,256.537 563.746,255.057L567.686,254.329C567.686,254.329 570.154,253.813 571.427,252.449C575.085,248.517 568.178,243.858 562.507,248.574Z" fill="#184655"/>
<path d="M564.098,260.477C564.552,261.513 564.426,262.559 563.812,262.82C563.198,263.078 562.332,262.45 561.878,261.419C561.424,260.384 561.55,259.338 562.164,259.076C562.778,258.815 563.644,259.442 564.098,260.477Z" fill="#F7A491"/>
<path d="M455.096,301.621C455.096,301.621 463.757,290.282 466.922,284.916C470.084,279.55 464.768,283.044 459.337,281.632C457.281,281.097 458.986,270.092 455.096,273.933C448.715,280.23 442.323,293.874 442.323,293.874L455.096,301.621Z" fill="#13375B"/>
<path d="M456.029,273.182C461.632,271.519 472.128,270.648 472.128,270.648C472.128,270.648 478.706,269.602 480.846,270.054C483.992,270.723 489.9,271.025 490.449,284.411C490.842,293.989 491.956,317.686 493.073,333.684L453.009,336.068C454.824,311.445 450.724,274.755 456.029,273.182Z" fill="#47637F"/>
<path d="M466.652,259.21L472.945,270.548C472.945,270.548 468.204,278.826 463.723,279.046C459.963,279.233 460.554,273.781 460.554,273.781C460.554,273.781 459.963,266.736 458.155,263.579C456.347,260.421 466.652,259.21 466.652,259.21Z" fill="#F7A491"/>
<path d="M466.079,263.75C464.667,265.226 462.307,267.173 459.748,268.41C459.374,266.642 458.859,264.815 458.153,263.582C457.322,262.124 459.069,261.082 461.189,260.383C464.034,259.643 466.654,259.213 466.654,259.213L467.864,261.392C467.551,262.154 466.548,263.26 466.079,263.75Z" fill="#F47458"/>
<path d="M463.417,240.109C463.676,239.926 469.882,254.1 467.189,259.202C464.496,264.302 457.387,267.67 453.795,265.211C449.821,262.49 445.477,246.623 450.267,240.827C455.061,235.027 463.417,240.109 463.417,240.109Z" fill="#F7A491"/>
<path d="M450.309,232.33C455.187,231.993 458.967,233.944 460.4,234.822C462.567,234.493 465.74,234.852 470.038,238.824C475.324,243.709 474.497,250.94 471.194,255.282C467.891,259.625 468.993,263.291 468.993,263.291L467.784,261.564C466.884,260.252 466.247,258.776 465.98,257.218C465.82,256.28 465.74,255.245 465.896,254.333C466.304,251.927 462.711,251.381 461.316,249.849C460.24,248.672 459.317,245.559 457.594,243.597L455.809,242.229C455.809,242.229 452.174,240.764 449.432,242.207C446.686,243.642 444.047,232.759 450.309,232.33Z" fill="#F7CC7F"/>
<path d="M462.253,252.416C462.734,254.221 463.985,255.466 465.049,255.193C466.113,254.92 466.586,253.238 466.105,251.434C465.625,249.628 464.374,248.384 463.31,248.657C462.246,248.926 461.773,250.611 462.253,252.416Z" fill="#F7A491"/>
<path d="M457.19,258.268L451.313,259.553C451.313,259.553 451.946,261.709 454.547,261.216C457.72,260.618 457.19,258.268 457.19,258.268Z" fill="#FFFFFF"/>
<path d="M476.266,303.609C476.266,303.609 486.785,290.511 489.355,285.365C491.926,280.223 489.18,272.08 484.081,271.116C478.981,270.152 464.214,293.65 464.214,293.65L476.266,303.609Z" fill="#13375B"/>
<path d="M102.197,99.326C102.197,99.326 97.094,92.644 95.229,89.482C93.364,86.321 96.499,88.38 99.699,87.547C100.912,87.233 99.905,80.749 102.197,83.01C105.954,86.721 109.722,94.759 109.722,94.759L102.197,99.326Z" fill="#96D9C9"/>
<path d="M101.648,82.569C98.346,81.589 92.163,81.074 92.163,81.074C92.163,81.074 88.289,80.457 87.026,80.723C85.173,81.115 81.691,81.294 81.366,89.183C81.134,94.826 80.478,108.787 79.822,118.216L103.426,119.621C102.358,105.114 104.772,83.495 101.648,82.569Z" fill="#50BFA5"/>
<path d="M95.39,74.337L91.683,81.019C91.683,81.019 94.474,85.895 97.117,86.026C99.333,86.135 98.986,82.924 98.986,82.924C98.986,82.924 99.333,78.773 100.397,76.915C101.461,75.051 95.39,74.337 95.39,74.337Z" fill="#F7A491"/>
<path d="M95.729,77.013C96.56,77.884 97.952,79.027 99.459,79.76C99.676,78.717 99.985,77.641 100.401,76.916C100.893,76.056 99.863,75.443 98.612,75.032C96.938,74.595 95.393,74.341 95.393,74.341L94.68,75.626C94.859,76.071 95.451,76.721 95.729,77.013Z" fill="#F47458"/>
<path d="M97.292,63.084C97.14,62.976 93.482,71.328 95.069,74.333C96.656,77.337 100.843,79.322 102.96,77.872C105.301,76.268 107.861,66.922 105.038,63.507C102.216,60.087 97.292,63.084 97.292,63.084Z" fill="#F7A491"/>
<path d="M105.019,58.499C102.144,58.301 99.92,59.448 99.074,59.968C97.796,59.774 95.927,59.987 93.395,62.326C90.279,65.203 90.767,69.464 92.716,72.024C94.665,74.58 94.013,76.743 94.013,76.743L94.722,75.727C95.252,74.953 95.63,74.086 95.786,73.167C95.881,72.614 95.927,72.005 95.836,71.467C95.595,70.047 97.712,69.725 98.536,68.825C99.169,68.13 99.71,66.295 100.729,65.14L101.781,64.333C101.781,64.333 103.925,63.47 105.538,64.318C107.155,65.162 108.707,58.753 105.019,58.499Z" fill="#184655"/>
<path d="M97.983,70.33C97.701,71.395 96.965,72.127 96.335,71.967C95.71,71.806 95.432,70.816 95.714,69.751C95.996,68.686 96.732,67.953 97.361,68.114C97.987,68.278 98.265,69.269 97.983,70.33Z" fill="#F7A491"/>
<path d="M100.962,73.779L104.424,74.538C104.424,74.538 104.051,75.809 102.518,75.517C100.653,75.166 100.962,73.779 100.962,73.779Z" fill="#FFFFFF"/>
<path d="M89.726,100.496C89.726,100.496 83.529,92.779 82.015,89.748C80.501,86.717 82.118,81.919 85.123,81.351C88.128,80.783 96.828,94.629 96.828,94.629L89.726,100.496Z" fill="#96D9C9"/>
<path d="M213.478,165.878C214.142,165.904 215.957,166.502 218.615,171.424C222.009,177.709 226.971,196.697 226.971,196.697L212.162,202.101L210.259,198.14L207.124,167.63C207.128,167.623 213.295,165.871 213.478,165.878Z" fill="#8CA5D2"/>
<path d="M193.901,163.139C198.135,163.142 208.611,164.353 213.474,165.878C213.474,165.878 217.047,195.96 210.259,218.824C208.741,223.94 211.517,240.035 211.517,240.035L167.643,239.467C167.643,239.467 172.841,200.553 170.881,194.268C168.925,187.982 168.875,166.076 168.875,166.076C168.875,166.076 169.176,166.031 178.734,164.413C183.192,163.662 189.382,163.135 193.901,163.139Z" fill="#466EB6"/>
<path d="M168.398,169.425C172.502,167.915 174.508,204.134 175.061,219.045C182.327,219.728 194.989,219.048 198.143,218.817C199.626,218.708 203.043,217.479 204.519,217.292C206.03,217.098 207.399,216.997 208.142,217.124C208.413,217.168 215.987,220.203 216.636,220.868C217.441,221.694 219.611,223.776 219.245,224.676C218.878,225.577 215.068,222.169 215.068,222.169L213.207,221.145C215.526,223.365 219.946,226.287 219.309,227.352C218.688,228.391 214.699,225.424 211.857,223.402C214.294,225.558 217.326,229.422 216.628,230.024C216.003,230.566 212.555,226.093 208.875,224.807C207.509,224.329 206.152,225.652 205.076,225.812C204.287,225.928 203.07,226.179 202.296,225.965L198.31,224.859C196.953,224.979 196.918,225.768 195.545,226.052C193.951,226.384 191.342,226.732 189.313,227.217C177.635,230.013 173.742,231.309 170.168,231.309C159.333,231.298 158.703,172.99 168.398,169.425Z" fill="#F7A491"/>
<path d="M160.614,203.427C159.844,188.157 159.958,169.334 168.695,166.124C172.143,164.857 178.219,172.477 177.128,203.737C172.46,204.114 165.614,204.417 160.614,203.427Z" fill="#8CA5D2"/>
<path d="M203.749,126.397C202.502,125.986 201.27,125.519 200.084,124.958C198.741,124.323 197.002,123.583 195.904,123.414C193.593,123.067 189.619,123.299 187.426,125.631C184.691,128.534 179.836,126.154 180.816,141.367C181.922,158.584 191.693,156.696 191.93,156.405C192.166,156.113 200.644,145.388 200.644,145.388C200.644,145.388 203.608,151.741 203.608,151.509C203.611,151.281 218.745,131.344 203.749,126.397Z" fill="#0E2E35"/>
<path d="M196.331,157.674L197.173,163.825C197.173,163.825 199.061,172.689 196.632,174.397C194.203,176.105 186.296,163.571 186.296,163.571L187.132,147.98L196.331,157.674Z" fill="#F7A491"/>
<path d="M186.861,153.037C188.867,158.355 193.649,161.624 197.048,162.891L196.331,157.674L187.132,147.984L186.861,153.037Z" fill="#F47458"/>
<path d="M195.831,131.019C200.984,130.204 205.602,134.262 205.473,139.315C205.416,141.512 205.233,144.251 204.767,147.207C203.646,154.308 198.703,160.563 195.431,160.006C192.162,159.45 183.932,153.321 185.381,143.216C186.278,136.975 190.427,131.874 195.831,131.019Z" fill="#F7A491"/>
<path d="M187.654,144.42C187.379,145.982 186.102,147.07 184.801,146.845C183.501,146.625 182.673,145.179 182.948,143.617C183.222,142.055 184.5,140.967 185.8,141.191C187.101,141.412 187.928,142.858 187.654,144.42Z" fill="#F7A491"/>
<path d="M185.801,141.192C185.801,141.192 189.756,142.156 191.221,139.663C192.689,137.171 197.933,131.797 204.603,134.024C211.274,136.255 198.734,128.605 198.2,128.605C197.666,128.605 191.263,128.561 191.263,128.561C191.263,128.561 186.328,132.537 186.148,132.974C185.969,133.411 184.546,138.176 184.546,138.176L185.801,141.192Z" fill="#0E2E35"/>
<path d="M193.036,151.587L200.229,152.936C200.229,152.936 199.542,155.589 196.362,155.089C192.483,154.472 193.036,151.587 193.036,151.587Z" fill="#FFFFFF"/>
<path d="M290.666,257.293C291.009,257.308 291.955,257.618 293.335,260.174C295.101,263.44 297.679,273.31 297.679,273.31L289.983,276.12L288.995,274.061L287.367,258.205C287.367,258.201 290.57,257.29 290.666,257.293Z" fill="#FADFAE"/>
<path d="M280.491,255.868C282.691,255.872 288.137,256.5 290.662,257.292C290.662,257.292 292.519,272.927 288.992,284.811C288.202,287.472 289.644,295.835 289.644,295.835L266.841,295.54C266.841,295.54 269.541,275.316 268.527,272.049C267.508,268.783 267.485,257.397 267.485,257.397C267.485,257.397 267.642,257.374 272.607,256.53C274.926,256.141 278.141,255.864 280.491,255.868Z" fill="#F7CC7F"/>
<path d="M267.237,259.135C269.369,258.35 270.414,277.177 270.7,284.924C274.476,285.279 281.058,284.928 282.695,284.804C283.465,284.748 285.242,284.11 286.009,284.012C286.795,283.912 287.508,283.859 287.893,283.926C288.034,283.949 291.97,285.526 292.305,285.873C292.721,286.303 293.85,287.383 293.66,287.854C293.469,288.321 291.489,286.55 291.489,286.55L290.521,286.019C291.726,287.174 294.022,288.691 293.694,289.244C293.37,289.782 291.299,288.243 289.819,287.193C291.085,288.314 292.66,290.321 292.298,290.634C291.974,290.915 290.181,288.59 288.267,287.921C287.557,287.675 286.852,288.358 286.291,288.444C285.879,288.504 285.25,288.635 284.846,288.523L282.775,287.948C282.069,288.011 282.05,288.418 281.337,288.568C280.509,288.74 279.152,288.923 278.099,289.173C272.031,290.627 270.006,291.299 268.149,291.299C262.523,291.296 262.195,260.989 267.237,259.135Z" fill="#F7A491"/>
<path d="M263.187,276.807C262.786,268.87 262.847,259.09 267.386,257.419C269.178,256.761 272.336,260.719 271.768,276.968C269.346,277.166 265.788,277.323 263.187,276.807Z" fill="#FADFAE"/>
<path d="M285.609,236.772C284.96,236.56 284.32,236.317 283.706,236.025C283.008,235.696 282.104,235.312 281.535,235.225C280.334,235.042 278.271,235.166 277.13,236.376C275.712,237.886 273.187,236.649 273.694,244.557C274.27,253.507 279.346,252.524 279.472,252.371C279.594,252.217 284.003,246.646 284.003,246.646C284.003,246.646 285.544,249.949 285.544,249.826C285.536,249.706 293.404,239.344 285.609,236.772Z" fill="#0E2E35"/>
<path d="M281.753,253.029L282.192,256.228C282.192,256.228 283.176,260.835 281.909,261.725C280.647,262.614 276.536,256.097 276.536,256.097L276.97,247.995L281.753,253.029Z" fill="#BF7154"/>
<path d="M276.829,250.618C277.874,253.384 280.357,255.08 282.123,255.738L281.753,253.029L276.97,247.991L276.829,250.618Z" fill="#96482A"/>
<path d="M281.494,239.175C284.171,238.753 286.574,240.861 286.505,243.487C286.474,244.631 286.379,246.055 286.139,247.591C285.555,251.283 282.985,254.534 281.288,254.243C279.587,253.951 275.311,250.767 276.067,245.517C276.528,242.27 278.683,239.62 281.494,239.175Z" fill="#BF7154"/>
<path d="M277.245,246.141C277.1,246.952 276.436,247.516 275.761,247.401C275.086,247.285 274.655,246.533 274.8,245.722C274.945,244.912 275.608,244.347 276.284,244.463C276.955,244.575 277.386,245.326 277.245,246.141Z" fill="#BF7154"/>
<path d="M276.28,244.459C276.28,244.459 278.336,244.96 279.099,243.664C279.861,242.367 282.588,239.575 286.055,240.734C289.522,241.892 283.004,237.916 282.726,237.916C282.447,237.916 279.121,237.894 279.121,237.894C279.121,237.894 276.555,239.96 276.463,240.188C276.372,240.416 275.632,242.89 275.632,242.89L276.28,244.459Z" fill="#0E2E35"/>
<path d="M280.04,249.862L283.778,250.561C283.778,250.561 283.419,251.94 281.768,251.678C279.754,251.365 280.04,249.862 280.04,249.862Z" fill="#FFFFFF"/>
<path d="M619.071,95.823L631.012,97.019C631.012,97.019 631.561,87.427 631.561,82.852C631.561,77.303 631.081,70.15 630.394,70.307C628.472,70.741 625.886,71.78 624.35,73.85C619.021,81.017 619.071,95.823 619.071,95.823Z" fill="#B75742"/>
<path d="M624.936,81.87C624.685,83.563 620.097,129.573 620.097,129.573C641.839,139.861 653.834,131.404 653.834,131.404C653.834,131.404 653.121,99.094 653.975,94.695C654.539,91.784 655.241,72.453 653.319,71.911C650.851,71.216 648.017,70.48 644.932,70.166C642.297,69.897 632.064,69.743 630.234,70.345C630.234,70.349 625.989,74.751 624.936,81.87Z" fill="#F47458"/>
<path d="M642.026,61.275L643.426,70.326C643.426,70.326 638.308,81.103 635.253,80.169C632.69,79.384 634.265,69.851 634.265,69.851C634.265,69.851 635.661,64.731 635.245,62.168C634.829,59.6 642.026,61.275 642.026,61.275Z" fill="#F7A491"/>
<path d="M635.245,62.165C634.825,59.601 642.026,61.275 642.026,61.275L642.144,62.026C641.934,62.527 641.675,62.957 641.362,63.29C639.753,64.986 637.239,66.003 635.069,66.081C635.287,64.695 635.417,63.215 635.245,62.165Z" fill="#F47458"/>
<path d="M643.209,48.469C643.411,48.398 644.841,58.776 642.13,61.635C639.422,64.49 634.143,65.428 632.248,63.174C630.154,60.685 630.261,49.53 634.471,46.589C638.685,43.656 643.209,48.469 643.209,48.469Z" fill="#F7A491"/>
<path d="M636.077,41.04C639.334,41.69 641.44,43.64 642.218,44.47C643.697,44.642 645.703,45.442 647.778,48.809C650.33,52.946 648.446,57.531 645.474,59.781C642.504,62.03 642.546,64.627 642.546,64.627L642.076,63.282C641.729,62.266 641.588,61.186 641.703,60.117C641.771,59.478 641.912,58.783 642.183,58.215C642.896,56.713 640.65,55.715 640.017,54.463C639.533,53.499 639.51,51.298 638.743,49.709L637.832,48.495C637.832,48.495 635.722,46.888 633.663,47.34C631.604,47.796 631.901,40.206 636.077,41.04Z" fill="#0E2E35"/>
<path d="M640.158,56.312C640.135,57.579 640.722,58.614 641.47,58.629C642.217,58.64 642.839,57.624 642.858,56.357C642.881,55.09 642.293,54.055 641.546,54.04C640.803,54.029 640.181,55.045 640.158,56.312Z" fill="#F7A491"/>
<path d="M635.76,59.238L631.675,59.032C631.675,59.032 631.691,60.557 633.483,60.699C635.668,60.871 635.76,59.238 635.76,59.238Z" fill="#FFFFFF"/>
<path d="M675.366,130.062C675.381,129.964 675.381,129.863 675.37,129.766C675.049,126.579 672.349,99.822 671.896,98.686C671.484,97.658 659.375,80.688 659.375,80.688L653.425,88.633L665.072,103.854C665.336,104.822 669.535,122.883 669.535,122.883C669.535,122.883 670.397,126.175 670.782,128.148C670.606,128.623 670.435,129.071 670.279,129.441C669.893,130.23 669.439,130.873 669.024,131.418C668.501,132.102 667.643,133.597 667.536,133.997C667.414,134.46 667.189,135.428 667.063,136.011C666.937,136.594 666.766,137.274 666.735,137.588C666.716,137.782 666.514,138.163 666.358,138.436C666.125,138.84 666.522,139.318 666.972,139.172C667.395,139.034 667.723,138.5 667.929,138.163C668.501,137.218 668.806,135.495 668.951,135.589C669.092,135.678 669.596,138.604 669.676,138.933C669.756,139.266 670.359,142.659 670.698,143.279C671.038,143.9 671.488,143.795 671.606,143.406C671.709,143.07 671.232,138.32 671.232,138.32C671.232,138.32 671.171,137.715 671.442,137.905C671.713,138.096 672.155,142.409 672.342,143.04C672.529,143.672 672.96,144.004 673.326,143.5C673.768,142.883 673.005,138.309 673.005,138.309C673.005,138.309 672.922,137.734 673.169,137.786C673.421,137.838 673.734,141.515 673.928,141.833C674.123,142.151 674.615,142.267 674.851,141.736C675.13,141.112 674.413,137.035 674.413,137.035C674.413,137.035 674.447,136.71 674.603,136.818C674.76,136.926 675.256,140.039 675.58,140.327C675.851,140.57 676.079,140.334 676.079,140.334C676.674,139.938 675.763,136.975 675.77,135.503C675.778,134.03 675.084,132.375 675.29,130.622C675.309,130.502 675.343,130.23 675.366,130.062Z" fill="#F8A492"/>
<path d="M668.841,91.436L658.498,98.241C658.498,98.241 652.666,89.739 649.539,86.712C645.618,82.923 650.965,71.308 653.494,71.966C659.138,73.435 668.841,91.436 668.841,91.436Z" fill="#F47458"/>
<path d="M724.689,176.338C727.759,167.212 731.191,167.601 731.191,167.601L728.537,186.787C726.641,186.278 724.17,185.146 722.278,184.623C722.908,181.738 723.934,178.584 724.689,176.338Z" fill="#47637F"/>
<path d="M725.642,152.604C726.58,146.603 732.125,142.286 737.919,145.197C739.223,145.852 740.989,147.182 741.889,148.314C744.322,151.375 744.943,155.157 747.46,158.128C746.538,158.815 745.42,159.533 744.089,160.224L742.526,158.18L743.063,160.732C739.173,162.556 733.677,164.062 726.16,164.021C725.215,159.854 725.138,155.807 725.642,152.604Z" fill="#F7CC7F"/>
<path d="M739.052,165.96C739.052,165.96 744.036,165.321 746.275,167.717C748.514,170.112 741.984,189.35 741.576,192.396C741.168,195.445 744.433,203.087 744.433,203.087C744.433,203.087 730.181,205.715 726.382,203.244C726.382,203.244 726.157,181.783 726.561,179.604C726.969,177.425 730.36,168.569 731.172,167.698C731.988,166.831 739.052,165.96 739.052,165.96Z" fill="#13375B"/>
<path d="M737.168,158.538C737.168,158.538 737.198,158.703 737.248,158.979C737.5,160.313 738.472,164.745 739.128,165.964C739.921,167.436 736.412,172.13 733.037,171.558C732.031,171.386 733.888,167.245 733.796,166.805C733.625,165.964 733.396,164.816 733.159,163.643C733.026,162.982 732.889,162.309 732.763,161.677C732.4,159.884 732.107,158.415 732.107,158.415L737.168,158.538Z" fill="#F7A491"/>
<g opacity="0.5">
<path d="M737.248,158.979C737.195,158.703 737.168,158.538 737.168,158.538L732.111,158.415C732.111,158.415 732.405,159.884 732.767,161.677C732.893,162.305 733.026,162.974 733.16,163.632C733.941,163.52 734.758,163.146 735.574,162.443C736.466,161.677 737.05,160.754 737.405,159.771C737.34,159.458 737.29,159.185 737.248,158.979Z" fill="#F47458"/>
</g>
<path d="M733.762,147.246C733.762,147.246 736.146,146.977 737.641,148.875C739.136,150.773 740.745,156.644 737.034,159.835C733.319,163.027 729.651,159.413 729.109,155.583C728.564,151.752 728.354,147.107 733.762,147.246Z" fill="#F7A491"/>
<path d="M728.01,155.527C728.452,156.372 729.196,156.843 729.673,156.574C730.146,156.305 730.173,155.404 729.73,154.556C729.288,153.711 728.544,153.24 728.067,153.509C727.59,153.775 727.568,154.679 728.01,155.527Z" fill="#F7A491"/>
<path d="M733.495,146.618C733.495,146.618 736.68,152.201 738.96,152.459C741.241,152.717 741.538,155.684 741.538,155.684C741.538,155.684 740.722,148.849 738.468,147.53C736.211,146.211 733.495,146.618 733.495,146.618Z" fill="#F7CC7F"/>
<path d="M738.361,153.86C738.174,154.851 738.547,155.762 739.192,155.893C739.837,156.024 740.511,155.325 740.695,154.335C740.881,153.344 740.507,152.433 739.863,152.302C739.219,152.171 738.547,152.87 738.361,153.86Z" fill="#F7A491"/>
<path d="M735.555,157.462L732.107,158.127C732.107,158.127 732.443,159.394 733.968,159.144C735.829,158.841 735.555,157.462 735.555,157.462Z" fill="#FFFFFF"/>
<path d="M745.375,167.052C745.375,167.052 747.255,167.927 748.911,171.701C750.482,175.289 750.943,193.197 750.943,193.197L744.086,192.087L741.539,183.828C740.749,180.558 739.864,173.013 743.156,168.6C744.029,167.426 744.841,166.716 745.375,167.052Z" fill="#47637F"/>
<path d="M135.969,264.676C136.117,261.144 135.587,257.658 133.974,254.369C132.586,251.54 129.153,249.937 126.022,249.93C116.079,249.919 114.817,262.789 108.49,267.752C106.556,269.269 104.394,270.502 102.567,272.139C95.813,278.178 98.856,289.359 105.057,294.658C109.363,298.331 116.129,300.42 121.434,297.547C124.203,296.048 126.304,293.555 127.803,290.823C129.928,286.948 131.301,282.475 132.811,278.342C134.42,273.947 135.77,269.369 135.969,264.676Z" fill="#F7CC7F"/>
<path d="M132.251,297.18C132.251,297.18 124.825,289.721 122.914,286.481C121.004,283.241 124.215,285.349 127.495,284.497C128.738,284.176 128.421,277.042 130.771,279.358C134.623,283.163 139.466,289.815 139.466,289.815L132.251,297.18Z" fill="#F47458"/>
<path d="M121.693,276.089C121.693,276.089 115.031,274.8 111.991,277.288C108.951,279.777 112.643,301.907 112.639,305.574C112.636,309.244 110.553,318.825 110.553,318.825C110.553,318.825 130.748,323.074 133.955,317.566C133.955,317.566 134.866,296.582 134.733,293.944C134.596,291.306 131.602,280.513 130.774,279.359C129.947,278.204 121.693,276.089 121.693,276.089Z" fill="#B75742"/>
<path d="M121.652,265.991C121.652,265.991 121.618,266.186 121.553,266.518C121.252,268.11 120.088,273.398 119.303,274.852C118.353,276.608 122.556,282.21 126.599,281.526C127.804,281.321 125.58,276.38 125.687,275.857C125.893,274.856 126.168,273.488 126.454,272.086C126.614,271.294 126.774,270.495 126.927,269.74C127.358,267.598 127.712,265.846 127.712,265.846L121.652,265.991Z" fill="#F7A491"/>
<path d="M121.552,266.518C121.617,266.186 121.651,265.991 121.651,265.991L127.711,265.842C127.711,265.842 127.357,267.595 126.926,269.736C126.773,270.487 126.613,271.283 126.453,272.068C125.518,271.933 124.538,271.488 123.558,270.648C122.49,269.732 121.788,268.633 121.365,267.46C121.445,267.086 121.506,266.765 121.552,266.518Z" fill="#F47458"/>
<path d="M125.732,252.516C125.732,252.516 122.875,252.194 121.083,254.459C119.29,256.724 117.361,263.727 121.811,267.535C126.258,271.343 130.656,267.034 131.308,262.463C131.96,257.893 132.212,252.351 125.732,252.516Z" fill="#F7A491"/>
<path d="M130.187,251.368C130.187,251.368 124.619,259.186 119.314,258.14L119.165,254.803L119.653,253.539L122.338,251.85L126.705,250.875L130.187,251.368Z" fill="#F7CC7F"/>
<path d="M132.624,262.397C132.094,263.406 131.201,263.966 130.633,263.645C130.065,263.323 130.034,262.247 130.564,261.238C131.095,260.229 131.987,259.669 132.555,259.99C133.123,260.312 133.154,261.388 132.624,262.397Z" fill="#F7A491"/>
<path d="M120.221,260.412C120.443,261.597 119.996,262.681 119.222,262.834C118.448,262.991 117.643,262.157 117.422,260.973C117.201,259.788 117.647,258.704 118.421,258.551C119.192,258.394 119.996,259.227 120.221,260.412Z" fill="#F7A491"/>
<path d="M127.453,265.02L123.261,264.807C123.261,264.807 123.276,266.372 125.115,266.518C127.357,266.694 127.453,265.02 127.453,265.02Z" fill="#FFFFFF"/>
<path d="M127.453,265.02L123.261,264.807C123.261,264.807 123.276,266.372 125.115,266.518C127.357,266.694 127.453,265.02 127.453,265.02Z" fill="#FFFFFF"/>
<path d="M114.501,296.919C114.501,296.919 110.13,287.419 109.463,283.735C108.799,280.05 112.026,275.423 115.405,275.719C118.784,276.018 123.853,292.416 123.853,292.416L114.501,296.919Z" fill="#F47458"/>
</svg>
