<svg width="104" height="102" viewBox="0 0 104 102" fill="none" xmlns="http://www.w3.org/2000/svg" xmlns:xlink="http://www.w3.org/1999/xlink">
<g opacity="0.78">
<path d="M51.181,0C40.919,0 30.888,2.979 22.355,8.559C13.823,14.14 7.173,22.072 3.246,31.352C-0.681,40.633 -1.709,50.845 0.293,60.697C2.295,70.549 7.237,79.598 14.493,86.701C21.749,93.804 30.994,98.641 41.059,100.601C51.123,102.56 61.556,101.555 71.036,97.711C80.517,93.867 88.62,87.357 94.322,79.005C100.023,70.653 103.066,60.833 103.066,50.788C103.052,37.323 97.581,24.412 87.854,14.89C78.126,5.369 64.937,0.014 51.181,0M51.181,100.15C41.207,100.15 31.457,97.255 23.164,91.831C14.871,86.406 8.408,78.697 4.591,69.677C0.774,60.657 -0.225,50.732 1.721,41.156C3.667,31.581 8.47,22.785 15.522,15.881C22.575,8.978 31.561,4.276 41.343,2.372C51.125,0.467 61.265,1.445 70.479,5.181C79.694,8.917 87.57,15.244 93.111,23.362C98.652,31.479 101.61,41.023 101.61,50.786C101.596,63.874 96.278,76.422 86.824,85.676C77.37,94.931 64.551,100.136 51.181,100.15Z" fill="#434343"/>
<path d="M21.618,30.833C21.655,30.869 21.73,30.906 21.767,30.942L21.803,30.906L24.827,27.179C25.2,26.741 25.574,26.266 25.947,25.828C26.127,25.611 26.243,25.35 26.282,25.073C26.321,24.797 26.283,24.514 26.171,24.258C26.055,24.004 25.872,23.787 25.64,23.626C25.409,23.466 25.138,23.37 24.856,23.348C24.573,23.325 24.29,23.378 24.035,23.499C23.78,23.621 23.564,23.807 23.408,24.038L22.056,25.683C21.124,26.816 20.228,27.911 19.332,29.045C19.817,29.409 20.265,29.776 20.751,30.179C21.051,30.38 21.338,30.6 21.61,30.836Z" fill="#434343"/>
<path d="M51.18,2.266C41.384,2.266 31.807,5.11 23.661,10.438C15.516,15.765 9.167,23.338 5.418,32.198C1.669,41.057 0.688,50.806 2.599,60.212C4.51,69.617 9.228,78.257 16.155,85.038C23.083,91.819 31.909,96.436 41.517,98.307C51.125,100.178 61.085,99.218 70.136,95.548C79.187,91.878 86.923,85.664 92.366,77.69C97.808,69.717 100.713,60.342 100.713,50.753C100.714,44.385 99.433,38.08 96.944,32.197C94.455,26.314 90.807,20.968 86.207,16.466C81.607,11.963 76.147,8.392 70.137,5.955C64.127,3.519 57.685,2.265 51.18,2.266M43.193,5.29L47.827,4.778L51.186,14.388L54.546,4.778L59.179,5.29L59.703,18.918L56.083,18.444L55.747,9.346L52.499,18.444L49.923,18.444L46.641,9.346L46.305,18.444L42.685,18.956L43.193,5.29ZM11.915,27.761L10.795,26.885L10.683,26.775C10.759,26.701 10.795,26.629 10.876,26.556C11.842,25.386 12.78,24.218 13.751,23.012C14.871,21.623 15.991,20.272 17.111,18.882C17.335,18.627 17.522,18.37 17.746,18.079C18.04,17.723 18.406,17.43 18.822,17.22C19.238,17.01 19.695,16.887 20.162,16.859C20.629,16.832 21.097,16.9 21.536,17.06C21.974,17.219 22.374,17.467 22.71,17.786C23.169,18.214 23.494,18.762 23.646,19.365C23.798,19.967 23.771,20.6 23.569,21.188C23.648,21.106 23.735,21.033 23.83,20.969C24.357,20.588 24.977,20.35 25.628,20.277C26.279,20.205 26.938,20.301 27.539,20.556C28.14,20.812 28.662,21.217 29.052,21.732C29.443,22.247 29.689,22.853 29.765,23.49C29.802,23.98 29.764,24.472 29.653,24.951C29.304,25.81 28.783,26.593 28.122,27.253C26.963,28.678 25.805,30.067 24.646,31.492C23.681,32.662 22.706,33.83 21.771,35C21.706,35.092 21.631,35.178 21.548,35.255C21.548,35.291 21.472,35.181 21.436,35.181C21.1,34.888 20.727,34.633 20.352,34.34C18.933,33.244 17.553,32.148 16.134,31.052C14.753,29.956 13.334,28.86 11.915,27.763M51.182,81.073C45.058,81.077 39.071,79.303 33.977,75.975C28.883,72.648 24.911,67.917 22.564,62.38C20.217,56.843 19.6,50.749 20.791,44.869C21.982,38.989 24.928,33.586 29.256,29.345C33.584,25.104 39.099,22.214 45.105,21.041C51.11,19.868 57.336,20.464 62.996,22.755C68.655,25.046 73.493,28.928 76.898,33.911C80.303,38.893 82.123,44.752 82.126,50.747C82.131,54.728 81.334,58.67 79.781,62.349C78.228,66.029 75.95,69.372 73.076,72.188C70.202,75.005 66.789,77.239 63.033,78.764C59.276,80.288 55.249,81.073 51.182,81.073ZM80.67,35.072L78.879,32.076L85.001,24.222L75.818,28.351L73.243,26.013L81.605,15.241L84.18,17.578L79.329,23.791L87.051,20.319L89.328,23.095L84.177,29.71L91.419,26.457L93.211,29.453L80.67,35.072Z" fill="#434343"/>
<path d="M21.506,22.179C21.57,21.935 21.569,21.68 21.504,21.437C21.439,21.194 21.311,20.971 21.133,20.789C20.916,20.557 20.63,20.397 20.316,20.332C20.001,20.267 19.673,20.299 19.378,20.425C18.972,20.63 18.637,20.947 18.413,21.338C17.293,22.66 16.249,24.004 15.131,25.32C15.131,25.356 14.87,25.613 14.907,25.613C15.131,25.802 15.355,25.941 15.579,26.125C16.175,26.599 16.737,27.038 17.295,27.514C17.892,26.82 18.454,26.125 19.012,25.395C19.608,24.702 20.17,24.006 20.728,23.316C21.08,23.007 21.349,22.617 21.512,22.182Z" fill="#434343"/>
<path d="M21.805,50.751L51.21,50.751L51.21,21.995C43.477,22.183 36.113,25.272 30.64,30.624C25.168,35.976 22.005,43.181 21.805,50.751Z" fill="#434343"/>
<path d="M51.181,79.542C58.915,79.335 66.274,76.236 71.745,70.88C77.216,65.525 80.382,58.321 80.593,50.75L51.181,50.75L51.181,79.542Z" fill="#434343"/>
</g>
</svg>
