<svg width="70" height="70" viewBox="0 0 70 70" fill="none" xmlns="http://www.w3.org/2000/svg" xmlns:xlink="http://www.w3.org/1999/xlink">
<path d="M65.036,50.961L54.823,25.167C54.526,24.239 53.833,23.49 52.931,23.122C52.028,22.755 51.009,22.806 50.149,23.263L36.819,30.36C36.219,30.745 35.435,30.673 34.915,30.187L19.161,11.664C18.172,10.694 16.7,10.407 15.419,10.935C14.138,11.462 13.295,12.702 13.275,14.088L13.275,55.635L61.747,55.635C62.861,55.575 63.885,55.008 64.527,54.097C65.169,53.185 65.356,52.029 65.036,50.961L65.036,50.961Z" fill="#9A9A9A"/>
<path d="M65.209,62.559L6.351,62.559L6.351,3.701C6.351,1.789 4.801,0.239 2.889,0.239C0.976,0.239 -0.574,1.789 -0.574,3.701L-0.574,69.484L65.209,69.484C67.121,69.484 68.671,67.934 68.671,66.022C68.671,64.109 67.121,62.559 65.209,62.559Z" fill="#9A9A9A"/>
</svg>
