<svg width="70" height="70" viewBox="0 0 70 70" fill="none" xmlns="http://www.w3.org/2000/svg" xmlns:xlink="http://www.w3.org/1999/xlink">
<path d="M65.587,50.961L55.373,25.167C55.077,24.239 54.384,23.49 53.481,23.122C52.579,22.755 51.56,22.806 50.699,23.263L37.37,30.36C36.77,30.745 35.986,30.673 35.465,30.187L19.712,11.664C18.723,10.694 17.251,10.407 15.97,10.935C14.689,11.462 13.846,12.702 13.826,14.088L13.826,55.635L62.298,55.635C63.411,55.575 64.436,55.008 65.078,54.097C65.719,53.185 65.907,52.029 65.587,50.961L65.587,50.961Z" fill="#9A9A9A"/>
<path d="M65.76,62.559L6.902,62.559L6.902,3.701C6.902,1.789 5.351,0.239 3.439,0.239C1.527,0.239 -0.023,1.789 -0.023,3.701L-0.023,69.484L65.76,69.484C67.672,69.484 69.222,67.934 69.222,66.022C69.222,64.109 67.672,62.559 65.76,62.559Z" fill="#9A9A9A"/>
</svg>
