<svg width="70" height="70" viewBox="0 0 70 70" fill="none" xmlns="http://www.w3.org/2000/svg" xmlns:xlink="http://www.w3.org/1999/xlink">
<path d="M65.053,50.806L54.84,25.012C54.543,24.084 53.85,23.335 52.948,22.967C52.045,22.6 51.026,22.651 50.166,23.108L36.836,30.205C36.236,30.59 35.452,30.519 34.932,30.032L19.178,11.509C18.189,10.539 16.717,10.252 15.436,10.78C14.155,11.307 13.312,12.548 13.292,13.933L13.292,55.48L61.764,55.48C62.878,55.421 63.902,54.854 64.544,53.942C65.186,53.03 65.373,51.874 65.053,50.806L65.053,50.806Z" fill="#9A9A9A"/>
<path d="M65.226,62.405L6.368,62.405L6.368,3.546C6.368,1.634 4.818,0.084 2.906,0.084C0.993,0.084 -0.557,1.634 -0.557,3.546L-0.557,69.329L65.226,69.329C67.139,69.329 68.689,67.779 68.689,65.867C68.689,63.955 67.139,62.405 65.226,62.405Z" fill="#9A9A9A"/>
</svg>
