<svg width="54" height="52" viewBox="0 0 54 52" fill="none" xmlns="http://www.w3.org/2000/svg" xmlns:xlink="http://www.w3.org/1999/xlink">
<path d="M48.826,0L4.713,0C2.741,0 1.016,1.733 0.77,3.714L0.77,48.286C0.77,50.267 2.495,52 4.713,52L48.826,52C50.798,52 52.523,50.267 52.77,48.286L52.77,3.714C52.77,1.733 51.044,0 48.826,0ZM16.296,44.324L8.656,44.324L8.656,19.562L16.296,19.562L16.296,44.324ZM12.352,16.095C9.888,16.095 7.916,14.114 7.916,11.638C7.916,9.162 9.888,7.181 12.352,7.181C14.817,7.181 16.788,9.162 16.788,11.638C16.788,14.114 14.817,16.095 12.352,16.095ZM45.13,44.324L37.49,44.324L37.49,32.19C37.49,29.219 37.49,25.505 33.547,25.505C29.604,25.505 28.864,28.724 28.864,31.943L28.864,44.324L21.225,44.324L21.225,19.562L28.618,19.562L28.618,23.029C30.097,20.552 32.808,18.819 35.765,19.067C43.651,19.067 44.883,24.267 44.883,30.952L45.13,44.324L45.13,44.324Z" fill="#72848E"/>
</svg>
