<svg width="94" height="98" viewBox="0 0 94 98" fill="none" xmlns="http://www.w3.org/2000/svg" xmlns:xlink="http://www.w3.org/1999/xlink">
<g opacity="0.78">
<path d="M46.407,0.001C37.139,0.108 28.109,3.073 20.454,8.523C12.798,13.973 6.859,21.664 3.384,30.628C-0.09,39.592 -0.945,49.428 0.927,58.898C2.799,68.368 7.315,77.048 13.907,83.846C20.498,90.644 28.869,95.255 37.967,97.1C47.065,98.945 56.483,97.94 65.035,94.212C73.587,90.485 80.89,84.201 86.026,76.152C91.162,68.104 93.901,58.649 93.897,48.98C93.818,35.918 88.771,23.422 79.867,14.239C70.962,5.055 58.928,-0.066 46.407,0.001ZM46.407,96.127C28.561,96.127 14.567,86.464 7.908,73.135L8.922,72.746C10.986,75.981 13.34,79.004 15.953,81.774C19.705,86.075 31.568,94.367 46.373,94.367C53.861,94.396 61.232,92.428 67.787,88.65C74.341,84.871 79.861,79.408 83.823,72.778C84.432,72.598 84.634,72.32 84.397,71.791C88.192,64.828 90.249,56.983 90.379,48.975C90.429,44.608 89.801,40.262 88.521,36.104C87.814,33.839 86.967,31.625 85.986,29.475C85.866,29.287 85.806,29.065 85.813,28.84C85.985,28.991 86.133,29.17 86.253,29.369C87.367,31.511 88.349,33.725 89.193,35.998C90.946,40.083 91.878,44.499 91.932,48.975C91.879,61.522 87.055,73.535 78.519,82.375C69.983,91.215 58.433,96.159 46.405,96.121M8.312,72.037L41.572,47.071L38.733,45.379L9.091,71.091C5.512,64.323 3.574,56.745 3.447,49.016C3.423,43.231 4.492,37.497 6.595,32.144C8.697,26.79 11.791,21.922 15.7,17.818C19.608,13.714 24.255,10.454 29.372,8.226C34.49,5.998 39.979,4.845 45.524,4.833L39.478,44.186L42.317,45.913L46.136,4.831C46.204,4.302 46.542,4.302 46.542,4.831L46.778,48.133L53.538,44.008L47.081,4.831C70.201,5.466 89.365,24.93 89.365,48.944C89.26,56.709 87.321,64.327 83.721,71.125L54.112,45.384L51.274,47.077L83.114,71.154C83.892,71.719 83.656,71.965 82.811,71.514L47.083,50.004L47.083,58.08L82.913,72.361C79.02,78.778 73.634,84.064 67.257,87.726C60.881,91.389 53.719,93.31 46.44,93.31C39.161,93.31 31.999,91.389 25.622,87.726C19.246,84.064 13.86,78.778 9.967,72.361L45.864,58.08L45.864,50.004L8.719,72.395C7.739,72.924 7.501,72.642 8.314,72.035M7.469,72.494C5.701,68.69 4.384,64.676 3.547,60.539C3.525,60.339 3.537,60.136 3.582,59.94C3.711,60.118 3.804,60.322 3.852,60.539C4.956,64.453 6.452,68.235 8.314,71.823L7.469,72.494ZM91.866,40.694C91.755,40.517 91.665,40.327 91.595,40.129C88.114,28.951 85.173,24.578 79.46,18.054C75.256,13.338 70.182,9.554 64.544,6.931C58.905,4.308 52.816,2.9 46.643,2.789C34.669,2.796 23.187,7.761 14.72,16.594C6.253,25.427 1.493,37.406 1.486,49.898C1.448,55.954 2.432,61.97 4.394,67.671C5.915,71.55 8.552,76.803 8.686,77.051C8.775,77.25 8.821,77.467 8.821,77.686C8.641,77.543 8.491,77.363 8.381,77.157C6.584,74.091 4.971,70.911 3.552,67.637C0.566,60.314 -0.619,52.328 0.104,44.406C0.827,36.484 3.436,28.876 7.693,22.272C11.951,15.669 17.722,10.28 24.483,6.595C31.244,2.91 38.78,1.045 46.407,1.17C57.158,1.038 67.608,4.871 75.913,11.994C84.219,19.117 89.846,29.071 91.802,40.1C91.854,40.189 91.887,40.288 91.899,40.392C91.91,40.495 91.9,40.6 91.869,40.699Z" fill="#434343"/>
</g>
</svg>
