<svg width="66" height="64" viewBox="0 0 66 64" fill="none" xmlns="http://www.w3.org/2000/svg" xmlns:xlink="http://www.w3.org/1999/xlink">
<path d="M32.45,-0.636C14.963,-0.636 0.787,13.54 0.787,31.027C0.787,48.514 14.963,62.69 32.45,62.69C49.937,62.69 64.113,48.514 64.113,31.027C64.151,22.617 60.828,14.541 54.881,8.595C48.935,2.649 40.859,-0.675 32.45,-0.636ZM55.621,19.513L48.569,19.513C47.732,15.475 46.275,11.592 44.251,7.999C49.144,10.564 53.118,14.588 55.621,19.513L55.621,19.513ZM58.356,31.027C58.338,32.967 58.097,34.899 57.636,36.784L49.433,36.784C49.576,34.913 49.72,33.042 49.72,31.027C49.72,29.012 49.577,27.141 49.433,25.27L57.636,25.27C58.097,27.155 58.338,29.086 58.356,31.027L58.356,31.027ZM6.544,31.027C6.561,29.086 6.802,27.155 7.263,25.27L15.467,25.27C15.323,27.141 15.179,29.012 15.179,31.027C15.179,33.042 15.323,34.913 15.467,36.784L7.263,36.784C6.802,34.899 6.561,32.967 6.544,31.027L6.544,31.027ZM20.936,31.027C20.936,29.012 21.08,27.141 21.224,25.27L29.571,25.27L29.571,36.784L21.224,36.784C21.08,34.913 20.936,33.042 20.936,31.027ZM35.328,6.128C37.117,7.588 38.587,9.401 39.646,11.453C41.02,13.987 42.038,16.7 42.668,19.513L35.328,19.513L35.328,6.128ZM29.571,6.128L29.571,19.513L22.231,19.513C22.862,16.7 23.879,13.987 25.254,11.453C26.312,9.401 27.782,7.588 29.571,6.128L29.571,6.128ZM29.571,42.54L29.571,55.925C27.782,54.465 26.312,52.652 25.254,50.6C23.879,48.066 22.862,45.354 22.231,42.54L29.571,42.54ZM35.328,55.925L35.328,42.54L42.668,42.54C42.038,45.354 41.02,48.066 39.646,50.6C38.587,52.652 37.117,54.465 35.328,55.925L35.328,55.925ZM35.328,36.784L35.328,25.27L43.676,25.27C43.82,27.141 43.964,29.012 43.964,31.027C43.964,33.042 43.82,34.913 43.676,36.784L35.328,36.784ZM20.648,7.999C18.624,11.592 17.168,15.475 16.33,19.513L9.278,19.513C11.782,14.588 15.755,10.564 20.648,7.999L20.648,7.999ZM9.278,42.54L16.33,42.54C17.168,46.578 18.624,50.462 20.648,54.054C15.755,51.489 11.782,47.465 9.278,42.54L9.278,42.54ZM44.251,54.054C46.275,50.462 47.732,46.578 48.569,42.54L55.621,42.54C53.118,47.465 49.144,51.489 44.251,54.054Z" fill="#72848E"/>
</svg>
