<svg width="52" height="30" viewBox="0 0 52 30" fill="none" xmlns="http://www.w3.org/2000/svg" xmlns:xlink="http://www.w3.org/1999/xlink">
<path d="M25.715,19.541L6.418,0.243C5.708,-0.559 4.666,-0.987 3.598,-0.915C2.529,-0.844 1.554,-0.282 0.956,0.607C-0.136,2.116 0.018,4.192 1.32,5.523L23.167,27.187C23.822,27.901 24.746,28.307 25.715,28.307C26.684,28.307 27.609,27.901 28.264,27.187L50.11,5.523C51.412,4.192 51.566,2.116 50.474,0.607C49.877,-0.282 48.902,-0.844 47.833,-0.916C46.764,-0.987 45.723,-0.559 45.013,0.243L25.715,19.541Z" transform="rotate(180 25.715 13.692)" fill="#8E8E8E"/>
</svg>
