<svg width="52" height="30" viewBox="0 0 52 30" fill="none" xmlns="http://www.w3.org/2000/svg" xmlns:xlink="http://www.w3.org/1999/xlink">
<path d="M25.669,19.541L6.372,0.244C5.662,-0.558 4.621,-0.986 3.552,-0.915C2.483,-0.844 1.508,-0.281 0.91,0.608C-0.182,2.116 -0.028,4.192 1.275,5.523L23.121,27.187C23.776,27.901 24.7,28.308 25.669,28.308C26.638,28.308 27.563,27.901 28.218,27.187L50.064,5.523C51.367,4.192 51.52,2.116 50.428,0.608C49.831,-0.281 48.856,-0.844 47.787,-0.915C46.718,-0.986 45.677,-0.558 44.967,0.244L25.669,19.541Z" transform="rotate(-180 25.669 13.692)" fill="#8E8E8E"/>
</svg>
