<svg width="110" height="110" viewBox="0 0 110 110" fill="none" xmlns="http://www.w3.org/2000/svg" xmlns:xlink="http://www.w3.org/1999/xlink">
<g opacity="0.78">
<path d="M54.1,0.634C43.352,0.753 32.879,4.05 24,10.108C15.121,16.167 8.233,24.717 4.203,34.683C0.173,44.648 -0.818,55.582 1.353,66.11C3.525,76.637 8.762,86.287 16.407,93.844C24.051,101.401 33.76,106.528 44.312,108.578C54.863,110.629 65.786,109.512 75.704,105.368C85.622,101.224 94.093,94.239 100.049,85.291C106.006,76.343 109.182,65.833 109.178,55.084C109.085,40.563 103.233,26.672 92.906,16.462C82.579,6.253 68.622,0.56 54.1,0.634ZM54.1,107.496C33.402,107.496 17.172,96.754 9.45,81.936L10.626,81.504C13.019,85.101 15.749,88.461 18.78,91.54C23.132,96.322 36.89,105.54 54.06,105.54C62.745,105.572 71.294,103.384 78.896,99.184C86.497,94.984 92.899,88.91 97.494,81.54C98.2,81.34 98.434,81.03 98.16,80.442C102.561,72.702 104.947,63.981 105.098,55.078C105.155,50.224 104.427,45.392 102.942,40.77C102.123,38.252 101.141,35.79 100.002,33.4C99.863,33.191 99.793,32.945 99.802,32.694C100.002,32.862 100.174,33.061 100.312,33.282C101.604,35.664 102.743,38.125 103.722,40.652C105.756,45.193 106.836,50.103 106.898,55.078C106.837,69.027 101.242,82.382 91.343,92.209C81.443,102.036 68.047,107.532 54.098,107.49M9.918,80.716L48.492,52.962L45.2,51.08L10.822,79.664C6.67,72.141 4.423,63.716 4.276,55.124C4.248,48.693 5.488,42.319 7.927,36.367C10.365,30.416 13.953,25.004 18.486,20.441C23.02,15.879 28.408,12.255 34.343,9.778C40.279,7.301 46.645,6.019 53.076,6.006L46.064,49.754L49.356,51.674L53.786,6.004C53.864,5.416 54.256,5.416 54.256,6.004L54.53,54.142L62.37,49.556L54.882,6.004C81.696,6.71 103.922,28.348 103.922,55.044C103.799,63.676 101.551,72.145 97.376,79.702L63.036,51.086L59.744,52.968L96.672,79.734C97.574,80.362 97.3,80.636 96.32,80.134L54.884,56.222L54.884,65.2L96.438,81.076C91.923,88.21 85.677,94.086 78.282,98.158C70.886,102.229 62.581,104.365 54.138,104.365C45.696,104.365 37.39,102.229 29.995,98.158C22.599,94.086 16.353,88.21 11.838,81.076L53.47,65.2L53.47,56.222L10.39,81.114C9.254,81.702 8.978,81.388 9.92,80.714M8.94,81.224C6.89,76.995 5.363,72.532 4.392,67.934C4.366,67.712 4.38,67.486 4.432,67.268C4.582,67.465 4.689,67.692 4.746,67.934C6.026,72.285 7.761,76.49 9.92,80.478L8.94,81.224ZM106.822,45.872C106.694,45.675 106.588,45.465 106.508,45.244C102.47,32.818 99.06,27.956 92.434,20.704C87.558,15.46 81.674,11.255 75.134,8.339C68.594,5.423 61.533,3.857 54.374,3.734C40.487,3.741 27.17,9.261 17.35,19.081C7.53,28.901 2.01,42.217 2.002,56.104C1.957,62.837 3.099,69.525 5.374,75.862C7.138,80.174 10.196,86.014 10.352,86.29C10.456,86.511 10.509,86.752 10.508,86.996C10.299,86.837 10.126,86.637 9.998,86.408C7.914,82.999 6.044,79.465 4.398,75.824C0.935,67.683 -0.44,58.806 0.398,49.999C1.237,41.192 4.263,32.734 9.2,25.393C14.138,18.053 20.832,12.062 28.673,7.965C36.514,3.868 45.254,1.795 54.1,1.934C66.568,1.787 78.688,6.049 88.321,13.967C97.953,21.885 104.479,32.951 106.748,45.212C106.808,45.311 106.847,45.422 106.86,45.537C106.874,45.652 106.862,45.768 106.826,45.878Z" fill="#434343"/>
</g>
</svg>
