<svg width="58" height="58" viewBox="0 0 58 58" fill="none" xmlns="http://www.w3.org/2000/svg" xmlns:xlink="http://www.w3.org/1999/xlink">
<path d="M28.821,0.927C13.217,0.927 0.568,13.576 0.568,29.179C0.568,44.782 13.217,57.431 28.821,57.431C44.424,57.431 57.073,44.782 57.073,29.179C57.107,21.676 54.142,14.47 48.836,9.164C43.53,3.858 36.324,0.893 28.821,0.927ZM49.496,18.906L43.203,18.906C42.456,15.303 41.157,11.838 39.351,8.632C43.716,10.921 47.262,14.512 49.496,18.906L49.496,18.906ZM51.936,29.179C51.92,30.911 51.705,32.634 51.294,34.316L43.974,34.316C44.102,32.647 44.231,30.977 44.231,29.179C44.231,27.381 44.102,25.712 43.974,24.042L51.294,24.042C51.705,25.724 51.92,27.448 51.936,29.179L51.936,29.179ZM5.705,29.179C5.721,27.448 5.936,25.724 6.347,24.042L13.667,24.042C13.539,25.712 13.41,27.381 13.41,29.179C13.41,30.977 13.539,32.647 13.667,34.316L6.347,34.316C5.936,32.634 5.721,30.911 5.705,29.179L5.705,29.179ZM18.547,29.179C18.547,27.381 18.675,25.712 18.804,24.042L26.252,24.042L26.252,34.316L18.804,34.316C18.675,32.647 18.547,30.977 18.547,29.179ZM31.389,6.963C32.985,8.266 34.297,9.883 35.241,11.714C36.468,13.975 37.376,16.396 37.938,18.906L31.389,18.906L31.389,6.963ZM26.252,6.963L26.252,18.906L19.703,18.906C20.265,16.396 21.173,13.975 22.4,11.714C23.344,9.883 24.656,8.266 26.252,6.963L26.252,6.963ZM26.252,39.453L26.252,51.396C24.656,50.093 23.344,48.475 22.4,46.644C21.173,44.383 20.265,41.963 19.703,39.453L26.252,39.453ZM31.389,51.396L31.389,39.453L37.938,39.453C37.376,41.963 36.468,44.383 35.241,46.644C34.297,48.475 32.985,50.093 31.389,51.396L31.389,51.396ZM31.389,34.316L31.389,24.042L38.837,24.042C38.966,25.712 39.094,27.381 39.094,29.179C39.094,30.977 38.966,32.647 38.837,34.316L31.389,34.316ZM18.29,8.632C16.484,11.838 15.185,15.303 14.438,18.906L8.145,18.906C10.379,14.512 13.925,10.921 18.29,8.632L18.29,8.632ZM8.145,39.453L14.438,39.453C15.185,43.055 16.484,46.521 18.29,49.726C13.925,47.437 10.379,43.847 8.145,39.453L8.145,39.453ZM39.351,49.726C41.157,46.521 42.456,43.055 43.203,39.453L49.496,39.453C47.262,43.847 43.717,47.437 39.351,49.726Z" fill="#72848E"/>
</svg>
