<svg width="116" height="54" viewBox="0 0 116 54" fill="none" xmlns="http://www.w3.org/2000/svg" xmlns:xlink="http://www.w3.org/1999/xlink">
<path d="M58.136,-0.432C29.14,-0.432 3.032,9.464 0.048,22.718C-1.936,31.534 7.258,40.58 21.31,45.872C37.746,30.94 56.334,15.142 80.584,4.292C61.536,16.737 44.162,31.573 28.888,48.436C33.655,49.722 38.507,50.667 43.408,51.266C50.874,39.74 59.184,25.398 83.734,4.524C65.9,25.968 57.58,38.706 50.378,52.168C76.922,54.544 107.808,51.216 115.166,27.91C118.342,13.768 95.394,1.168 63.964,-0.26C62.02,-0.361 60.077,-0.418 58.136,-0.432ZM57.086,1.726C64.104,1.637 71.121,2.026 78.086,2.892C55.272,11.058 39.198,19.416 18.026,31.406C18.226,31.606 1.318,28.948 13.476,14.962C22.648,4.404 41.956,1.9 57.084,1.726L57.086,1.726ZM86.886,5.634C86.886,5.634 102.328,7.59 106.13,21.262C110.314,36.316 70.658,42.354 67.992,40.096C75.33,22.362 77.496,22.21 86.886,5.634L86.886,5.634Z" fill="#4D4D4D"/>
</svg>
