<svg width="206" height="28" viewBox="0 0 206 28" fill="none" xmlns="http://www.w3.org/2000/svg" xmlns:xlink="http://www.w3.org/1999/xlink">
<path d="M22.832,0.04C21.103,-0.008 19.385,0.334 17.806,1.04C16.207,1.882 14.795,3.039 13.654,4.44L13.654,0.61L4.188,0.61C1.66,0.61 0.128,2.41 -0.836,5.08C1.244,5.348 3.946,4.418 4.188,8.28L4.188,26.512L14.388,26.512L14.388,13.312C14.244,11.81 14.632,10.305 15.482,9.058C15.842,8.642 16.29,8.311 16.794,8.09C17.297,7.869 17.844,7.763 18.394,7.78C19.061,7.781 19.71,7.995 20.247,8.391C20.784,8.787 21.181,9.343 21.38,9.98C21.56,10.723 21.633,11.487 21.598,12.25L21.598,26.51L31.798,26.51L31.798,13.166C31.67,11.731 32.058,10.297 32.892,9.122C33.251,8.706 33.699,8.375 34.202,8.154C34.706,7.933 35.252,7.828 35.802,7.846C36.304,7.848 36.799,7.971 37.243,8.206C37.687,8.441 38.068,8.78 38.352,9.194C38.887,9.934 39.144,10.838 39.08,11.748L39.08,26.504L49.28,26.504L49.28,10.258C49.518,7.466 48.657,4.691 46.88,2.524C45.992,1.669 44.938,1.008 43.782,0.58C42.626,0.153 41.394,-0.03 40.164,0.042C38.489,-0.007 36.824,0.308 35.282,0.964C33.627,1.848 32.147,3.026 30.914,4.44C30.213,3.092 29.154,1.963 27.854,1.176C26.31,0.357 24.576,-0.035 22.83,0.042L22.832,0.04ZM108.694,0.326C106.58,0.178 104.682,1.22 104.47,2.666C104.258,4.112 105.778,5.428 107.892,5.576C110.006,5.724 111.904,4.61 112.116,3.164C112.328,1.718 110.808,0.472 108.694,0.326ZM79.416,0.538C77.294,1.016 77.508,2.058 76.794,2.878C77.956,3.2 79.37,2.86 79.416,5.716L79.416,26.504L86.844,26.504L86.844,17.504C86.71,16.266 86.991,15.017 87.644,13.956C87.907,13.634 88.241,13.376 88.62,13.202C88.998,13.029 89.412,12.945 89.828,12.956C90.176,12.931 90.526,12.982 90.852,13.105C91.179,13.227 91.476,13.419 91.722,13.666C92.263,14.376 92.522,15.261 92.45,16.15L92.45,26.508L99.878,26.508L99.878,14.586C100.037,12.585 99.411,10.6 98.132,9.052C97.51,8.444 96.767,7.972 95.952,7.667C95.137,7.361 94.267,7.23 93.398,7.28C92.177,7.246 90.962,7.463 89.828,7.918C88.705,8.46 87.692,9.206 86.842,10.118L86.842,0.538L79.416,0.538ZM154.572,0.538C152.81,0.576 152.608,1.65 152.024,2.452C153.372,2.452 154.126,3.34 154.572,4.652L154.572,9.546C153.852,8.805 152.984,8.225 152.024,7.844C151.026,7.455 149.963,7.262 148.892,7.276C147.799,7.245 146.713,7.451 145.707,7.879C144.701,8.308 143.8,8.949 143.066,9.758C141.401,11.761 140.567,14.325 140.736,16.924C140.667,19.454 141.407,21.94 142.848,24.02C143.529,24.976 144.44,25.744 145.497,26.252C146.554,26.761 147.723,26.994 148.894,26.93C150.129,26.959 151.352,26.691 152.462,26.148C153.483,25.52 154.373,24.701 155.084,23.736L155.084,26.504L162.074,26.504L162.074,0.538L154.572,0.538ZM64.196,7.278C62.904,7.265 61.613,7.36 60.336,7.562C59.351,7.697 58.393,7.984 57.496,8.412C56.639,8.856 55.893,9.487 55.312,10.258C54.76,11.12 54.388,12.085 54.218,13.094L61.28,13.804C61.473,13.125 61.882,12.527 62.446,12.102C63.275,11.669 64.207,11.473 65.14,11.534C65.843,11.471 66.545,11.674 67.106,12.102C67.323,12.354 67.487,12.648 67.587,12.965C67.687,13.283 67.721,13.617 67.688,13.948C66.83,14.279 65.955,14.562 65.066,14.798C64.242,15.016 62.456,15.398 59.678,15.932C57.909,16.127 56.238,16.843 54.878,17.99C54.017,18.965 53.573,20.238 53.64,21.536C53.623,22.265 53.771,22.989 54.073,23.653C54.375,24.316 54.824,24.903 55.386,25.368C56.887,26.507 58.751,27.062 60.63,26.928C62.195,26.958 63.751,26.694 65.218,26.148C66.298,25.694 67.286,25.045 68.13,24.232C68.178,24.636 68.25,25.037 68.348,25.432C68.516,25.801 68.71,26.156 68.93,26.496L75.85,26.496C75.534,25.889 75.289,25.246 75.122,24.582C75.001,23.903 74.952,23.213 74.976,22.524L74.976,14.224C74.95,13.251 74.753,12.291 74.394,11.386C74.112,10.517 73.609,9.735 72.936,9.116C71.948,8.324 70.767,7.81 69.514,7.626C67.755,7.356 65.976,7.238 64.196,7.272L64.196,7.278ZM130.684,7.278C129.355,7.23 128.033,7.498 126.826,8.058C125.609,8.734 124.544,9.652 123.694,10.754L123.694,7.704L116.778,7.704C115.332,7.742 115.098,8.804 114.738,9.476C115.015,9.47 115.29,9.522 115.547,9.628C115.803,9.734 116.034,9.892 116.226,10.092C116.418,10.292 116.566,10.53 116.661,10.79C116.756,11.05 116.796,11.328 116.778,11.604L116.778,26.504L124.204,26.504L124.204,17.504C124.07,16.266 124.351,15.017 125.004,13.956C125.267,13.634 125.601,13.376 125.98,13.202C126.358,13.029 126.772,12.945 127.188,12.956C127.536,12.931 127.886,12.982 128.213,13.104C128.541,13.227 128.838,13.419 129.084,13.666C129.625,14.376 129.884,15.261 129.812,16.15L129.812,26.508L137.238,26.508L137.238,14.586C137.4,12.584 136.773,10.599 135.492,9.052C134.856,8.441 134.101,7.969 133.274,7.663C132.447,7.358 131.566,7.227 130.686,7.278L130.684,7.278ZM178.314,7.278C177.38,7.255 176.462,7.528 175.692,8.058C174.779,8.771 174.054,9.697 173.58,10.754L173.58,7.704L166.66,7.704C164.98,7.704 165.168,8.704 164.984,9.548C165.696,9.87 166.584,9.766 166.66,11.536L166.66,26.504L174.086,26.504L174.086,20.188C173.9,18.063 174.303,15.929 175.252,14.018C175.497,13.649 175.834,13.35 176.23,13.151C176.626,12.952 177.067,12.859 177.51,12.882C178.239,12.916 178.955,13.084 179.622,13.378L181.88,8.27C180.787,7.662 179.566,7.322 178.316,7.278L178.314,7.278ZM192.806,7.278C191.514,7.265 190.224,7.36 188.948,7.562C187.963,7.696 187.005,7.983 186.108,8.412C185.25,8.856 184.503,9.487 183.922,10.258C183.37,11.12 182.998,12.085 182.828,13.094L189.892,13.804C190.083,13.125 190.492,12.527 191.056,12.102C191.885,11.669 192.817,11.473 193.75,11.534C194.453,11.47 195.155,11.673 195.716,12.102C195.934,12.354 196.097,12.648 196.197,12.965C196.297,13.283 196.332,13.617 196.298,13.948C195.44,14.279 194.565,14.563 193.676,14.798C192.852,15.016 191.076,15.398 188.288,15.932C186.519,16.126 184.848,16.843 183.488,17.99C182.626,18.964 182.181,20.237 182.248,21.536C182.231,22.265 182.379,22.989 182.682,23.653C182.985,24.316 183.434,24.903 183.996,25.368C185.497,26.507 187.361,27.062 189.24,26.928C190.804,26.958 192.36,26.694 193.826,26.148C194.907,25.695 195.895,25.045 196.74,24.232C196.786,24.637 196.859,25.037 196.958,25.432C197.124,25.801 197.319,26.157 197.54,26.496L204.46,26.496C204.142,25.889 203.898,25.247 203.732,24.582C203.612,23.903 203.562,23.213 203.584,22.524L203.584,14.224C203.558,13.251 203.36,12.291 203.002,11.386C202.72,10.516 202.22,9.734 201.546,9.116C200.558,8.325 199.376,7.81 198.122,7.626C196.363,7.356 194.585,7.238 192.806,7.272L192.806,7.278ZM104.606,7.704L104.606,26.504L112.044,26.504L112.044,7.704L104.606,7.704ZM151.206,12.67C151.66,12.655 152.112,12.743 152.528,12.928C152.943,13.112 153.312,13.388 153.606,13.734C154.338,14.685 154.7,15.87 154.624,17.068C154.735,18.325 154.4,19.581 153.678,20.616C153.382,20.96 153.013,21.234 152.598,21.418C152.183,21.602 151.732,21.691 151.278,21.68C150.845,21.686 150.417,21.594 150.026,21.409C149.635,21.225 149.29,20.954 149.02,20.616C148.35,19.615 148.042,18.416 148.146,17.216C148.034,15.992 148.342,14.767 149.02,13.742C149.279,13.41 149.611,13.142 149.99,12.957C150.369,12.773 150.785,12.677 151.206,12.678L151.206,12.67ZM67.692,17.566L67.692,18.766C67.725,19.524 67.576,20.278 67.256,20.966C66.894,21.577 66.363,22.07 65.726,22.384C65.036,22.768 64.257,22.964 63.468,22.952C62.812,22.99 62.165,22.788 61.648,22.384C61.454,22.219 61.3,22.012 61.199,21.778C61.098,21.544 61.052,21.291 61.064,21.036C61.06,20.782 61.109,20.531 61.21,20.298C61.311,20.065 61.46,19.857 61.648,19.686C62.505,19.114 63.473,18.728 64.488,18.552C65.592,18.28 66.672,17.914 67.688,17.552L67.692,17.566ZM196.292,17.566L196.292,18.766C196.326,19.524 196.177,20.279 195.856,20.966C195.495,21.577 194.963,22.07 194.326,22.384C193.636,22.768 192.857,22.964 192.068,22.952C191.412,22.99 190.765,22.788 190.248,22.384C190.054,22.219 189.901,22.012 189.8,21.778C189.699,21.544 189.653,21.29 189.666,21.036C189.661,20.783 189.711,20.531 189.811,20.298C189.911,20.065 190.06,19.857 190.248,19.686C191.105,19.115 192.073,18.728 193.088,18.552C194.192,18.28 195.274,17.914 196.288,17.552L196.292,17.566Z" fill="#666666"/>
</svg>
