<svg width="26" height="26" viewBox="0 0 26 26" fill="none" xmlns="http://www.w3.org/2000/svg" xmlns:xlink="http://www.w3.org/1999/xlink">
<path d="M20.582,0.144C20.107,0.073 19.628,0.038 19.148,0.04L1.01,0.04C0.73,0.048 0.45,0.072 0.172,0.11L0.172,24.128C0.172,24.408 0.138,24.758 0.138,25.036L20.738,25.036C21.018,24.932 21.262,24.836 21.538,24.722C22.261,24.504 22.905,24.082 23.393,23.506C23.88,22.93 24.192,22.226 24.288,21.478C24.414,20.869 24.472,20.247 24.462,19.626L24.462,10.536C24.462,8.752 24.532,6.936 24.428,5.152C24.324,2.076 23.17,0.642 20.582,0.152M17.12,16.688C17.05,18.506 16.56,18.96 14.778,18.996L7.578,18.996L7.578,6.026C10.166,6.026 12.752,5.99 15.304,6.026C16.388,6.06 16.842,6.586 17.018,7.67C17.099,8.014 17.146,8.365 17.158,8.718L17.158,16.34C17.133,16.454 17.121,16.572 17.124,16.69Z" fill="#434343"/>
</svg>
