<svg width="42" height="48" viewBox="0 0 42 48" fill="none" xmlns="http://www.w3.org/2000/svg" xmlns:xlink="http://www.w3.org/1999/xlink">
<path d="M28.973,0.001C26.25,0.185 23.336,1.805 21.533,3.991C19.954,5.915 18.63,8.738 19.133,11.671C18.683,11.532 18.274,11.517 17.783,11.341C16.444,10.865 14.914,10.351 13.013,10.351C9.237,10.351 5.37,12.597 2.933,16.351C-0.615,21.803 0.098,31.399 5.483,39.601C6.432,41.041 7.538,42.612 8.903,43.861C10.268,45.109 11.918,46.062 13.853,46.081C15.507,46.099 16.658,45.548 17.693,45.091C18.728,44.633 19.692,44.228 21.503,44.221C21.514,44.221 21.521,44.221 21.533,44.221C23.336,44.206 24.27,44.603 25.283,45.061C26.295,45.518 27.435,46.096 29.093,46.081C31.065,46.066 32.741,44.986 34.133,43.651C35.524,42.316 36.668,40.677 37.613,39.241C38.966,37.178 39.51,36.053 40.553,33.751C40.661,33.511 40.665,33.233 40.56,32.989C40.459,32.746 40.26,32.554 40.013,32.461C36.6,31.171 34.654,28.152 34.373,24.961C34.091,21.769 35.441,18.485 38.843,16.621C39.094,16.486 39.27,16.25 39.33,15.972C39.386,15.695 39.319,15.402 39.143,15.181C36.701,12.147 33.266,10.351 29.903,10.351C27.758,10.351 26.183,10.857 24.893,11.341C24.679,11.423 24.521,11.416 24.323,11.491C25.631,10.801 26.786,9.845 27.653,8.731C29.228,6.71 30.443,3.833 29.993,0.811C29.918,0.316 29.471,-0.037 28.973,0.001ZM27.953,2.281C27.889,4.22 27.225,6.117 26.123,7.531C24.968,9.016 23.025,10.043 21.143,10.351C21.176,8.487 21.911,6.556 23.033,5.191C24.21,3.766 26.16,2.738 27.953,2.281ZM13.013,12.271C13.853,12.271 15.803,12.672 17.123,13.141C18.443,13.61 19.834,14.161 21.473,14.161C23.074,14.161 24.341,13.606 25.583,13.141C26.824,12.676 28.061,12.271 29.903,12.271C32.306,12.271 34.905,13.52 36.953,15.691C33.675,18.005 32.141,21.612 32.453,25.111C32.764,28.647 34.894,32.003 38.393,33.751C38.388,33.762 38.383,33.773 38.378,33.783C37.629,35.415 37.129,36.503 36.023,38.191C35.104,39.589 34.013,41.119 32.813,42.271C31.613,43.422 30.341,44.149 29.063,44.161C27.829,44.172 27.128,43.804 26.063,43.321C24.998,42.837 23.621,42.282 21.503,42.301C19.388,42.312 17.993,42.844 16.913,43.321C15.833,43.797 15.124,44.172 13.883,44.161C12.57,44.149 11.352,43.512 10.193,42.451C9.034,41.389 7.988,39.942 7.073,38.551C2.033,30.871 1.628,21.848 4.523,17.401C6.645,14.135 12.173,12.271 13.013,12.271Z" fill="#000000"/>
<path d="M13.013,12.271C13.853,12.271 15.803,12.672 17.123,13.141C18.443,13.61 19.834,14.161 21.473,14.161C23.074,14.161 24.341,13.606 25.583,13.141C26.824,12.676 28.061,12.271 29.903,12.271C32.306,12.271 34.905,13.52 36.953,15.691C33.675,18.005 32.141,21.612 32.453,25.111C32.764,28.647 34.894,32.003 38.393,33.751L38.378,33.783C37.629,35.415 37.129,36.503 36.023,38.191C35.104,39.589 34.013,41.119 32.813,42.271C31.613,43.422 30.341,44.149 29.063,44.161C27.829,44.172 27.128,43.804 26.063,43.321C24.998,42.837 23.621,42.282 21.503,42.301C19.388,42.312 17.993,42.844 16.913,43.321C15.833,43.797 15.124,44.172 13.883,44.161C12.57,44.149 11.352,43.512 10.193,42.451C9.034,41.389 7.988,39.942 7.073,38.551C2.033,30.871 1.628,21.848 4.523,17.401C6.645,14.135 12.173,12.271 13.013,12.271Z" fill="#000000"/>
<path d="M27.953,2.281C27.889,4.22 27.225,6.117 26.123,7.531C24.968,9.016 23.025,10.043 21.143,10.351C21.176,8.487 21.911,6.556 23.033,5.191C24.21,3.766 26.16,2.738 27.953,2.281Z" fill="#000000"/>
</svg>
