<svg width="10" height="16" viewBox="0 0 10 16" fill="none" xmlns="http://www.w3.org/2000/svg" xmlns:xlink="http://www.w3.org/1999/xlink">
<path d="M0.336,12.545C-0.445,13.326 -0.445,14.592 0.336,15.373C1.117,16.154 2.384,16.154 3.165,15.373L0.336,12.545ZM7.74,7.969L9.154,9.383C9.936,8.602 9.936,7.336 9.154,6.555L7.74,7.969ZM3.165,0.565C2.384,-0.216 1.117,-0.216 0.336,0.565C-0.445,1.346 -0.445,2.613 0.336,3.394L3.165,0.565ZM3.165,15.373L9.154,9.383L6.326,6.555L0.336,12.545L3.165,15.373ZM9.154,6.555L3.165,0.565L0.336,3.394L6.326,9.383L9.154,6.555Z" fill="#FFFFFF"/>
</svg>
